%TF.GenerationSoftware,KiCad,Pcbnew,(5.1.10)-1*%
%TF.CreationDate,2022-01-11T14:09:39+01:00*%
%TF.ProjectId,EspOptoProg Panel,4573704f-7074-46f5-9072-6f672050616e,rev?*%
%TF.SameCoordinates,PXffb3b4c0PY4c4b40*%
%TF.FileFunction,OtherDrawing,Comment*%
%FSLAX46Y46*%
G04 Gerber Fmt 4.6, Leading zero omitted, Abs format (unit mm)*
G04 Created by KiCad (PCBNEW (5.1.10)-1) date 2022-01-11 14:09:39*
%MOMM*%
%LPD*%
G01*
G04 APERTURE LIST*
%ADD10C,0.200000*%
%ADD11C,0.150000*%
G04 APERTURE END LIST*
D10*
X606191Y92142857D02*
X1272858Y92142857D01*
X1558572Y91095238D02*
X606191Y91095238D01*
X606191Y93095238D01*
X1558572Y93095238D01*
X2320477Y91190476D02*
X2606191Y91095238D01*
X3082381Y91095238D01*
X3272858Y91190476D01*
X3368096Y91285714D01*
X3463334Y91476190D01*
X3463334Y91666666D01*
X3368096Y91857142D01*
X3272858Y91952380D01*
X3082381Y92047619D01*
X2701429Y92142857D01*
X2510953Y92238095D01*
X2415715Y92333333D01*
X2320477Y92523809D01*
X2320477Y92714285D01*
X2415715Y92904761D01*
X2510953Y93000000D01*
X2701429Y93095238D01*
X3177620Y93095238D01*
X3463334Y93000000D01*
X4320477Y91095238D02*
X4320477Y93095238D01*
X5082380Y93095238D01*
X5272857Y93000000D01*
X5368095Y92904761D01*
X5463333Y92714285D01*
X5463333Y92428571D01*
X5368095Y92238095D01*
X5272857Y92142857D01*
X5082380Y92047619D01*
X4320477Y92047619D01*
X8225238Y93095238D02*
X8606190Y93095238D01*
X8796666Y93000000D01*
X8987142Y92809523D01*
X9082380Y92428571D01*
X9082380Y91761904D01*
X8987142Y91380952D01*
X8796666Y91190476D01*
X8606190Y91095238D01*
X8225238Y91095238D01*
X8034761Y91190476D01*
X7844285Y91380952D01*
X7749047Y91761904D01*
X7749047Y92428571D01*
X7844285Y92809523D01*
X8034761Y93000000D01*
X8225238Y93095238D01*
X9939523Y92428571D02*
X9939523Y90428571D01*
X9939523Y92333333D02*
X10129999Y92428571D01*
X10510952Y92428571D01*
X10701428Y92333333D01*
X10796666Y92238095D01*
X10891904Y92047619D01*
X10891904Y91476190D01*
X10796666Y91285714D01*
X10701428Y91190476D01*
X10510952Y91095238D01*
X10129999Y91095238D01*
X9939523Y91190476D01*
X11463333Y92428571D02*
X12225238Y92428571D01*
X11749047Y93095238D02*
X11749047Y91380952D01*
X11844285Y91190476D01*
X12034761Y91095238D01*
X12225238Y91095238D01*
X13177619Y91095238D02*
X12987142Y91190476D01*
X12891904Y91285714D01*
X12796666Y91476190D01*
X12796666Y92047619D01*
X12891904Y92238095D01*
X12987142Y92333333D01*
X13177619Y92428571D01*
X13463333Y92428571D01*
X13653809Y92333333D01*
X13749047Y92238095D01*
X13844285Y92047619D01*
X13844285Y91476190D01*
X13749047Y91285714D01*
X13653809Y91190476D01*
X13463333Y91095238D01*
X13177619Y91095238D01*
X14701428Y91095238D02*
X14701428Y93095238D01*
X15463333Y93095238D01*
X15653809Y93000000D01*
X15749047Y92904761D01*
X15844285Y92714285D01*
X15844285Y92428571D01*
X15749047Y92238095D01*
X15653809Y92142857D01*
X15463333Y92047619D01*
X14701428Y92047619D01*
X16701428Y91095238D02*
X16701428Y92428571D01*
X16701428Y92047619D02*
X16796666Y92238095D01*
X16891904Y92333333D01*
X17082380Y92428571D01*
X17272857Y92428571D01*
X18225238Y91095238D02*
X18034761Y91190476D01*
X17939523Y91285714D01*
X17844285Y91476190D01*
X17844285Y92047619D01*
X17939523Y92238095D01*
X18034761Y92333333D01*
X18225238Y92428571D01*
X18510952Y92428571D01*
X18701428Y92333333D01*
X18796666Y92238095D01*
X18891904Y92047619D01*
X18891904Y91476190D01*
X18796666Y91285714D01*
X18701428Y91190476D01*
X18510952Y91095238D01*
X18225238Y91095238D01*
X20606190Y92428571D02*
X20606190Y90809523D01*
X20510952Y90619047D01*
X20415714Y90523809D01*
X20225238Y90428571D01*
X19939523Y90428571D01*
X19749047Y90523809D01*
X20606190Y91190476D02*
X20415714Y91095238D01*
X20034761Y91095238D01*
X19844285Y91190476D01*
X19749047Y91285714D01*
X19653809Y91476190D01*
X19653809Y92047619D01*
X19749047Y92238095D01*
X19844285Y92333333D01*
X20034761Y92428571D01*
X20415714Y92428571D01*
X20606190Y92333333D01*
X23082380Y91095238D02*
X23082380Y93095238D01*
X23082380Y92142857D02*
X24225238Y92142857D01*
X24225238Y91095238D02*
X24225238Y93095238D01*
X24891904Y93095238D02*
X25558571Y91095238D01*
X26225238Y93095238D01*
X26796666Y92904761D02*
X26891904Y93000000D01*
X27082380Y93095238D01*
X27558571Y93095238D01*
X27749047Y93000000D01*
X27844285Y92904761D01*
X27939523Y92714285D01*
X27939523Y92523809D01*
X27844285Y92238095D01*
X26701428Y91095238D01*
X27939523Y91095238D01*
X30225238Y92904761D02*
X30320476Y93000000D01*
X30510952Y93095238D01*
X30987142Y93095238D01*
X31177619Y93000000D01*
X31272857Y92904761D01*
X31368095Y92714285D01*
X31368095Y92523809D01*
X31272857Y92238095D01*
X30129999Y91095238D01*
X31368095Y91095238D01*
X32129999Y92904761D02*
X32225238Y93000000D01*
X32415714Y93095238D01*
X32891904Y93095238D01*
X33082380Y93000000D01*
X33177619Y92904761D01*
X33272857Y92714285D01*
X33272857Y92523809D01*
X33177619Y92238095D01*
X32034761Y91095238D01*
X33272857Y91095238D01*
X34510952Y93095238D02*
X34701428Y93095238D01*
X34891904Y93000000D01*
X34987142Y92904761D01*
X35082380Y92714285D01*
X35177619Y92333333D01*
X35177619Y91857142D01*
X35082380Y91476190D01*
X34987142Y91285714D01*
X34891904Y91190476D01*
X34701428Y91095238D01*
X34510952Y91095238D01*
X34320476Y91190476D01*
X34225238Y91285714D01*
X34129999Y91476190D01*
X34034761Y91857142D01*
X34034761Y92333333D01*
X34129999Y92714285D01*
X34225238Y92904761D01*
X34320476Y93000000D01*
X34510952Y93095238D01*
X37082380Y91095238D02*
X35939523Y91095238D01*
X36510952Y91095238D02*
X36510952Y93095238D01*
X36320476Y92809523D01*
X36129999Y92619047D01*
X35939523Y92523809D01*
X38987142Y91095238D02*
X37844285Y91095238D01*
X38415714Y91095238D02*
X38415714Y93095238D01*
X38225238Y92809523D01*
X38034761Y92619047D01*
X37844285Y92523809D01*
X40891904Y91095238D02*
X39749047Y91095238D01*
X40320476Y91095238D02*
X40320476Y93095238D01*
X40129999Y92809523D01*
X39939523Y92619047D01*
X39749047Y92523809D01*
D11*
X137047619Y-5859404D02*
X137047619Y-5287976D01*
X137047619Y-5573690D02*
X138047619Y-5573690D01*
X137904761Y-5478452D01*
X137809523Y-5383214D01*
X137761904Y-5287976D01*
X138047619Y-6192738D02*
X138047619Y-6811785D01*
X137666666Y-6478452D01*
X137666666Y-6621309D01*
X137619047Y-6716547D01*
X137571428Y-6764166D01*
X137476190Y-6811785D01*
X137238095Y-6811785D01*
X137142857Y-6764166D01*
X137095238Y-6716547D01*
X137047619Y-6621309D01*
X137047619Y-6335595D01*
X137095238Y-6240357D01*
X137142857Y-6192738D01*
X138047619Y-7145119D02*
X138047619Y-7811785D01*
X137047619Y-7383214D01*
X137142857Y-8192738D02*
X137095238Y-8240357D01*
X137047619Y-8192738D01*
X137095238Y-8145119D01*
X137142857Y-8192738D01*
X137047619Y-8192738D01*
X138047619Y-9145119D02*
X138047619Y-8668928D01*
X137571428Y-8621309D01*
X137619047Y-8668928D01*
X137666666Y-8764166D01*
X137666666Y-9002261D01*
X137619047Y-9097500D01*
X137571428Y-9145119D01*
X137476190Y-9192738D01*
X137238095Y-9192738D01*
X137142857Y-9145119D01*
X137095238Y-9097500D01*
X137047619Y-9002261D01*
X137047619Y-8764166D01*
X137095238Y-8668928D01*
X137142857Y-8621309D01*
X137500000Y-1000000D02*
X137500000Y-4000000D01*
X2952381Y-5287976D02*
X3000000Y-5335595D01*
X3047620Y-5430833D01*
X3047620Y-5668928D01*
X3000000Y-5764166D01*
X2952381Y-5811785D01*
X2857143Y-5859404D01*
X2761905Y-5859404D01*
X2619048Y-5811785D01*
X2047620Y-5240357D01*
X2047620Y-5859404D01*
X2142858Y-6287976D02*
X2095239Y-6335595D01*
X2047620Y-6287976D01*
X2095239Y-6240357D01*
X2142858Y-6287976D01*
X2047620Y-6287976D01*
X3047620Y-7240357D02*
X3047620Y-6764166D01*
X2571429Y-6716547D01*
X2619048Y-6764166D01*
X2666667Y-6859404D01*
X2666667Y-7097500D01*
X2619048Y-7192738D01*
X2571429Y-7240357D01*
X2476191Y-7287976D01*
X2238096Y-7287976D01*
X2142858Y-7240357D01*
X2095239Y-7192738D01*
X2047620Y-7097500D01*
X2047620Y-6859404D01*
X2095239Y-6764166D01*
X2142858Y-6716547D01*
X2500000Y-1000000D02*
X2500000Y-4000000D01*
X-7287976Y2952381D02*
X-7240357Y3000000D01*
X-7145119Y3047620D01*
X-6907023Y3047620D01*
X-6811785Y3000000D01*
X-6764166Y2952381D01*
X-6716547Y2857143D01*
X-6716547Y2761905D01*
X-6764166Y2619048D01*
X-7335595Y2047620D01*
X-6716547Y2047620D01*
X-6287976Y2142858D02*
X-6240357Y2095239D01*
X-6287976Y2047620D01*
X-6335595Y2095239D01*
X-6287976Y2142858D01*
X-6287976Y2047620D01*
X-5335595Y3047620D02*
X-5811785Y3047620D01*
X-5859404Y2571429D01*
X-5811785Y2619048D01*
X-5716547Y2666667D01*
X-5478452Y2666667D01*
X-5383214Y2619048D01*
X-5335595Y2571429D01*
X-5287976Y2476191D01*
X-5287976Y2238096D01*
X-5335595Y2142858D01*
X-5383214Y2095239D01*
X-5478452Y2047620D01*
X-5716547Y2047620D01*
X-5811785Y2095239D01*
X-5859404Y2142858D01*
X-1000000Y2500000D02*
X-4000000Y2500000D01*
X-8049880Y87619047D02*
X-8145119Y87666666D01*
X-8192738Y87714285D01*
X-8240357Y87809523D01*
X-8240357Y87857142D01*
X-8192738Y87952380D01*
X-8145119Y88000000D01*
X-8049880Y88047619D01*
X-7859404Y88047619D01*
X-7764166Y88000000D01*
X-7716547Y87952380D01*
X-7668928Y87857142D01*
X-7668928Y87809523D01*
X-7716547Y87714285D01*
X-7764166Y87666666D01*
X-7859404Y87619047D01*
X-8049880Y87619047D01*
X-8145119Y87571428D01*
X-8192738Y87523809D01*
X-8240357Y87428571D01*
X-8240357Y87238095D01*
X-8192738Y87142857D01*
X-8145119Y87095238D01*
X-8049880Y87047619D01*
X-7859404Y87047619D01*
X-7764166Y87095238D01*
X-7716547Y87142857D01*
X-7668928Y87238095D01*
X-7668928Y87428571D01*
X-7716547Y87523809D01*
X-7764166Y87571428D01*
X-7859404Y87619047D01*
X-7335595Y88047619D02*
X-6668928Y88047619D01*
X-7097499Y87047619D01*
X-6287976Y87142857D02*
X-6240357Y87095238D01*
X-6287976Y87047619D01*
X-6335595Y87095238D01*
X-6287976Y87142857D01*
X-6287976Y87047619D01*
X-5335595Y88047619D02*
X-5811785Y88047619D01*
X-5859404Y87571428D01*
X-5811785Y87619047D01*
X-5716547Y87666666D01*
X-5478452Y87666666D01*
X-5383214Y87619047D01*
X-5335595Y87571428D01*
X-5287976Y87476190D01*
X-5287976Y87238095D01*
X-5335595Y87142857D01*
X-5383214Y87095238D01*
X-5478452Y87047619D01*
X-5716547Y87047619D01*
X-5811785Y87095238D01*
X-5859404Y87142857D01*
X-1000000Y87500000D02*
X-4000000Y87500000D01*
X-8287976Y75547619D02*
X-7621309Y75547619D01*
X-8049880Y74547619D01*
X-6764166Y75547619D02*
X-7240357Y75547619D01*
X-7287976Y75071428D01*
X-7240357Y75119047D01*
X-7145119Y75166666D01*
X-6907023Y75166666D01*
X-6811785Y75119047D01*
X-6764166Y75071428D01*
X-6716547Y74976190D01*
X-6716547Y74738095D01*
X-6764166Y74642857D01*
X-6811785Y74595238D01*
X-6907023Y74547619D01*
X-7145119Y74547619D01*
X-7240357Y74595238D01*
X-7287976Y74642857D01*
X-6287976Y74642857D02*
X-6240357Y74595238D01*
X-6287976Y74547619D01*
X-6335595Y74595238D01*
X-6287976Y74642857D01*
X-6287976Y74547619D01*
X-5621309Y75547619D02*
X-5526071Y75547619D01*
X-5430833Y75500000D01*
X-5383214Y75452380D01*
X-5335595Y75357142D01*
X-5287976Y75166666D01*
X-5287976Y74928571D01*
X-5335595Y74738095D01*
X-5383214Y74642857D01*
X-5430833Y74595238D01*
X-5526071Y74547619D01*
X-5621309Y74547619D01*
X-5716547Y74595238D01*
X-5764166Y74642857D01*
X-5811785Y74738095D01*
X-5859404Y74928571D01*
X-5859404Y75166666D01*
X-5811785Y75357142D01*
X-5764166Y75452380D01*
X-5716547Y75500000D01*
X-5621309Y75547619D01*
X-1000000Y75000000D02*
X-4000000Y75000000D01*
X-8049880Y85119047D02*
X-8145119Y85166666D01*
X-8192738Y85214285D01*
X-8240357Y85309523D01*
X-8240357Y85357142D01*
X-8192738Y85452380D01*
X-8145119Y85500000D01*
X-8049880Y85547619D01*
X-7859404Y85547619D01*
X-7764166Y85500000D01*
X-7716547Y85452380D01*
X-7668928Y85357142D01*
X-7668928Y85309523D01*
X-7716547Y85214285D01*
X-7764166Y85166666D01*
X-7859404Y85119047D01*
X-8049880Y85119047D01*
X-8145119Y85071428D01*
X-8192738Y85023809D01*
X-8240357Y84928571D01*
X-8240357Y84738095D01*
X-8192738Y84642857D01*
X-8145119Y84595238D01*
X-8049880Y84547619D01*
X-7859404Y84547619D01*
X-7764166Y84595238D01*
X-7716547Y84642857D01*
X-7668928Y84738095D01*
X-7668928Y84928571D01*
X-7716547Y85023809D01*
X-7764166Y85071428D01*
X-7859404Y85119047D01*
X-6764166Y85547619D02*
X-7240357Y85547619D01*
X-7287976Y85071428D01*
X-7240357Y85119047D01*
X-7145119Y85166666D01*
X-6907023Y85166666D01*
X-6811785Y85119047D01*
X-6764166Y85071428D01*
X-6716547Y84976190D01*
X-6716547Y84738095D01*
X-6764166Y84642857D01*
X-6811785Y84595238D01*
X-6907023Y84547619D01*
X-7145119Y84547619D01*
X-7240357Y84595238D01*
X-7287976Y84642857D01*
X-6287976Y84642857D02*
X-6240357Y84595238D01*
X-6287976Y84547619D01*
X-6335595Y84595238D01*
X-6287976Y84642857D01*
X-6287976Y84547619D01*
X-5621309Y85547619D02*
X-5526071Y85547619D01*
X-5430833Y85500000D01*
X-5383214Y85452380D01*
X-5335595Y85357142D01*
X-5287976Y85166666D01*
X-5287976Y84928571D01*
X-5335595Y84738095D01*
X-5383214Y84642857D01*
X-5430833Y84595238D01*
X-5526071Y84547619D01*
X-5621309Y84547619D01*
X-5716547Y84595238D01*
X-5764166Y84642857D01*
X-5811785Y84738095D01*
X-5859404Y84928571D01*
X-5859404Y85166666D01*
X-5811785Y85357142D01*
X-5764166Y85452380D01*
X-5716547Y85500000D01*
X-5621309Y85547619D01*
X-1000000Y85000000D02*
X-4000000Y85000000D01*
X-8145119Y89547619D02*
X-7954642Y89547619D01*
X-7859404Y89595238D01*
X-7811785Y89642857D01*
X-7716547Y89785714D01*
X-7668928Y89976190D01*
X-7668928Y90357142D01*
X-7716547Y90452380D01*
X-7764166Y90500000D01*
X-7859404Y90547619D01*
X-8049880Y90547619D01*
X-8145119Y90500000D01*
X-8192738Y90452380D01*
X-8240357Y90357142D01*
X-8240357Y90119047D01*
X-8192738Y90023809D01*
X-8145119Y89976190D01*
X-8049880Y89928571D01*
X-7859404Y89928571D01*
X-7764166Y89976190D01*
X-7716547Y90023809D01*
X-7668928Y90119047D01*
X-7049880Y90547619D02*
X-6954642Y90547619D01*
X-6859404Y90500000D01*
X-6811785Y90452380D01*
X-6764166Y90357142D01*
X-6716547Y90166666D01*
X-6716547Y89928571D01*
X-6764166Y89738095D01*
X-6811785Y89642857D01*
X-6859404Y89595238D01*
X-6954642Y89547619D01*
X-7049880Y89547619D01*
X-7145119Y89595238D01*
X-7192738Y89642857D01*
X-7240357Y89738095D01*
X-7287976Y89928571D01*
X-7287976Y90166666D01*
X-7240357Y90357142D01*
X-7192738Y90452380D01*
X-7145119Y90500000D01*
X-7049880Y90547619D01*
X-6287976Y89642857D02*
X-6240357Y89595238D01*
X-6287976Y89547619D01*
X-6335595Y89595238D01*
X-6287976Y89642857D01*
X-6287976Y89547619D01*
X-5621309Y90547619D02*
X-5526071Y90547619D01*
X-5430833Y90500000D01*
X-5383214Y90452380D01*
X-5335595Y90357142D01*
X-5287976Y90166666D01*
X-5287976Y89928571D01*
X-5335595Y89738095D01*
X-5383214Y89642857D01*
X-5430833Y89595238D01*
X-5526071Y89547619D01*
X-5621309Y89547619D01*
X-5716547Y89595238D01*
X-5764166Y89642857D01*
X-5811785Y89738095D01*
X-5859404Y89928571D01*
X-5859404Y90166666D01*
X-5811785Y90357142D01*
X-5764166Y90452380D01*
X-5716547Y90500000D01*
X-5621309Y90547619D01*
X-1000000Y90000000D02*
X-4000000Y90000000D01*
X-7668928Y14547619D02*
X-8240357Y14547619D01*
X-7954642Y14547619D02*
X-7954642Y15547619D01*
X-8049880Y15404761D01*
X-8145119Y15309523D01*
X-8240357Y15261904D01*
X-6764166Y15547619D02*
X-7240357Y15547619D01*
X-7287976Y15071428D01*
X-7240357Y15119047D01*
X-7145119Y15166666D01*
X-6907023Y15166666D01*
X-6811785Y15119047D01*
X-6764166Y15071428D01*
X-6716547Y14976190D01*
X-6716547Y14738095D01*
X-6764166Y14642857D01*
X-6811785Y14595238D01*
X-6907023Y14547619D01*
X-7145119Y14547619D01*
X-7240357Y14595238D01*
X-7287976Y14642857D01*
X-6287976Y14642857D02*
X-6240357Y14595238D01*
X-6287976Y14547619D01*
X-6335595Y14595238D01*
X-6287976Y14642857D01*
X-6287976Y14547619D01*
X-5621309Y15547619D02*
X-5526071Y15547619D01*
X-5430833Y15500000D01*
X-5383214Y15452380D01*
X-5335595Y15357142D01*
X-5287976Y15166666D01*
X-5287976Y14928571D01*
X-5335595Y14738095D01*
X-5383214Y14642857D01*
X-5430833Y14595238D01*
X-5526071Y14547619D01*
X-5621309Y14547619D01*
X-5716547Y14595238D01*
X-5764166Y14642857D01*
X-5811785Y14738095D01*
X-5859404Y14928571D01*
X-5859404Y15166666D01*
X-5811785Y15357142D01*
X-5764166Y15452380D01*
X-5716547Y15500000D01*
X-5621309Y15547619D01*
X-1000000Y15000000D02*
X-4000000Y15000000D01*
X-6764166Y5547619D02*
X-7240357Y5547619D01*
X-7287976Y5071428D01*
X-7240357Y5119047D01*
X-7145119Y5166666D01*
X-6907023Y5166666D01*
X-6811785Y5119047D01*
X-6764166Y5071428D01*
X-6716547Y4976191D01*
X-6716547Y4738096D01*
X-6764166Y4642858D01*
X-6811785Y4595239D01*
X-6907023Y4547620D01*
X-7145119Y4547620D01*
X-7240357Y4595239D01*
X-7287976Y4642858D01*
X-6287976Y4642858D02*
X-6240357Y4595239D01*
X-6287976Y4547620D01*
X-6335595Y4595239D01*
X-6287976Y4642858D01*
X-6287976Y4547620D01*
X-5621309Y5547619D02*
X-5526071Y5547619D01*
X-5430833Y5500000D01*
X-5383214Y5452380D01*
X-5335595Y5357142D01*
X-5287976Y5166666D01*
X-5287976Y4928572D01*
X-5335595Y4738096D01*
X-5383214Y4642858D01*
X-5430833Y4595239D01*
X-5526071Y4547620D01*
X-5621309Y4547620D01*
X-5716547Y4595239D01*
X-5764166Y4642858D01*
X-5811785Y4738096D01*
X-5859404Y4928572D01*
X-5859404Y5166666D01*
X-5811785Y5357142D01*
X-5764166Y5452380D01*
X-5716547Y5500000D01*
X-5621309Y5547619D01*
X-1000000Y5000000D02*
X-4000000Y5000000D01*
X-7049880Y547620D02*
X-6954642Y547620D01*
X-6859404Y500000D01*
X-6811785Y452381D01*
X-6764166Y357143D01*
X-6716547Y166667D01*
X-6716547Y-71428D01*
X-6764166Y-261904D01*
X-6811785Y-357142D01*
X-6859404Y-404761D01*
X-6954642Y-452380D01*
X-7049880Y-452380D01*
X-7145119Y-404761D01*
X-7192738Y-357142D01*
X-7240357Y-261904D01*
X-7287976Y-71428D01*
X-7287976Y166667D01*
X-7240357Y357143D01*
X-7192738Y452381D01*
X-7145119Y500000D01*
X-7049880Y547620D01*
X-6287976Y-357142D02*
X-6240357Y-404761D01*
X-6287976Y-452380D01*
X-6335595Y-404761D01*
X-6287976Y-357142D01*
X-6287976Y-452380D01*
X-5621309Y547620D02*
X-5526071Y547620D01*
X-5430833Y500000D01*
X-5383214Y452381D01*
X-5335595Y357143D01*
X-5287976Y166667D01*
X-5287976Y-71428D01*
X-5335595Y-261904D01*
X-5383214Y-357142D01*
X-5430833Y-404761D01*
X-5526071Y-452380D01*
X-5621309Y-452380D01*
X-5716547Y-404761D01*
X-5764166Y-357142D01*
X-5811785Y-261904D01*
X-5859404Y-71428D01*
X-5859404Y166667D01*
X-5811785Y357143D01*
X-5764166Y452381D01*
X-5716547Y500000D01*
X-5621309Y547620D01*
X-1000000Y0D02*
X-4000000Y0D01*
X139547619Y-5859404D02*
X139547619Y-5287976D01*
X139547619Y-5573690D02*
X140547619Y-5573690D01*
X140404761Y-5478452D01*
X140309523Y-5383214D01*
X140261904Y-5287976D01*
X140214285Y-6716547D02*
X139547619Y-6716547D01*
X140595238Y-6478452D02*
X139880952Y-6240357D01*
X139880952Y-6859404D01*
X140547619Y-7430833D02*
X140547619Y-7526071D01*
X140500000Y-7621309D01*
X140452380Y-7668928D01*
X140357142Y-7716547D01*
X140166666Y-7764166D01*
X139928571Y-7764166D01*
X139738095Y-7716547D01*
X139642857Y-7668928D01*
X139595238Y-7621309D01*
X139547619Y-7526071D01*
X139547619Y-7430833D01*
X139595238Y-7335595D01*
X139642857Y-7287976D01*
X139738095Y-7240357D01*
X139928571Y-7192738D01*
X140166666Y-7192738D01*
X140357142Y-7240357D01*
X140452380Y-7287976D01*
X140500000Y-7335595D01*
X140547619Y-7430833D01*
X139642857Y-8192738D02*
X139595238Y-8240357D01*
X139547619Y-8192738D01*
X139595238Y-8145119D01*
X139642857Y-8192738D01*
X139547619Y-8192738D01*
X140547619Y-8859404D02*
X140547619Y-8954642D01*
X140500000Y-9049880D01*
X140452380Y-9097500D01*
X140357142Y-9145119D01*
X140166666Y-9192738D01*
X139928571Y-9192738D01*
X139738095Y-9145119D01*
X139642857Y-9097500D01*
X139595238Y-9049880D01*
X139547619Y-8954642D01*
X139547619Y-8859404D01*
X139595238Y-8764166D01*
X139642857Y-8716547D01*
X139738095Y-8668928D01*
X139928571Y-8621309D01*
X140166666Y-8621309D01*
X140357142Y-8668928D01*
X140452380Y-8716547D01*
X140500000Y-8764166D01*
X140547619Y-8859404D01*
X140000000Y-1000000D02*
X140000000Y-4000000D01*
X134547619Y-5859404D02*
X134547619Y-5287976D01*
X134547619Y-5573690D02*
X135547619Y-5573690D01*
X135404761Y-5478452D01*
X135309523Y-5383214D01*
X135261904Y-5287976D01*
X135547619Y-6192738D02*
X135547619Y-6811785D01*
X135166666Y-6478452D01*
X135166666Y-6621309D01*
X135119047Y-6716547D01*
X135071428Y-6764166D01*
X134976190Y-6811785D01*
X134738095Y-6811785D01*
X134642857Y-6764166D01*
X134595238Y-6716547D01*
X134547619Y-6621309D01*
X134547619Y-6335595D01*
X134595238Y-6240357D01*
X134642857Y-6192738D01*
X135547619Y-7716547D02*
X135547619Y-7240357D01*
X135071428Y-7192738D01*
X135119047Y-7240357D01*
X135166666Y-7335595D01*
X135166666Y-7573690D01*
X135119047Y-7668928D01*
X135071428Y-7716547D01*
X134976190Y-7764166D01*
X134738095Y-7764166D01*
X134642857Y-7716547D01*
X134595238Y-7668928D01*
X134547619Y-7573690D01*
X134547619Y-7335595D01*
X134595238Y-7240357D01*
X134642857Y-7192738D01*
X134642857Y-8192738D02*
X134595238Y-8240357D01*
X134547619Y-8192738D01*
X134595238Y-8145119D01*
X134642857Y-8192738D01*
X134547619Y-8192738D01*
X135547619Y-8859404D02*
X135547619Y-8954642D01*
X135500000Y-9049880D01*
X135452380Y-9097500D01*
X135357142Y-9145119D01*
X135166666Y-9192738D01*
X134928571Y-9192738D01*
X134738095Y-9145119D01*
X134642857Y-9097500D01*
X134595238Y-9049880D01*
X134547619Y-8954642D01*
X134547619Y-8859404D01*
X134595238Y-8764166D01*
X134642857Y-8716547D01*
X134738095Y-8668928D01*
X134928571Y-8621309D01*
X135166666Y-8621309D01*
X135357142Y-8668928D01*
X135452380Y-8716547D01*
X135500000Y-8764166D01*
X135547619Y-8859404D01*
X135000000Y-1000000D02*
X135000000Y-4000000D01*
X124547619Y-5859404D02*
X124547619Y-5287976D01*
X124547619Y-5573690D02*
X125547619Y-5573690D01*
X125404761Y-5478452D01*
X125309523Y-5383214D01*
X125261904Y-5287976D01*
X125452380Y-6240357D02*
X125500000Y-6287976D01*
X125547619Y-6383214D01*
X125547619Y-6621309D01*
X125500000Y-6716547D01*
X125452380Y-6764166D01*
X125357142Y-6811785D01*
X125261904Y-6811785D01*
X125119047Y-6764166D01*
X124547619Y-6192738D01*
X124547619Y-6811785D01*
X125547619Y-7716547D02*
X125547619Y-7240357D01*
X125071428Y-7192738D01*
X125119047Y-7240357D01*
X125166666Y-7335595D01*
X125166666Y-7573690D01*
X125119047Y-7668928D01*
X125071428Y-7716547D01*
X124976190Y-7764166D01*
X124738095Y-7764166D01*
X124642857Y-7716547D01*
X124595238Y-7668928D01*
X124547619Y-7573690D01*
X124547619Y-7335595D01*
X124595238Y-7240357D01*
X124642857Y-7192738D01*
X124642857Y-8192738D02*
X124595238Y-8240357D01*
X124547619Y-8192738D01*
X124595238Y-8145119D01*
X124642857Y-8192738D01*
X124547619Y-8192738D01*
X125547619Y-8859404D02*
X125547619Y-8954642D01*
X125500000Y-9049880D01*
X125452380Y-9097500D01*
X125357142Y-9145119D01*
X125166666Y-9192738D01*
X124928571Y-9192738D01*
X124738095Y-9145119D01*
X124642857Y-9097500D01*
X124595238Y-9049880D01*
X124547619Y-8954642D01*
X124547619Y-8859404D01*
X124595238Y-8764166D01*
X124642857Y-8716547D01*
X124738095Y-8668928D01*
X124928571Y-8621309D01*
X125166666Y-8621309D01*
X125357142Y-8668928D01*
X125452380Y-8716547D01*
X125500000Y-8764166D01*
X125547619Y-8859404D01*
X125000000Y-1000000D02*
X125000000Y-4000000D01*
X94547619Y-5383214D02*
X94547619Y-5573690D01*
X94595238Y-5668928D01*
X94642857Y-5716547D01*
X94785714Y-5811785D01*
X94976190Y-5859404D01*
X95357142Y-5859404D01*
X95452380Y-5811785D01*
X95500000Y-5764166D01*
X95547619Y-5668928D01*
X95547619Y-5478452D01*
X95500000Y-5383214D01*
X95452380Y-5335595D01*
X95357142Y-5287976D01*
X95119047Y-5287976D01*
X95023809Y-5335595D01*
X94976190Y-5383214D01*
X94928571Y-5478452D01*
X94928571Y-5668928D01*
X94976190Y-5764166D01*
X95023809Y-5811785D01*
X95119047Y-5859404D01*
X95547619Y-6764166D02*
X95547619Y-6287976D01*
X95071428Y-6240357D01*
X95119047Y-6287976D01*
X95166666Y-6383214D01*
X95166666Y-6621309D01*
X95119047Y-6716547D01*
X95071428Y-6764166D01*
X94976190Y-6811785D01*
X94738095Y-6811785D01*
X94642857Y-6764166D01*
X94595238Y-6716547D01*
X94547619Y-6621309D01*
X94547619Y-6383214D01*
X94595238Y-6287976D01*
X94642857Y-6240357D01*
X94642857Y-7240357D02*
X94595238Y-7287976D01*
X94547619Y-7240357D01*
X94595238Y-7192738D01*
X94642857Y-7240357D01*
X94547619Y-7240357D01*
X95547619Y-7907023D02*
X95547619Y-8002261D01*
X95500000Y-8097500D01*
X95452380Y-8145119D01*
X95357142Y-8192738D01*
X95166666Y-8240357D01*
X94928571Y-8240357D01*
X94738095Y-8192738D01*
X94642857Y-8145119D01*
X94595238Y-8097500D01*
X94547619Y-8002261D01*
X94547619Y-7907023D01*
X94595238Y-7811785D01*
X94642857Y-7764166D01*
X94738095Y-7716547D01*
X94928571Y-7668928D01*
X95166666Y-7668928D01*
X95357142Y-7716547D01*
X95452380Y-7764166D01*
X95500000Y-7811785D01*
X95547619Y-7907023D01*
X95000000Y-1000000D02*
X95000000Y-4000000D01*
X89547619Y-5383214D02*
X89547619Y-5573690D01*
X89595238Y-5668928D01*
X89642857Y-5716547D01*
X89785714Y-5811785D01*
X89976190Y-5859404D01*
X90357142Y-5859404D01*
X90452380Y-5811785D01*
X90500000Y-5764166D01*
X90547619Y-5668928D01*
X90547619Y-5478452D01*
X90500000Y-5383214D01*
X90452380Y-5335595D01*
X90357142Y-5287976D01*
X90119047Y-5287976D01*
X90023809Y-5335595D01*
X89976190Y-5383214D01*
X89928571Y-5478452D01*
X89928571Y-5668928D01*
X89976190Y-5764166D01*
X90023809Y-5811785D01*
X90119047Y-5859404D01*
X90547619Y-6478452D02*
X90547619Y-6573690D01*
X90500000Y-6668928D01*
X90452380Y-6716547D01*
X90357142Y-6764166D01*
X90166666Y-6811785D01*
X89928571Y-6811785D01*
X89738095Y-6764166D01*
X89642857Y-6716547D01*
X89595238Y-6668928D01*
X89547619Y-6573690D01*
X89547619Y-6478452D01*
X89595238Y-6383214D01*
X89642857Y-6335595D01*
X89738095Y-6287976D01*
X89928571Y-6240357D01*
X90166666Y-6240357D01*
X90357142Y-6287976D01*
X90452380Y-6335595D01*
X90500000Y-6383214D01*
X90547619Y-6478452D01*
X89642857Y-7240357D02*
X89595238Y-7287976D01*
X89547619Y-7240357D01*
X89595238Y-7192738D01*
X89642857Y-7240357D01*
X89547619Y-7240357D01*
X90547619Y-7907023D02*
X90547619Y-8002261D01*
X90500000Y-8097500D01*
X90452380Y-8145119D01*
X90357142Y-8192738D01*
X90166666Y-8240357D01*
X89928571Y-8240357D01*
X89738095Y-8192738D01*
X89642857Y-8145119D01*
X89595238Y-8097500D01*
X89547619Y-8002261D01*
X89547619Y-7907023D01*
X89595238Y-7811785D01*
X89642857Y-7764166D01*
X89738095Y-7716547D01*
X89928571Y-7668928D01*
X90166666Y-7668928D01*
X90357142Y-7716547D01*
X90452380Y-7764166D01*
X90500000Y-7811785D01*
X90547619Y-7907023D01*
X90000000Y-1000000D02*
X90000000Y-4000000D01*
X50547619Y-5811785D02*
X50547619Y-5335595D01*
X50071428Y-5287976D01*
X50119047Y-5335595D01*
X50166666Y-5430833D01*
X50166666Y-5668928D01*
X50119047Y-5764166D01*
X50071428Y-5811785D01*
X49976190Y-5859404D01*
X49738095Y-5859404D01*
X49642857Y-5811785D01*
X49595238Y-5764166D01*
X49547619Y-5668928D01*
X49547619Y-5430833D01*
X49595238Y-5335595D01*
X49642857Y-5287976D01*
X50547619Y-6478452D02*
X50547619Y-6573690D01*
X50500000Y-6668928D01*
X50452380Y-6716547D01*
X50357142Y-6764166D01*
X50166666Y-6811785D01*
X49928571Y-6811785D01*
X49738095Y-6764166D01*
X49642857Y-6716547D01*
X49595238Y-6668928D01*
X49547619Y-6573690D01*
X49547619Y-6478452D01*
X49595238Y-6383214D01*
X49642857Y-6335595D01*
X49738095Y-6287976D01*
X49928571Y-6240357D01*
X50166666Y-6240357D01*
X50357142Y-6287976D01*
X50452380Y-6335595D01*
X50500000Y-6383214D01*
X50547619Y-6478452D01*
X49642857Y-7240357D02*
X49595238Y-7287976D01*
X49547619Y-7240357D01*
X49595238Y-7192738D01*
X49642857Y-7240357D01*
X49547619Y-7240357D01*
X50547619Y-7907023D02*
X50547619Y-8002261D01*
X50500000Y-8097500D01*
X50452380Y-8145119D01*
X50357142Y-8192738D01*
X50166666Y-8240357D01*
X49928571Y-8240357D01*
X49738095Y-8192738D01*
X49642857Y-8145119D01*
X49595238Y-8097500D01*
X49547619Y-8002261D01*
X49547619Y-7907023D01*
X49595238Y-7811785D01*
X49642857Y-7764166D01*
X49738095Y-7716547D01*
X49928571Y-7668928D01*
X50166666Y-7668928D01*
X50357142Y-7716547D01*
X50452380Y-7764166D01*
X50500000Y-7811785D01*
X50547619Y-7907023D01*
X50000000Y-1000000D02*
X50000000Y-4000000D01*
X45214285Y-5764166D02*
X44547619Y-5764166D01*
X45595238Y-5526071D02*
X44880952Y-5287976D01*
X44880952Y-5907023D01*
X45547619Y-6764166D02*
X45547619Y-6287976D01*
X45071428Y-6240357D01*
X45119047Y-6287976D01*
X45166666Y-6383214D01*
X45166666Y-6621309D01*
X45119047Y-6716547D01*
X45071428Y-6764166D01*
X44976190Y-6811785D01*
X44738095Y-6811785D01*
X44642857Y-6764166D01*
X44595238Y-6716547D01*
X44547619Y-6621309D01*
X44547619Y-6383214D01*
X44595238Y-6287976D01*
X44642857Y-6240357D01*
X44642857Y-7240357D02*
X44595238Y-7287976D01*
X44547619Y-7240357D01*
X44595238Y-7192738D01*
X44642857Y-7240357D01*
X44547619Y-7240357D01*
X45547619Y-7907023D02*
X45547619Y-8002261D01*
X45500000Y-8097500D01*
X45452380Y-8145119D01*
X45357142Y-8192738D01*
X45166666Y-8240357D01*
X44928571Y-8240357D01*
X44738095Y-8192738D01*
X44642857Y-8145119D01*
X44595238Y-8097500D01*
X44547619Y-8002261D01*
X44547619Y-7907023D01*
X44595238Y-7811785D01*
X44642857Y-7764166D01*
X44738095Y-7716547D01*
X44928571Y-7668928D01*
X45166666Y-7668928D01*
X45357142Y-7716547D01*
X45452380Y-7764166D01*
X45500000Y-7811785D01*
X45547619Y-7907023D01*
X45000000Y-1000000D02*
X45000000Y-4000000D01*
X14547619Y-5859404D02*
X14547619Y-5287976D01*
X14547619Y-5573690D02*
X15547619Y-5573690D01*
X15404761Y-5478452D01*
X15309523Y-5383214D01*
X15261904Y-5287976D01*
X15547619Y-6764166D02*
X15547619Y-6287976D01*
X15071428Y-6240357D01*
X15119047Y-6287976D01*
X15166666Y-6383214D01*
X15166666Y-6621309D01*
X15119047Y-6716547D01*
X15071428Y-6764166D01*
X14976190Y-6811785D01*
X14738095Y-6811785D01*
X14642857Y-6764166D01*
X14595238Y-6716547D01*
X14547619Y-6621309D01*
X14547619Y-6383214D01*
X14595238Y-6287976D01*
X14642857Y-6240357D01*
X14642857Y-7240357D02*
X14595238Y-7287976D01*
X14547619Y-7240357D01*
X14595238Y-7192738D01*
X14642857Y-7240357D01*
X14547619Y-7240357D01*
X15547619Y-7907023D02*
X15547619Y-8002261D01*
X15500000Y-8097500D01*
X15452380Y-8145119D01*
X15357142Y-8192738D01*
X15166666Y-8240357D01*
X14928571Y-8240357D01*
X14738095Y-8192738D01*
X14642857Y-8145119D01*
X14595238Y-8097500D01*
X14547619Y-8002261D01*
X14547619Y-7907023D01*
X14595238Y-7811785D01*
X14642857Y-7764166D01*
X14738095Y-7716547D01*
X14928571Y-7668928D01*
X15166666Y-7668928D01*
X15357142Y-7716547D01*
X15452380Y-7764166D01*
X15500000Y-7811785D01*
X15547619Y-7907023D01*
X5547619Y-5811785D02*
X5547619Y-5335595D01*
X5071428Y-5287976D01*
X5119047Y-5335595D01*
X5166666Y-5430833D01*
X5166666Y-5668928D01*
X5119047Y-5764166D01*
X5071428Y-5811785D01*
X4976191Y-5859404D01*
X4738096Y-5859404D01*
X4642858Y-5811785D01*
X4595239Y-5764166D01*
X4547620Y-5668928D01*
X4547620Y-5430833D01*
X4595239Y-5335595D01*
X4642858Y-5287976D01*
X4642858Y-6287976D02*
X4595239Y-6335595D01*
X4547620Y-6287976D01*
X4595239Y-6240357D01*
X4642858Y-6287976D01*
X4547620Y-6287976D01*
X5547619Y-6954642D02*
X5547619Y-7049880D01*
X5500000Y-7145119D01*
X5452380Y-7192738D01*
X5357142Y-7240357D01*
X5166666Y-7287976D01*
X4928572Y-7287976D01*
X4738096Y-7240357D01*
X4642858Y-7192738D01*
X4595239Y-7145119D01*
X4547620Y-7049880D01*
X4547620Y-6954642D01*
X4595239Y-6859404D01*
X4642858Y-6811785D01*
X4738096Y-6764166D01*
X4928572Y-6716547D01*
X5166666Y-6716547D01*
X5357142Y-6764166D01*
X5452380Y-6811785D01*
X5500000Y-6859404D01*
X5547619Y-6954642D01*
X547620Y-5526071D02*
X547620Y-5621309D01*
X500000Y-5716547D01*
X452381Y-5764166D01*
X357143Y-5811785D01*
X166667Y-5859404D01*
X-71428Y-5859404D01*
X-261904Y-5811785D01*
X-357142Y-5764166D01*
X-404761Y-5716547D01*
X-452380Y-5621309D01*
X-452380Y-5526071D01*
X-404761Y-5430833D01*
X-357142Y-5383214D01*
X-261904Y-5335595D01*
X-71428Y-5287976D01*
X166667Y-5287976D01*
X357143Y-5335595D01*
X452381Y-5383214D01*
X500000Y-5430833D01*
X547620Y-5526071D01*
X-357142Y-6287976D02*
X-404761Y-6335595D01*
X-452380Y-6287976D01*
X-404761Y-6240357D01*
X-357142Y-6287976D01*
X-452380Y-6287976D01*
X547620Y-6954642D02*
X547620Y-7049880D01*
X500000Y-7145119D01*
X452381Y-7192738D01*
X357143Y-7240357D01*
X166667Y-7287976D01*
X-71428Y-7287976D01*
X-261904Y-7240357D01*
X-357142Y-7192738D01*
X-404761Y-7145119D01*
X-452380Y-7049880D01*
X-452380Y-6954642D01*
X-404761Y-6859404D01*
X-357142Y-6811785D01*
X-261904Y-6764166D01*
X-71428Y-6716547D01*
X166667Y-6716547D01*
X357143Y-6764166D01*
X452381Y-6811785D01*
X500000Y-6859404D01*
X547620Y-6954642D01*
X15000000Y-1000000D02*
X15000000Y-4000000D01*
X5000000Y-1000000D02*
X5000000Y-4000000D01*
X0Y-1000000D02*
X0Y-4000000D01*
X125500000Y87500000D02*
G75*
G03*
X125500000Y87500000I-500000J0D01*
G01*
X138000000Y74500000D02*
G75*
G03*
X138000000Y74500000I-500000J0D01*
G01*
X138000000Y15000000D02*
G75*
G03*
X138000000Y15000000I-500000J0D01*
G01*
X125500000Y2500000D02*
G75*
G03*
X125500000Y2500000I-500000J0D01*
G01*
X15500000Y2500000D02*
G75*
G03*
X15500000Y2500000I-500000J0D01*
G01*
X3000000Y15000000D02*
G75*
G03*
X3000000Y15000000I-500000J0D01*
G01*
X14500000Y81500000D02*
X14500000Y82500000D01*
X15500000Y81500000D02*
X14500000Y81500000D01*
X15500000Y82500000D02*
X15500000Y81500000D01*
X14500000Y82500000D02*
X15500000Y82500000D01*
X42500000Y8000000D02*
G75*
G03*
X42500000Y8000000I-500000J0D01*
G01*
X8500000Y8000000D02*
G75*
G03*
X8500000Y8000000I-500000J0D01*
G01*
X8500000Y82000000D02*
G75*
G03*
X8500000Y82000000I-500000J0D01*
G01*
X59500000Y81500000D02*
X59500000Y82500000D01*
X60500000Y81500000D02*
X59500000Y81500000D01*
X60500000Y82500000D02*
X60500000Y81500000D01*
X59500000Y82500000D02*
X60500000Y82500000D01*
X87500000Y8000000D02*
G75*
G03*
X87500000Y8000000I-500000J0D01*
G01*
X53500000Y8000000D02*
G75*
G03*
X53500000Y8000000I-500000J0D01*
G01*
X53500000Y82000000D02*
G75*
G03*
X53500000Y82000000I-500000J0D01*
G01*
X104500000Y81500000D02*
X104500000Y82500000D01*
X105500000Y81500000D02*
X104500000Y81500000D01*
X105500000Y82500000D02*
X105500000Y81500000D01*
X104500000Y82500000D02*
X105500000Y82500000D01*
X132500000Y8000000D02*
G75*
G03*
X132500000Y8000000I-500000J0D01*
G01*
X98500000Y8000000D02*
G75*
G03*
X98500000Y8000000I-500000J0D01*
G01*
X98500000Y82000000D02*
G75*
G03*
X98500000Y82000000I-500000J0D01*
G01*
M02*
