M48
; DRILL file {KiCad (5.1.10)-1} date 10/19/21 12:00:12
; FORMAT={-:-/ absolute / metric / decimal}
; #@! TF.CreationDate,2021-10-19T12:00:12+02:00
; #@! TF.GenerationSoftware,Kicad,Pcbnew,(5.1.10)-1
; #@! TF.FileFunction,Plated,1,2,PTH
FMAT,2
METRIC
T1C0.300
T2C0.400
T3C0.500
T4C0.550
T5C0.800
T6C1.000
%
G90
G05
T1
X8.25Y17.0
X8.25Y13.5
X10.5Y44.0
X11.75Y27.75
X14.0Y18.5
X14.25Y31.75
X16.0Y21.0
X21.25Y26.75
X21.25Y21.25
X23.0Y42.5
X23.75Y37.5
X24.75Y37.5
X27.0Y52.25
X27.0Y37.5
X29.5Y25.0
X30.0Y22.5
X30.25Y37.25
X30.75Y36.5
X31.25Y41.75
X36.0Y31.75
X39.0Y18.75
X53.25Y17.0
X53.25Y13.5
X55.5Y44.0
X56.75Y27.75
X59.0Y18.5
X59.25Y31.75
X61.0Y21.0
X66.25Y26.75
X66.25Y21.25
X68.0Y42.5
X68.75Y37.5
X69.75Y37.5
X72.0Y52.25
X72.0Y37.5
X74.5Y25.0
X75.0Y22.5
X75.25Y37.25
X75.75Y36.5
X76.25Y41.75
X81.0Y31.75
X84.0Y18.75
X98.25Y17.0
X98.25Y13.5
X100.5Y44.0
X101.75Y27.75
X104.0Y18.5
X104.25Y31.75
X106.0Y21.0
X111.25Y26.75
X111.25Y21.25
X113.0Y42.5
X113.75Y37.5
X114.75Y37.5
X117.0Y52.25
X117.0Y37.5
X119.5Y25.0
X120.0Y22.5
X120.25Y37.25
X120.75Y36.5
X121.25Y41.75
X126.0Y31.75
X129.0Y18.75
T2
X16.25Y13.25
X17.25Y41.5
X19.75Y41.25
X20.0Y25.0
X20.5Y52.25
X22.75Y54.0
X23.5Y41.0
X27.0Y55.0
X27.25Y76.75
X29.0Y29.5
X31.0Y58.75
X31.0Y57.25
X61.25Y13.25
X62.25Y41.5
X64.75Y41.25
X65.0Y25.0
X65.5Y52.25
X67.75Y54.0
X68.5Y41.0
X72.0Y55.0
X72.25Y76.75
X74.0Y29.5
X76.0Y58.75
X76.0Y57.25
X106.25Y13.25
X107.25Y41.5
X109.75Y41.25
X110.0Y25.0
X110.5Y52.25
X112.75Y54.0
X113.5Y41.0
X117.0Y55.0
X117.25Y76.75
X119.0Y29.5
X121.0Y58.75
X121.0Y57.25
T5
X15.0Y69.06
X15.0Y66.52
X15.0Y63.98
X15.0Y61.44
X34.38Y52.0
X34.38Y44.38
X36.92Y52.0
X36.92Y44.38
X39.46Y52.0
X39.46Y44.38
X42.0Y52.0
X42.0Y44.38
X60.0Y69.06
X60.0Y66.52
X60.0Y63.98
X60.0Y61.44
X79.38Y52.0
X79.38Y44.38
X81.92Y52.0
X81.92Y44.38
X84.46Y52.0
X84.46Y44.38
X87.0Y52.0
X87.0Y44.38
X105.0Y69.06
X105.0Y66.52
X105.0Y63.98
X105.0Y61.44
X124.38Y52.0
X124.38Y44.38
X126.92Y52.0
X126.92Y44.38
X129.46Y52.0
X129.46Y44.38
X132.0Y52.0
X132.0Y44.38
T6
X7.0Y27.5
X7.0Y20.0
X23.73Y27.58
X23.73Y25.04
X23.73Y22.5
X23.73Y19.96
X23.73Y17.42
X26.27Y27.58
X26.27Y25.04
X26.27Y22.5
X26.27Y19.96
X26.27Y17.42
X43.0Y27.5
X43.0Y20.0
X43.0Y17.5
X52.0Y27.5
X52.0Y20.0
X68.73Y27.58
X68.73Y25.04
X68.73Y22.5
X68.73Y19.96
X68.73Y17.42
X71.27Y27.58
X71.27Y25.04
X71.27Y22.5
X71.27Y19.96
X71.27Y17.42
X88.0Y27.5
X88.0Y20.0
X88.0Y17.5
X97.0Y27.5
X97.0Y20.0
X113.73Y27.58
X113.73Y25.04
X113.73Y22.5
X113.73Y19.96
X113.73Y17.42
X116.27Y27.58
X116.27Y25.04
X116.27Y22.5
X116.27Y19.96
X116.27Y17.42
X133.0Y27.5
X133.0Y20.0
X133.0Y17.5
T3
G00X21.5Y83.225
M15
G01X21.5Y83.875
M16
G05
G00X28.5Y83.225
M15
G01X28.5Y83.875
M16
G05
G00X66.5Y83.225
M15
G01X66.5Y83.875
M16
G05
G00X73.5Y83.225
M15
G01X73.5Y83.875
M16
G05
G00X111.5Y83.225
M15
G01X111.5Y83.875
M16
G05
G00X118.5Y83.225
M15
G01X118.5Y83.875
M16
G05
T4
G00X22.65Y80.85
M15
G01X22.35Y80.85
M16
G05
G00X27.65Y80.85
M15
G01X27.35Y80.85
M16
G05
G00X67.65Y80.85
M15
G01X67.35Y80.85
M16
G05
G00X72.65Y80.85
M15
G01X72.35Y80.85
M16
G05
G00X112.65Y80.85
M15
G01X112.35Y80.85
M16
G05
G00X117.65Y80.85
M15
G01X117.35Y80.85
M16
G05
T0
M30
