%TF.GenerationSoftware,KiCad,Pcbnew,(5.1.10)-1*%
%TF.CreationDate,2021-10-19T12:00:10+02:00*%
%TF.ProjectId,EspOptoProg Panel,4573704f-7074-46f5-9072-6f672050616e,rev?*%
%TF.SameCoordinates,PXffb3b4c0PY4c4b40*%
%TF.FileFunction,Soldermask,Bot*%
%TF.FilePolarity,Negative*%
%FSLAX46Y46*%
G04 Gerber Fmt 4.6, Leading zero omitted, Abs format (unit mm)*
G04 Created by KiCad (PCBNEW (5.1.10)-1) date 2021-10-19 12:00:10*
%MOMM*%
%LPD*%
G01*
G04 APERTURE LIST*
%ADD10C,0.150000*%
%ADD11C,2.500000*%
%ADD12C,2.000000*%
%ADD13O,2.100000X1.300000*%
%ADD14O,1.700000X1.700000*%
%ADD15C,1.800000*%
%ADD16O,2.300000X1.800000*%
%ADD17O,9.100000X2.100000*%
%ADD18O,1.000000X1.650000*%
%ADD19O,1.400000X1.100000*%
G04 APERTURE END LIST*
D10*
X0Y85000000D02*
X140000000Y85000000D01*
X135000000Y0D02*
X135000000Y90000000D01*
X90000000Y0D02*
X90000000Y90000000D01*
X95000000Y0D02*
X95000000Y90000000D01*
X50000000Y0D02*
X50000000Y90000000D01*
X45000000Y0D02*
X45000000Y90000000D01*
X5000000Y0D02*
X5000000Y90000000D01*
X0Y5000000D02*
X140000000Y5000000D01*
X43547619Y70321428D02*
X43214285Y70321428D01*
X43071428Y69797619D02*
X43547619Y69797619D01*
X43547619Y70797619D01*
X43071428Y70797619D01*
X42690476Y69845238D02*
X42547619Y69797619D01*
X42309523Y69797619D01*
X42214285Y69845238D01*
X42166666Y69892857D01*
X42119047Y69988095D01*
X42119047Y70083333D01*
X42166666Y70178571D01*
X42214285Y70226190D01*
X42309523Y70273809D01*
X42500000Y70321428D01*
X42595238Y70369047D01*
X42642857Y70416666D01*
X42690476Y70511904D01*
X42690476Y70607142D01*
X42642857Y70702380D01*
X42595238Y70750000D01*
X42500000Y70797619D01*
X42261904Y70797619D01*
X42119047Y70750000D01*
X41690476Y69797619D02*
X41690476Y70797619D01*
X41309523Y70797619D01*
X41214285Y70750000D01*
X41166666Y70702380D01*
X41119047Y70607142D01*
X41119047Y70464285D01*
X41166666Y70369047D01*
X41214285Y70321428D01*
X41309523Y70273809D01*
X41690476Y70273809D01*
X39738095Y70797619D02*
X39547619Y70797619D01*
X39452380Y70750000D01*
X39357142Y70654761D01*
X39309523Y70464285D01*
X39309523Y70130952D01*
X39357142Y69940476D01*
X39452380Y69845238D01*
X39547619Y69797619D01*
X39738095Y69797619D01*
X39833333Y69845238D01*
X39928571Y69940476D01*
X39976190Y70130952D01*
X39976190Y70464285D01*
X39928571Y70654761D01*
X39833333Y70750000D01*
X39738095Y70797619D01*
X38880952Y70464285D02*
X38880952Y69464285D01*
X38880952Y70416666D02*
X38785714Y70464285D01*
X38595238Y70464285D01*
X38500000Y70416666D01*
X38452380Y70369047D01*
X38404761Y70273809D01*
X38404761Y69988095D01*
X38452380Y69892857D01*
X38500000Y69845238D01*
X38595238Y69797619D01*
X38785714Y69797619D01*
X38880952Y69845238D01*
X38119047Y70464285D02*
X37738095Y70464285D01*
X37976190Y70797619D02*
X37976190Y69940476D01*
X37928571Y69845238D01*
X37833333Y69797619D01*
X37738095Y69797619D01*
X37261904Y69797619D02*
X37357142Y69845238D01*
X37404761Y69892857D01*
X37452380Y69988095D01*
X37452380Y70273809D01*
X37404761Y70369047D01*
X37357142Y70416666D01*
X37261904Y70464285D01*
X37119047Y70464285D01*
X37023809Y70416666D01*
X36976190Y70369047D01*
X36928571Y70273809D01*
X36928571Y69988095D01*
X36976190Y69892857D01*
X37023809Y69845238D01*
X37119047Y69797619D01*
X37261904Y69797619D01*
X36500000Y69797619D02*
X36500000Y70797619D01*
X36119047Y70797619D01*
X36023809Y70750000D01*
X35976190Y70702380D01*
X35928571Y70607142D01*
X35928571Y70464285D01*
X35976190Y70369047D01*
X36023809Y70321428D01*
X36119047Y70273809D01*
X36500000Y70273809D01*
X35500000Y69797619D02*
X35500000Y70464285D01*
X35500000Y70273809D02*
X35452380Y70369047D01*
X35404761Y70416666D01*
X35309523Y70464285D01*
X35214285Y70464285D01*
X34738095Y69797619D02*
X34833333Y69845238D01*
X34880952Y69892857D01*
X34928571Y69988095D01*
X34928571Y70273809D01*
X34880952Y70369047D01*
X34833333Y70416666D01*
X34738095Y70464285D01*
X34595238Y70464285D01*
X34500000Y70416666D01*
X34452380Y70369047D01*
X34404761Y70273809D01*
X34404761Y69988095D01*
X34452380Y69892857D01*
X34500000Y69845238D01*
X34595238Y69797619D01*
X34738095Y69797619D01*
X33547619Y70464285D02*
X33547619Y69654761D01*
X33595238Y69559523D01*
X33642857Y69511904D01*
X33738095Y69464285D01*
X33880952Y69464285D01*
X33976190Y69511904D01*
X33547619Y69845238D02*
X33642857Y69797619D01*
X33833333Y69797619D01*
X33928571Y69845238D01*
X33976190Y69892857D01*
X34023809Y69988095D01*
X34023809Y70273809D01*
X33976190Y70369047D01*
X33928571Y70416666D01*
X33833333Y70464285D01*
X33642857Y70464285D01*
X33547619Y70416666D01*
X32309523Y69797619D02*
X32309523Y70797619D01*
X32309523Y70321428D02*
X31738095Y70321428D01*
X31738095Y69797619D02*
X31738095Y70797619D01*
X31404761Y70797619D02*
X31071428Y69797619D01*
X30738095Y70797619D01*
X29880952Y69797619D02*
X30452380Y69797619D01*
X30166666Y69797619D02*
X30166666Y70797619D01*
X30261904Y70654761D01*
X30357142Y70559523D01*
X30452380Y70511904D01*
X28738095Y70702380D02*
X28690476Y70750000D01*
X28595238Y70797619D01*
X28357142Y70797619D01*
X28261904Y70750000D01*
X28214285Y70702380D01*
X28166666Y70607142D01*
X28166666Y70511904D01*
X28214285Y70369047D01*
X28785714Y69797619D01*
X28166666Y69797619D01*
X27214285Y69797619D02*
X27785714Y69797619D01*
X27500000Y69797619D02*
X27500000Y70797619D01*
X27595238Y70654761D01*
X27690476Y70559523D01*
X27785714Y70511904D01*
X26261904Y69797619D02*
X26833333Y69797619D01*
X26547619Y69797619D02*
X26547619Y70797619D01*
X26642857Y70654761D01*
X26738095Y70559523D01*
X26833333Y70511904D01*
X25642857Y70797619D02*
X25547619Y70797619D01*
X25452380Y70750000D01*
X25404761Y70702380D01*
X25357142Y70607142D01*
X25309523Y70416666D01*
X25309523Y70178571D01*
X25357142Y69988095D01*
X25404761Y69892857D01*
X25452380Y69845238D01*
X25547619Y69797619D01*
X25642857Y69797619D01*
X25738095Y69845238D01*
X25785714Y69892857D01*
X25833333Y69988095D01*
X25880952Y70178571D01*
X25880952Y70416666D01*
X25833333Y70607142D01*
X25785714Y70702380D01*
X25738095Y70750000D01*
X25642857Y70797619D01*
X24357142Y69797619D02*
X24928571Y69797619D01*
X24642857Y69797619D02*
X24642857Y70797619D01*
X24738095Y70654761D01*
X24833333Y70559523D01*
X24928571Y70511904D01*
X23785714Y70369047D02*
X23880952Y70416666D01*
X23928571Y70464285D01*
X23976190Y70559523D01*
X23976190Y70607142D01*
X23928571Y70702380D01*
X23880952Y70750000D01*
X23785714Y70797619D01*
X23595238Y70797619D01*
X23500000Y70750000D01*
X23452380Y70702380D01*
X23404761Y70607142D01*
X23404761Y70559523D01*
X23452380Y70464285D01*
X23500000Y70416666D01*
X23595238Y70369047D01*
X23785714Y70369047D01*
X23880952Y70321428D01*
X23928571Y70273809D01*
X23976190Y70178571D01*
X23976190Y69988095D01*
X23928571Y69892857D01*
X23880952Y69845238D01*
X23785714Y69797619D01*
X23595238Y69797619D01*
X23500000Y69845238D01*
X23452380Y69892857D01*
X23404761Y69988095D01*
X23404761Y70178571D01*
X23452380Y70273809D01*
X23500000Y70321428D01*
X23595238Y70369047D01*
X88547619Y70321428D02*
X88214285Y70321428D01*
X88071428Y69797619D02*
X88547619Y69797619D01*
X88547619Y70797619D01*
X88071428Y70797619D01*
X87690476Y69845238D02*
X87547619Y69797619D01*
X87309523Y69797619D01*
X87214285Y69845238D01*
X87166666Y69892857D01*
X87119047Y69988095D01*
X87119047Y70083333D01*
X87166666Y70178571D01*
X87214285Y70226190D01*
X87309523Y70273809D01*
X87500000Y70321428D01*
X87595238Y70369047D01*
X87642857Y70416666D01*
X87690476Y70511904D01*
X87690476Y70607142D01*
X87642857Y70702380D01*
X87595238Y70750000D01*
X87500000Y70797619D01*
X87261904Y70797619D01*
X87119047Y70750000D01*
X86690476Y69797619D02*
X86690476Y70797619D01*
X86309523Y70797619D01*
X86214285Y70750000D01*
X86166666Y70702380D01*
X86119047Y70607142D01*
X86119047Y70464285D01*
X86166666Y70369047D01*
X86214285Y70321428D01*
X86309523Y70273809D01*
X86690476Y70273809D01*
X84738095Y70797619D02*
X84547619Y70797619D01*
X84452380Y70750000D01*
X84357142Y70654761D01*
X84309523Y70464285D01*
X84309523Y70130952D01*
X84357142Y69940476D01*
X84452380Y69845238D01*
X84547619Y69797619D01*
X84738095Y69797619D01*
X84833333Y69845238D01*
X84928571Y69940476D01*
X84976190Y70130952D01*
X84976190Y70464285D01*
X84928571Y70654761D01*
X84833333Y70750000D01*
X84738095Y70797619D01*
X83880952Y70464285D02*
X83880952Y69464285D01*
X83880952Y70416666D02*
X83785714Y70464285D01*
X83595238Y70464285D01*
X83500000Y70416666D01*
X83452380Y70369047D01*
X83404761Y70273809D01*
X83404761Y69988095D01*
X83452380Y69892857D01*
X83500000Y69845238D01*
X83595238Y69797619D01*
X83785714Y69797619D01*
X83880952Y69845238D01*
X83119047Y70464285D02*
X82738095Y70464285D01*
X82976190Y70797619D02*
X82976190Y69940476D01*
X82928571Y69845238D01*
X82833333Y69797619D01*
X82738095Y69797619D01*
X82261904Y69797619D02*
X82357142Y69845238D01*
X82404761Y69892857D01*
X82452380Y69988095D01*
X82452380Y70273809D01*
X82404761Y70369047D01*
X82357142Y70416666D01*
X82261904Y70464285D01*
X82119047Y70464285D01*
X82023809Y70416666D01*
X81976190Y70369047D01*
X81928571Y70273809D01*
X81928571Y69988095D01*
X81976190Y69892857D01*
X82023809Y69845238D01*
X82119047Y69797619D01*
X82261904Y69797619D01*
X81500000Y69797619D02*
X81500000Y70797619D01*
X81119047Y70797619D01*
X81023809Y70750000D01*
X80976190Y70702380D01*
X80928571Y70607142D01*
X80928571Y70464285D01*
X80976190Y70369047D01*
X81023809Y70321428D01*
X81119047Y70273809D01*
X81500000Y70273809D01*
X80500000Y69797619D02*
X80500000Y70464285D01*
X80500000Y70273809D02*
X80452380Y70369047D01*
X80404761Y70416666D01*
X80309523Y70464285D01*
X80214285Y70464285D01*
X79738095Y69797619D02*
X79833333Y69845238D01*
X79880952Y69892857D01*
X79928571Y69988095D01*
X79928571Y70273809D01*
X79880952Y70369047D01*
X79833333Y70416666D01*
X79738095Y70464285D01*
X79595238Y70464285D01*
X79500000Y70416666D01*
X79452380Y70369047D01*
X79404761Y70273809D01*
X79404761Y69988095D01*
X79452380Y69892857D01*
X79500000Y69845238D01*
X79595238Y69797619D01*
X79738095Y69797619D01*
X78547619Y70464285D02*
X78547619Y69654761D01*
X78595238Y69559523D01*
X78642857Y69511904D01*
X78738095Y69464285D01*
X78880952Y69464285D01*
X78976190Y69511904D01*
X78547619Y69845238D02*
X78642857Y69797619D01*
X78833333Y69797619D01*
X78928571Y69845238D01*
X78976190Y69892857D01*
X79023809Y69988095D01*
X79023809Y70273809D01*
X78976190Y70369047D01*
X78928571Y70416666D01*
X78833333Y70464285D01*
X78642857Y70464285D01*
X78547619Y70416666D01*
X77309523Y69797619D02*
X77309523Y70797619D01*
X77309523Y70321428D02*
X76738095Y70321428D01*
X76738095Y69797619D02*
X76738095Y70797619D01*
X76404761Y70797619D02*
X76071428Y69797619D01*
X75738095Y70797619D01*
X74880952Y69797619D02*
X75452380Y69797619D01*
X75166666Y69797619D02*
X75166666Y70797619D01*
X75261904Y70654761D01*
X75357142Y70559523D01*
X75452380Y70511904D01*
X73738095Y70702380D02*
X73690476Y70750000D01*
X73595238Y70797619D01*
X73357142Y70797619D01*
X73261904Y70750000D01*
X73214285Y70702380D01*
X73166666Y70607142D01*
X73166666Y70511904D01*
X73214285Y70369047D01*
X73785714Y69797619D01*
X73166666Y69797619D01*
X72214285Y69797619D02*
X72785714Y69797619D01*
X72500000Y69797619D02*
X72500000Y70797619D01*
X72595238Y70654761D01*
X72690476Y70559523D01*
X72785714Y70511904D01*
X71261904Y69797619D02*
X71833333Y69797619D01*
X71547619Y69797619D02*
X71547619Y70797619D01*
X71642857Y70654761D01*
X71738095Y70559523D01*
X71833333Y70511904D01*
X70642857Y70797619D02*
X70547619Y70797619D01*
X70452380Y70750000D01*
X70404761Y70702380D01*
X70357142Y70607142D01*
X70309523Y70416666D01*
X70309523Y70178571D01*
X70357142Y69988095D01*
X70404761Y69892857D01*
X70452380Y69845238D01*
X70547619Y69797619D01*
X70642857Y69797619D01*
X70738095Y69845238D01*
X70785714Y69892857D01*
X70833333Y69988095D01*
X70880952Y70178571D01*
X70880952Y70416666D01*
X70833333Y70607142D01*
X70785714Y70702380D01*
X70738095Y70750000D01*
X70642857Y70797619D01*
X69357142Y69797619D02*
X69928571Y69797619D01*
X69642857Y69797619D02*
X69642857Y70797619D01*
X69738095Y70654761D01*
X69833333Y70559523D01*
X69928571Y70511904D01*
X68785714Y70369047D02*
X68880952Y70416666D01*
X68928571Y70464285D01*
X68976190Y70559523D01*
X68976190Y70607142D01*
X68928571Y70702380D01*
X68880952Y70750000D01*
X68785714Y70797619D01*
X68595238Y70797619D01*
X68500000Y70750000D01*
X68452380Y70702380D01*
X68404761Y70607142D01*
X68404761Y70559523D01*
X68452380Y70464285D01*
X68500000Y70416666D01*
X68595238Y70369047D01*
X68785714Y70369047D01*
X68880952Y70321428D01*
X68928571Y70273809D01*
X68976190Y70178571D01*
X68976190Y69988095D01*
X68928571Y69892857D01*
X68880952Y69845238D01*
X68785714Y69797619D01*
X68595238Y69797619D01*
X68500000Y69845238D01*
X68452380Y69892857D01*
X68404761Y69988095D01*
X68404761Y70178571D01*
X68452380Y70273809D01*
X68500000Y70321428D01*
X68595238Y70369047D01*
X133547619Y70321428D02*
X133214285Y70321428D01*
X133071428Y69797619D02*
X133547619Y69797619D01*
X133547619Y70797619D01*
X133071428Y70797619D01*
X132690476Y69845238D02*
X132547619Y69797619D01*
X132309523Y69797619D01*
X132214285Y69845238D01*
X132166666Y69892857D01*
X132119047Y69988095D01*
X132119047Y70083333D01*
X132166666Y70178571D01*
X132214285Y70226190D01*
X132309523Y70273809D01*
X132500000Y70321428D01*
X132595238Y70369047D01*
X132642857Y70416666D01*
X132690476Y70511904D01*
X132690476Y70607142D01*
X132642857Y70702380D01*
X132595238Y70750000D01*
X132500000Y70797619D01*
X132261904Y70797619D01*
X132119047Y70750000D01*
X131690476Y69797619D02*
X131690476Y70797619D01*
X131309523Y70797619D01*
X131214285Y70750000D01*
X131166666Y70702380D01*
X131119047Y70607142D01*
X131119047Y70464285D01*
X131166666Y70369047D01*
X131214285Y70321428D01*
X131309523Y70273809D01*
X131690476Y70273809D01*
X129738095Y70797619D02*
X129547619Y70797619D01*
X129452380Y70750000D01*
X129357142Y70654761D01*
X129309523Y70464285D01*
X129309523Y70130952D01*
X129357142Y69940476D01*
X129452380Y69845238D01*
X129547619Y69797619D01*
X129738095Y69797619D01*
X129833333Y69845238D01*
X129928571Y69940476D01*
X129976190Y70130952D01*
X129976190Y70464285D01*
X129928571Y70654761D01*
X129833333Y70750000D01*
X129738095Y70797619D01*
X128880952Y70464285D02*
X128880952Y69464285D01*
X128880952Y70416666D02*
X128785714Y70464285D01*
X128595238Y70464285D01*
X128500000Y70416666D01*
X128452380Y70369047D01*
X128404761Y70273809D01*
X128404761Y69988095D01*
X128452380Y69892857D01*
X128500000Y69845238D01*
X128595238Y69797619D01*
X128785714Y69797619D01*
X128880952Y69845238D01*
X128119047Y70464285D02*
X127738095Y70464285D01*
X127976190Y70797619D02*
X127976190Y69940476D01*
X127928571Y69845238D01*
X127833333Y69797619D01*
X127738095Y69797619D01*
X127261904Y69797619D02*
X127357142Y69845238D01*
X127404761Y69892857D01*
X127452380Y69988095D01*
X127452380Y70273809D01*
X127404761Y70369047D01*
X127357142Y70416666D01*
X127261904Y70464285D01*
X127119047Y70464285D01*
X127023809Y70416666D01*
X126976190Y70369047D01*
X126928571Y70273809D01*
X126928571Y69988095D01*
X126976190Y69892857D01*
X127023809Y69845238D01*
X127119047Y69797619D01*
X127261904Y69797619D01*
X126500000Y69797619D02*
X126500000Y70797619D01*
X126119047Y70797619D01*
X126023809Y70750000D01*
X125976190Y70702380D01*
X125928571Y70607142D01*
X125928571Y70464285D01*
X125976190Y70369047D01*
X126023809Y70321428D01*
X126119047Y70273809D01*
X126500000Y70273809D01*
X125500000Y69797619D02*
X125500000Y70464285D01*
X125500000Y70273809D02*
X125452380Y70369047D01*
X125404761Y70416666D01*
X125309523Y70464285D01*
X125214285Y70464285D01*
X124738095Y69797619D02*
X124833333Y69845238D01*
X124880952Y69892857D01*
X124928571Y69988095D01*
X124928571Y70273809D01*
X124880952Y70369047D01*
X124833333Y70416666D01*
X124738095Y70464285D01*
X124595238Y70464285D01*
X124500000Y70416666D01*
X124452380Y70369047D01*
X124404761Y70273809D01*
X124404761Y69988095D01*
X124452380Y69892857D01*
X124500000Y69845238D01*
X124595238Y69797619D01*
X124738095Y69797619D01*
X123547619Y70464285D02*
X123547619Y69654761D01*
X123595238Y69559523D01*
X123642857Y69511904D01*
X123738095Y69464285D01*
X123880952Y69464285D01*
X123976190Y69511904D01*
X123547619Y69845238D02*
X123642857Y69797619D01*
X123833333Y69797619D01*
X123928571Y69845238D01*
X123976190Y69892857D01*
X124023809Y69988095D01*
X124023809Y70273809D01*
X123976190Y70369047D01*
X123928571Y70416666D01*
X123833333Y70464285D01*
X123642857Y70464285D01*
X123547619Y70416666D01*
X122309523Y69797619D02*
X122309523Y70797619D01*
X122309523Y70321428D02*
X121738095Y70321428D01*
X121738095Y69797619D02*
X121738095Y70797619D01*
X121404761Y70797619D02*
X121071428Y69797619D01*
X120738095Y70797619D01*
X119880952Y69797619D02*
X120452380Y69797619D01*
X120166666Y69797619D02*
X120166666Y70797619D01*
X120261904Y70654761D01*
X120357142Y70559523D01*
X120452380Y70511904D01*
X118738095Y70702380D02*
X118690476Y70750000D01*
X118595238Y70797619D01*
X118357142Y70797619D01*
X118261904Y70750000D01*
X118214285Y70702380D01*
X118166666Y70607142D01*
X118166666Y70511904D01*
X118214285Y70369047D01*
X118785714Y69797619D01*
X118166666Y69797619D01*
X117214285Y69797619D02*
X117785714Y69797619D01*
X117500000Y69797619D02*
X117500000Y70797619D01*
X117595238Y70654761D01*
X117690476Y70559523D01*
X117785714Y70511904D01*
X116261904Y69797619D02*
X116833333Y69797619D01*
X116547619Y69797619D02*
X116547619Y70797619D01*
X116642857Y70654761D01*
X116738095Y70559523D01*
X116833333Y70511904D01*
X115642857Y70797619D02*
X115547619Y70797619D01*
X115452380Y70750000D01*
X115404761Y70702380D01*
X115357142Y70607142D01*
X115309523Y70416666D01*
X115309523Y70178571D01*
X115357142Y69988095D01*
X115404761Y69892857D01*
X115452380Y69845238D01*
X115547619Y69797619D01*
X115642857Y69797619D01*
X115738095Y69845238D01*
X115785714Y69892857D01*
X115833333Y69988095D01*
X115880952Y70178571D01*
X115880952Y70416666D01*
X115833333Y70607142D01*
X115785714Y70702380D01*
X115738095Y70750000D01*
X115642857Y70797619D01*
X114357142Y69797619D02*
X114928571Y69797619D01*
X114642857Y69797619D02*
X114642857Y70797619D01*
X114738095Y70654761D01*
X114833333Y70559523D01*
X114928571Y70511904D01*
X113785714Y70369047D02*
X113880952Y70416666D01*
X113928571Y70464285D01*
X113976190Y70559523D01*
X113976190Y70607142D01*
X113928571Y70702380D01*
X113880952Y70750000D01*
X113785714Y70797619D01*
X113595238Y70797619D01*
X113500000Y70750000D01*
X113452380Y70702380D01*
X113404761Y70607142D01*
X113404761Y70559523D01*
X113452380Y70464285D01*
X113500000Y70416666D01*
X113595238Y70369047D01*
X113785714Y70369047D01*
X113880952Y70321428D01*
X113928571Y70273809D01*
X113976190Y70178571D01*
X113976190Y69988095D01*
X113928571Y69892857D01*
X113880952Y69845238D01*
X113785714Y69797619D01*
X113595238Y69797619D01*
X113500000Y69845238D01*
X113452380Y69892857D01*
X113404761Y69988095D01*
X113404761Y70178571D01*
X113452380Y70273809D01*
X113500000Y70321428D01*
X113595238Y70369047D01*
D11*
%TO.C,FID_B1*%
X2500000Y15000000D03*
%TD*%
%TO.C,FID_B4*%
X137500000Y15000000D03*
%TD*%
%TO.C,FID_B5*%
X137500000Y74500000D03*
%TD*%
%TO.C,FID_B6*%
X125000000Y87500000D03*
%TD*%
%TO.C,FID_B3*%
X125000000Y2500000D03*
%TD*%
%TO.C,FID_B2*%
X15000000Y2500000D03*
%TD*%
D12*
%TO.C,FID6*%
X42000000Y8000000D03*
%TD*%
%TO.C,FID5*%
X8000000Y8000000D03*
%TD*%
%TO.C,FID4*%
X8000000Y82000000D03*
%TD*%
D13*
%TO.C,U50*%
X15000000Y61440000D03*
X15000000Y63980000D03*
X15000000Y66520000D03*
X15000000Y69060000D03*
%TD*%
D14*
%TO.C,J30*%
X42000000Y44380000D03*
X34380000Y52000000D03*
X39460000Y44380000D03*
X36920000Y52000000D03*
X36920000Y44380000D03*
X39460000Y52000000D03*
X34380000Y44380000D03*
G36*
G01*
X41200000Y52850000D02*
X42800000Y52850000D01*
G75*
G02*
X42850000Y52800000I0J-50000D01*
G01*
X42850000Y51200000D01*
G75*
G02*
X42800000Y51150000I-50000J0D01*
G01*
X41200000Y51150000D01*
G75*
G02*
X41150000Y51200000I0J50000D01*
G01*
X41150000Y52800000D01*
G75*
G02*
X41200000Y52850000I50000J0D01*
G01*
G37*
%TD*%
D15*
%TO.C,J40*%
X26270000Y17420000D03*
X26270000Y19960000D03*
X26270000Y22500000D03*
X26270000Y25040000D03*
X26270000Y27580000D03*
X23730000Y17420000D03*
X23730000Y19960000D03*
X23730000Y22500000D03*
X23730000Y25040000D03*
G36*
G01*
X22830000Y26944705D02*
X22830000Y28215295D01*
G75*
G02*
X23094705Y28480000I264705J0D01*
G01*
X24365295Y28480000D01*
G75*
G02*
X24630000Y28215295I0J-264705D01*
G01*
X24630000Y26944705D01*
G75*
G02*
X24365295Y26680000I-264705J0D01*
G01*
X23094705Y26680000D01*
G75*
G02*
X22830000Y26944705I0J264705D01*
G01*
G37*
%TD*%
D16*
%TO.C,TP45*%
X7000000Y20000000D03*
%TD*%
%TO.C,TP44*%
X7000000Y27500000D03*
%TD*%
%TO.C,TP43*%
X43000000Y17500000D03*
%TD*%
%TO.C,TP42*%
X43000000Y20000000D03*
%TD*%
%TO.C,TP41*%
X43000000Y27500000D03*
%TD*%
D17*
%TO.C,K10*%
X25000000Y86050000D03*
D18*
X21500000Y83550000D03*
D19*
X27500000Y80850000D03*
X22500000Y80850000D03*
D18*
X28500000Y83550000D03*
%TD*%
D12*
%TO.C,FID6*%
X87000000Y8000000D03*
%TD*%
%TO.C,FID5*%
X53000000Y8000000D03*
%TD*%
%TO.C,FID4*%
X53000000Y82000000D03*
%TD*%
D13*
%TO.C,U50*%
X60000000Y61440000D03*
X60000000Y63980000D03*
X60000000Y66520000D03*
X60000000Y69060000D03*
%TD*%
D14*
%TO.C,J30*%
X87000000Y44380000D03*
X79380000Y52000000D03*
X84460000Y44380000D03*
X81920000Y52000000D03*
X81920000Y44380000D03*
X84460000Y52000000D03*
X79380000Y44380000D03*
G36*
G01*
X86200000Y52850000D02*
X87800000Y52850000D01*
G75*
G02*
X87850000Y52800000I0J-50000D01*
G01*
X87850000Y51200000D01*
G75*
G02*
X87800000Y51150000I-50000J0D01*
G01*
X86200000Y51150000D01*
G75*
G02*
X86150000Y51200000I0J50000D01*
G01*
X86150000Y52800000D01*
G75*
G02*
X86200000Y52850000I50000J0D01*
G01*
G37*
%TD*%
D15*
%TO.C,J40*%
X71270000Y17420000D03*
X71270000Y19960000D03*
X71270000Y22500000D03*
X71270000Y25040000D03*
X71270000Y27580000D03*
X68730000Y17420000D03*
X68730000Y19960000D03*
X68730000Y22500000D03*
X68730000Y25040000D03*
G36*
G01*
X67830000Y26944705D02*
X67830000Y28215295D01*
G75*
G02*
X68094705Y28480000I264705J0D01*
G01*
X69365295Y28480000D01*
G75*
G02*
X69630000Y28215295I0J-264705D01*
G01*
X69630000Y26944705D01*
G75*
G02*
X69365295Y26680000I-264705J0D01*
G01*
X68094705Y26680000D01*
G75*
G02*
X67830000Y26944705I0J264705D01*
G01*
G37*
%TD*%
D16*
%TO.C,TP45*%
X52000000Y20000000D03*
%TD*%
%TO.C,TP44*%
X52000000Y27500000D03*
%TD*%
%TO.C,TP43*%
X88000000Y17500000D03*
%TD*%
%TO.C,TP42*%
X88000000Y20000000D03*
%TD*%
%TO.C,TP41*%
X88000000Y27500000D03*
%TD*%
D17*
%TO.C,K10*%
X70000000Y86050000D03*
D18*
X66500000Y83550000D03*
D19*
X72500000Y80850000D03*
X67500000Y80850000D03*
D18*
X73500000Y83550000D03*
%TD*%
D12*
%TO.C,FID6*%
X132000000Y8000000D03*
%TD*%
%TO.C,FID5*%
X98000000Y8000000D03*
%TD*%
%TO.C,FID4*%
X98000000Y82000000D03*
%TD*%
D13*
%TO.C,U50*%
X105000000Y61440000D03*
X105000000Y63980000D03*
X105000000Y66520000D03*
X105000000Y69060000D03*
%TD*%
D14*
%TO.C,J30*%
X132000000Y44380000D03*
X124380000Y52000000D03*
X129460000Y44380000D03*
X126920000Y52000000D03*
X126920000Y44380000D03*
X129460000Y52000000D03*
X124380000Y44380000D03*
G36*
G01*
X131200000Y52850000D02*
X132800000Y52850000D01*
G75*
G02*
X132850000Y52800000I0J-50000D01*
G01*
X132850000Y51200000D01*
G75*
G02*
X132800000Y51150000I-50000J0D01*
G01*
X131200000Y51150000D01*
G75*
G02*
X131150000Y51200000I0J50000D01*
G01*
X131150000Y52800000D01*
G75*
G02*
X131200000Y52850000I50000J0D01*
G01*
G37*
%TD*%
D15*
%TO.C,J40*%
X116270000Y17420000D03*
X116270000Y19960000D03*
X116270000Y22500000D03*
X116270000Y25040000D03*
X116270000Y27580000D03*
X113730000Y17420000D03*
X113730000Y19960000D03*
X113730000Y22500000D03*
X113730000Y25040000D03*
G36*
G01*
X112830000Y26944705D02*
X112830000Y28215295D01*
G75*
G02*
X113094705Y28480000I264705J0D01*
G01*
X114365295Y28480000D01*
G75*
G02*
X114630000Y28215295I0J-264705D01*
G01*
X114630000Y26944705D01*
G75*
G02*
X114365295Y26680000I-264705J0D01*
G01*
X113094705Y26680000D01*
G75*
G02*
X112830000Y26944705I0J264705D01*
G01*
G37*
%TD*%
D16*
%TO.C,TP45*%
X97000000Y20000000D03*
%TD*%
%TO.C,TP44*%
X97000000Y27500000D03*
%TD*%
%TO.C,TP43*%
X133000000Y17500000D03*
%TD*%
%TO.C,TP42*%
X133000000Y20000000D03*
%TD*%
%TO.C,TP41*%
X133000000Y27500000D03*
%TD*%
D17*
%TO.C,K10*%
X115000000Y86050000D03*
D18*
X111500000Y83550000D03*
D19*
X117500000Y80850000D03*
X112500000Y80850000D03*
D18*
X118500000Y83550000D03*
%TD*%
M02*
