%TF.GenerationSoftware,KiCad,Pcbnew,(5.1.10)-1*%
%TF.CreationDate,2021-10-19T12:00:10+02:00*%
%TF.ProjectId,EspOptoProg Panel,4573704f-7074-46f5-9072-6f672050616e,rev?*%
%TF.SameCoordinates,PXffb3b4c0PY4c4b40*%
%TF.FileFunction,Profile,NP*%
%FSLAX46Y46*%
G04 Gerber Fmt 4.6, Leading zero omitted, Abs format (unit mm)*
G04 Created by KiCad (PCBNEW (5.1.10)-1) date 2021-10-19 12:00:10*
%MOMM*%
%LPD*%
G01*
G04 APERTURE LIST*
%TA.AperFunction,Profile*%
%ADD10C,0.100000*%
%TD*%
G04 APERTURE END LIST*
D10*
X95000000Y0D02*
X95000000Y90000000D01*
X90000000Y0D02*
X90000000Y90000000D01*
X50000000Y0D02*
X50000000Y90000000D01*
X45000000Y0D02*
X45000000Y90000000D01*
X5000000Y0D02*
X5000000Y90000000D01*
X140000000Y5000000D02*
X0Y5000000D01*
X135000000Y90000000D02*
X135000000Y0D01*
X0Y85000000D02*
X140000000Y85000000D01*
X140000000Y90000000D02*
X140000000Y0D01*
X0Y90000000D02*
X140000000Y90000000D01*
X0Y0D02*
X0Y90000000D01*
X0Y0D02*
X140000000Y0D01*
X3500000Y82000000D02*
G75*
G02*
X8000000Y86500000I4500000J0D01*
G01*
X5000000Y82000000D02*
G75*
G02*
X3500000Y82000000I-750000J0D01*
G01*
X8000000Y86500000D02*
G75*
G02*
X8000000Y85000000I0J-750000D01*
G01*
X42000000Y86500000D02*
G75*
G02*
X46500000Y82000000I0J-4500000D01*
G01*
X42000000Y85000000D02*
G75*
G02*
X42000000Y86500000I0J750000D01*
G01*
X46500000Y82000000D02*
G75*
G02*
X45000000Y82000000I-750000J0D01*
G01*
X8000000Y3500000D02*
G75*
G02*
X3500000Y8000000I0J4500000D01*
G01*
X3500000Y8000000D02*
G75*
G02*
X5000000Y8000000I750000J0D01*
G01*
X8000000Y5000000D02*
G75*
G02*
X8000000Y3500000I0J-750000D01*
G01*
X46500000Y8000000D02*
G75*
G02*
X42000000Y3500000I-4500000J0D01*
G01*
X42000000Y3500000D02*
G75*
G02*
X42000000Y5000000I0J750000D01*
G01*
X45000000Y8000000D02*
G75*
G02*
X46500000Y8000000I750000J0D01*
G01*
X45000000Y8000000D02*
G75*
G02*
X42000000Y5000000I-3000000J0D01*
G01*
X8000000Y5000000D02*
G75*
G02*
X5000000Y8000000I0J3000000D01*
G01*
X5000000Y82000000D02*
G75*
G02*
X8000000Y85000000I3000000J0D01*
G01*
X42000000Y85000000D02*
G75*
G02*
X45000000Y82000000I0J-3000000D01*
G01*
X16500000Y65750000D02*
G75*
G02*
X16500000Y64750000I0J-500000D01*
G01*
X13500000Y64750000D02*
G75*
G02*
X13500000Y65750000I0J500000D01*
G01*
X16500000Y64750000D02*
X13500000Y64750000D01*
X13500000Y65750000D02*
X16500000Y65750000D01*
X48500000Y82000000D02*
G75*
G02*
X53000000Y86500000I4500000J0D01*
G01*
X50000000Y82000000D02*
G75*
G02*
X48500000Y82000000I-750000J0D01*
G01*
X53000000Y86500000D02*
G75*
G02*
X53000000Y85000000I0J-750000D01*
G01*
X87000000Y86500000D02*
G75*
G02*
X91500000Y82000000I0J-4500000D01*
G01*
X87000000Y85000000D02*
G75*
G02*
X87000000Y86500000I0J750000D01*
G01*
X91500000Y82000000D02*
G75*
G02*
X90000000Y82000000I-750000J0D01*
G01*
X53000000Y3500000D02*
G75*
G02*
X48500000Y8000000I0J4500000D01*
G01*
X48500000Y8000000D02*
G75*
G02*
X50000000Y8000000I750000J0D01*
G01*
X53000000Y5000000D02*
G75*
G02*
X53000000Y3500000I0J-750000D01*
G01*
X91500000Y8000000D02*
G75*
G02*
X87000000Y3500000I-4500000J0D01*
G01*
X87000000Y3500000D02*
G75*
G02*
X87000000Y5000000I0J750000D01*
G01*
X90000000Y8000000D02*
G75*
G02*
X91500000Y8000000I750000J0D01*
G01*
X90000000Y8000000D02*
G75*
G02*
X87000000Y5000000I-3000000J0D01*
G01*
X53000000Y5000000D02*
G75*
G02*
X50000000Y8000000I0J3000000D01*
G01*
X50000000Y82000000D02*
G75*
G02*
X53000000Y85000000I3000000J0D01*
G01*
X87000000Y85000000D02*
G75*
G02*
X90000000Y82000000I0J-3000000D01*
G01*
X61500000Y65750000D02*
G75*
G02*
X61500000Y64750000I0J-500000D01*
G01*
X58500000Y64750000D02*
G75*
G02*
X58500000Y65750000I0J500000D01*
G01*
X61500000Y64750000D02*
X58500000Y64750000D01*
X58500000Y65750000D02*
X61500000Y65750000D01*
X93500000Y82000000D02*
G75*
G02*
X98000000Y86500000I4500000J0D01*
G01*
X95000000Y82000000D02*
G75*
G02*
X93500000Y82000000I-750000J0D01*
G01*
X98000000Y86500000D02*
G75*
G02*
X98000000Y85000000I0J-750000D01*
G01*
X132000000Y86500000D02*
G75*
G02*
X136500000Y82000000I0J-4500000D01*
G01*
X132000000Y85000000D02*
G75*
G02*
X132000000Y86500000I0J750000D01*
G01*
X136500000Y82000000D02*
G75*
G02*
X135000000Y82000000I-750000J0D01*
G01*
X98000000Y3500000D02*
G75*
G02*
X93500000Y8000000I0J4500000D01*
G01*
X93500000Y8000000D02*
G75*
G02*
X95000000Y8000000I750000J0D01*
G01*
X98000000Y5000000D02*
G75*
G02*
X98000000Y3500000I0J-750000D01*
G01*
X136500000Y8000000D02*
G75*
G02*
X132000000Y3500000I-4500000J0D01*
G01*
X132000000Y3500000D02*
G75*
G02*
X132000000Y5000000I0J750000D01*
G01*
X135000000Y8000000D02*
G75*
G02*
X136500000Y8000000I750000J0D01*
G01*
X135000000Y8000000D02*
G75*
G02*
X132000000Y5000000I-3000000J0D01*
G01*
X98000000Y5000000D02*
G75*
G02*
X95000000Y8000000I0J3000000D01*
G01*
X95000000Y82000000D02*
G75*
G02*
X98000000Y85000000I3000000J0D01*
G01*
X132000000Y85000000D02*
G75*
G02*
X135000000Y82000000I0J-3000000D01*
G01*
X106500000Y65750000D02*
G75*
G02*
X106500000Y64750000I0J-500000D01*
G01*
X103500000Y64750000D02*
G75*
G02*
X103500000Y65750000I0J500000D01*
G01*
X106500000Y64750000D02*
X103500000Y64750000D01*
X103500000Y65750000D02*
X106500000Y65750000D01*
M02*
