%TF.GenerationSoftware,KiCad,Pcbnew,(5.1.10)-1*%
%TF.CreationDate,2022-01-11T09:06:52+01:00*%
%TF.ProjectId,EspOptoProg,4573704f-7074-46f5-9072-6f672e6b6963,rev?*%
%TF.SameCoordinates,Original*%
%TF.FileFunction,Copper,L2,Bot*%
%TF.FilePolarity,Positive*%
%FSLAX46Y46*%
G04 Gerber Fmt 4.6, Leading zero omitted, Abs format (unit mm)*
G04 Created by KiCad (PCBNEW (5.1.10)-1) date 2022-01-11 09:06:52*
%MOMM*%
%LPD*%
G01*
G04 APERTURE LIST*
%TA.AperFunction,ComponentPad*%
%ADD10O,2.000000X1.200000*%
%TD*%
%TA.AperFunction,SMDPad,CuDef*%
%ADD11C,1.000000*%
%TD*%
%TA.AperFunction,ComponentPad*%
%ADD12O,1.600000X1.600000*%
%TD*%
%TA.AperFunction,ComponentPad*%
%ADD13R,1.600000X1.600000*%
%TD*%
%TA.AperFunction,ComponentPad*%
%ADD14C,1.700000*%
%TD*%
%TA.AperFunction,ComponentPad*%
%ADD15O,2.200000X1.700000*%
%TD*%
%TA.AperFunction,ComponentPad*%
%ADD16O,0.900000X1.550000*%
%TD*%
%TA.AperFunction,ComponentPad*%
%ADD17O,1.300000X1.000000*%
%TD*%
%TA.AperFunction,ViaPad*%
%ADD18C,0.800000*%
%TD*%
%TA.AperFunction,ViaPad*%
%ADD19C,0.600000*%
%TD*%
%TA.AperFunction,Conductor*%
%ADD20C,0.400000*%
%TD*%
%TA.AperFunction,Conductor*%
%ADD21C,0.200000*%
%TD*%
%TA.AperFunction,Conductor*%
%ADD22C,0.249000*%
%TD*%
%TA.AperFunction,Conductor*%
%ADD23C,0.100000*%
%TD*%
G04 APERTURE END LIST*
D10*
%TO.P,U50,4*%
%TO.N,VCC*%
X9250000Y56440000D03*
%TO.P,U50,3*%
%TO.N,GND*%
X9250000Y58980000D03*
%TO.P,U50,2*%
%TO.N,VUSB*%
X9250000Y61520000D03*
%TO.P,U50,1*%
%TO.N,GND2*%
X9250000Y64060000D03*
%TD*%
D11*
%TO.P,FID6,0*%
%TO.N,N/C*%
X37000000Y3000000D03*
%TD*%
%TO.P,FID5,0*%
%TO.N,N/C*%
X3000000Y3000000D03*
%TD*%
%TO.P,FID4,0*%
%TO.N,N/C*%
X3000000Y77000000D03*
%TD*%
D12*
%TO.P,J30,8*%
%TO.N,Net-(D72-Pad2)*%
X37000000Y39380000D03*
%TO.P,J30,4*%
%TO.N,Net-(J30-Pad4)*%
X29380000Y47000000D03*
%TO.P,J30,7*%
%TO.N,Net-(D71-Pad2)*%
X34460000Y39380000D03*
%TO.P,J30,3*%
%TO.N,Net-(J30-Pad3)*%
X31920000Y47000000D03*
%TO.P,J30,6*%
%TO.N,Net-(J30-Pad6)*%
X31920000Y39380000D03*
%TO.P,J30,2*%
%TO.N,VCC*%
X34460000Y47000000D03*
%TO.P,J30,5*%
%TO.N,Net-(J30-Pad5)*%
X29380000Y39380000D03*
D13*
%TO.P,J30,1*%
%TO.N,3V3*%
X37000000Y47000000D03*
%TD*%
D14*
%TO.P,J40,10*%
%TO.N,Net-(J40-Pad10)*%
X21270000Y12420000D03*
%TO.P,J40,8*%
%TO.N,Net-(J40-Pad8)*%
X21270000Y14960000D03*
%TO.P,J40,6*%
%TO.N,Net-(J40-Pad6)*%
X21270000Y17500000D03*
%TO.P,J40,4*%
%TO.N,Net-(J40-Pad4)*%
X21270000Y20040000D03*
%TO.P,J40,2*%
%TO.N,GND*%
X21270000Y22580000D03*
%TO.P,J40,9*%
%TO.N,N/C*%
X18730000Y12420000D03*
%TO.P,J40,7*%
%TO.N,Net-(D71-Pad2)*%
X18730000Y14960000D03*
%TO.P,J40,5*%
%TO.N,Net-(J30-Pad4)*%
X18730000Y17500000D03*
%TO.P,J40,3*%
%TO.N,Net-(J30-Pad3)*%
X18730000Y20040000D03*
%TO.P,J40,1*%
%TO.N,Net-(D72-Pad2)*%
%TA.AperFunction,ComponentPad*%
G36*
G01*
X17880000Y21980000D02*
X17880000Y23180000D01*
G75*
G02*
X18130000Y23430000I250000J0D01*
G01*
X19330000Y23430000D01*
G75*
G02*
X19580000Y23180000I0J-250000D01*
G01*
X19580000Y21980000D01*
G75*
G02*
X19330000Y21730000I-250000J0D01*
G01*
X18130000Y21730000D01*
G75*
G02*
X17880000Y21980000I0J250000D01*
G01*
G37*
%TD.AperFunction*%
%TD*%
D15*
%TO.P,TP45,1*%
%TO.N,VCC*%
X2000000Y15000000D03*
%TD*%
%TO.P,TP44,1*%
%TO.N,3V3*%
X2000000Y22500000D03*
%TD*%
%TO.P,TP43,1*%
%TO.N,Net-(J40-Pad10)*%
X38000000Y12500000D03*
%TD*%
%TO.P,TP42,1*%
%TO.N,Net-(J40-Pad8)*%
X38000000Y15000000D03*
%TD*%
%TO.P,TP41,1*%
%TO.N,GND*%
X38000000Y22500000D03*
%TD*%
D16*
%TO.P,K10,6*%
%TO.N,GND2*%
X16500000Y78550000D03*
D17*
X22500000Y75850000D03*
X17500000Y75850000D03*
D16*
X23500000Y78550000D03*
%TD*%
D18*
%TO.N,GND*%
X17750000Y49000000D03*
X11250000Y8250000D03*
D19*
X6750000Y22750000D03*
X5500000Y39000000D03*
X26250000Y36750000D03*
X16250000Y21750000D03*
X16250000Y16250000D03*
X9000000Y13500000D03*
X34000000Y13750000D03*
D18*
X23750000Y51000000D03*
D19*
X16500000Y13500000D03*
X25000000Y11750000D03*
D18*
%TO.N,3V3*%
X15500000Y47250000D03*
X15000000Y20000000D03*
%TO.N,VUSB*%
X22250000Y71750000D03*
D19*
%TO.N,Net-(C30-Pad1)*%
X22000000Y32500000D03*
X18000000Y37500000D03*
D18*
%TO.N,VCC*%
X12250000Y36500000D03*
X14750000Y36250000D03*
X22000000Y50000000D03*
D19*
%TO.N,Net-(D30-Pad1)*%
X18750000Y32500000D03*
X24750000Y17500000D03*
%TO.N,Net-(D31-Pad1)*%
X19750000Y32500000D03*
X25250000Y21750000D03*
%TO.N,Net-(J30-Pad4)*%
X3250000Y12000000D03*
X31000000Y26750000D03*
%TO.N,Net-(J30-Pad3)*%
X3250000Y8500000D03*
X9250000Y26750000D03*
%TO.N,Net-(J30-Pad6)*%
X25250000Y32250000D03*
%TO.N,Net-(J30-Pad5)*%
X25750000Y31500000D03*
%TD*%
D20*
%TO.N,GND*%
X11250000Y8250000D02*
X27250000Y8250000D01*
X38000000Y19000000D02*
X38000000Y22500000D01*
X27250000Y8250000D02*
X38000000Y19000000D01*
X17750000Y49000000D02*
X22500000Y49000000D01*
X23750000Y50250000D02*
X23750000Y51000000D01*
X22500000Y49000000D02*
X23750000Y50250000D01*
%TO.N,3V3*%
X15500000Y47250000D02*
X19250000Y47250000D01*
X19250000Y47250000D02*
X20000000Y48000000D01*
X20000000Y48000000D02*
X26750000Y48000000D01*
X26750000Y48000000D02*
X27750000Y49000000D01*
X27750000Y49000000D02*
X36500000Y49000000D01*
X37000000Y48500000D02*
X37000000Y47000000D01*
X36500000Y49000000D02*
X37000000Y48500000D01*
X2000000Y22500000D02*
X2000000Y44500000D01*
X4750000Y47250000D02*
X15500000Y47250000D01*
X2000000Y44500000D02*
X4750000Y47250000D01*
X15000000Y20000000D02*
X9250000Y20000000D01*
X9250000Y20000000D02*
X2500000Y13250000D01*
X750000Y13250000D02*
X450010Y13549990D01*
X2500000Y13250000D02*
X750000Y13250000D01*
X450010Y13549990D02*
X450010Y18450010D01*
X2000000Y20000000D02*
X2000000Y22500000D01*
X450010Y18450010D02*
X2000000Y20000000D01*
%TO.N,VUSB*%
X22250000Y71750000D02*
X16750000Y71750000D01*
X16750000Y71750000D02*
X12250000Y67250000D01*
X12250000Y67250000D02*
X12250000Y62750000D01*
X11020000Y61520000D02*
X10000000Y61520000D01*
X12250000Y62750000D02*
X11020000Y61520000D01*
D21*
%TO.N,Net-(C30-Pad1)*%
X22000000Y33500000D02*
X22000000Y32500000D01*
X18000000Y37500000D02*
X22000000Y33500000D01*
D20*
%TO.N,VCC*%
X14500000Y36500000D02*
X14750000Y36250000D01*
X12250000Y36500000D02*
X14500000Y36500000D01*
X2000000Y15000000D02*
X2000000Y18250000D01*
X2000000Y18250000D02*
X4000000Y20250000D01*
X4000000Y20250000D02*
X4000000Y34250000D01*
X6250000Y36500000D02*
X12250000Y36500000D01*
X4000000Y34250000D02*
X6250000Y36500000D01*
X19250000Y50000000D02*
X12810000Y56440000D01*
X22000000Y50000000D02*
X19250000Y50000000D01*
X11310000Y56440000D02*
X9250000Y56440000D01*
X12810000Y56440000D02*
X11310000Y56440000D01*
X11310000Y56440000D02*
X10000000Y56440000D01*
D21*
%TO.N,Net-(D30-Pad1)*%
X24750000Y20250000D02*
X24750000Y26500000D01*
X24750000Y26500000D02*
X18750000Y32500000D01*
X24750000Y20250000D02*
X24750000Y17500000D01*
%TO.N,Net-(D31-Pad1)*%
X25000000Y27250000D02*
X19750000Y32500000D01*
X25250000Y27000000D02*
X25000000Y27250000D01*
X25250000Y21750000D02*
X25250000Y27000000D01*
%TO.N,Net-(D71-Pad2)*%
X18730000Y14960000D02*
X19940000Y13750000D01*
X19940000Y13750000D02*
X30750000Y13750000D01*
X34460000Y17460000D02*
X34460000Y39380000D01*
X30750000Y13750000D02*
X34460000Y17460000D01*
%TO.N,Net-(D72-Pad2)*%
X18730000Y27770000D02*
X18730000Y22580000D01*
X16500000Y37750000D02*
X16500000Y30000000D01*
X16500000Y30000000D02*
X18730000Y27770000D01*
X19250000Y40500000D02*
X16500000Y37750000D01*
X33250000Y40500000D02*
X19250000Y40500000D01*
X34000000Y41250000D02*
X33250000Y40500000D01*
X36250000Y41250000D02*
X34000000Y41250000D01*
X37000000Y40500000D02*
X36250000Y41250000D01*
X37000000Y39380000D02*
X37000000Y40500000D01*
%TO.N,Net-(J30-Pad4)*%
X8750000Y17500000D02*
X18730000Y17500000D01*
X3250000Y12000000D02*
X8750000Y17500000D01*
X18730000Y17500000D02*
X19980000Y16250000D01*
X19980000Y16250000D02*
X23750000Y16250000D01*
X23750000Y16250000D02*
X29000000Y16250000D01*
X31000000Y18250000D02*
X31000000Y26750000D01*
X29000000Y16250000D02*
X31000000Y18250000D01*
%TO.N,Net-(J30-Pad3)*%
X3250000Y8500000D02*
X2250000Y9500000D01*
X2250000Y9500000D02*
X2250000Y11740002D01*
X17435001Y18745001D02*
X18730000Y20040000D01*
X9254999Y18745001D02*
X17435001Y18745001D01*
X2250000Y11740002D02*
X9254999Y18745001D01*
X31920000Y45670000D02*
X31920000Y47000000D01*
X21750000Y45250000D02*
X31500000Y45250000D01*
X16000000Y35750000D02*
X16000000Y39500000D01*
X15250000Y35000000D02*
X16000000Y35750000D01*
X16000000Y39500000D02*
X21750000Y45250000D01*
X13750000Y35000000D02*
X15250000Y35000000D01*
X31500000Y45250000D02*
X31920000Y45670000D01*
X9250000Y30500000D02*
X13750000Y35000000D01*
X9250000Y26750000D02*
X9250000Y30500000D01*
%TO.N,Net-(J30-Pad6)*%
X31920000Y38920000D02*
X31920000Y39380000D01*
X25250000Y32250000D02*
X31920000Y38920000D01*
%TO.N,Net-(J30-Pad5)*%
X25750000Y31500000D02*
X24750000Y31500000D01*
X24750000Y31500000D02*
X24500000Y31750000D01*
X24500000Y31750000D02*
X24500000Y32750000D01*
X29380000Y37630000D02*
X29380000Y39380000D01*
X24500000Y32750000D02*
X29380000Y37630000D01*
%TD*%
D22*
%TO.N,GND2*%
X15471513Y79207028D02*
X15426500Y79000000D01*
X15426500Y78675000D01*
X16375000Y78675000D01*
X16375000Y78695000D01*
X16625000Y78695000D01*
X16625000Y78675000D01*
X17573500Y78675000D01*
X17573500Y79000000D01*
X17528487Y79207028D01*
X17476497Y79326500D01*
X22523503Y79326500D01*
X22471513Y79207028D01*
X22426500Y79000000D01*
X22426500Y78675000D01*
X23375000Y78675000D01*
X23375000Y78695000D01*
X23625000Y78695000D01*
X23625000Y78675000D01*
X24573500Y78675000D01*
X24573500Y79000000D01*
X24528487Y79207028D01*
X24476497Y79326500D01*
X36967056Y79326500D01*
X37451259Y79279023D01*
X37885328Y79147970D01*
X38285679Y78935101D01*
X38637059Y78648522D01*
X38926077Y78299160D01*
X39141737Y77900304D01*
X39275818Y77467160D01*
X39326500Y76984949D01*
X39326500Y63874500D01*
X13073500Y63874500D01*
X13073500Y66908897D01*
X17091104Y70926500D01*
X21640204Y70926500D01*
X21765191Y70842986D01*
X21951456Y70765833D01*
X22149194Y70726500D01*
X22350806Y70726500D01*
X22548544Y70765833D01*
X22734809Y70842986D01*
X22902443Y70954996D01*
X23045004Y71097557D01*
X23157014Y71265191D01*
X23234167Y71451456D01*
X23273500Y71649194D01*
X23273500Y71850806D01*
X23234167Y72048544D01*
X23157014Y72234809D01*
X23045004Y72402443D01*
X22902443Y72545004D01*
X22734809Y72657014D01*
X22548544Y72734167D01*
X22350806Y72773500D01*
X22149194Y72773500D01*
X21951456Y72734167D01*
X21765191Y72657014D01*
X21640204Y72573500D01*
X16790447Y72573500D01*
X16749999Y72577484D01*
X16709552Y72573500D01*
X16709550Y72573500D01*
X16588566Y72561584D01*
X16433336Y72514496D01*
X16290275Y72438028D01*
X16164880Y72335120D01*
X16139088Y72303692D01*
X11696314Y67860917D01*
X11664880Y67835120D01*
X11561972Y67709724D01*
X11485504Y67566663D01*
X11438416Y67411433D01*
X11426500Y67290450D01*
X11422516Y67250000D01*
X11426500Y67209552D01*
X11426501Y63874500D01*
X10749453Y63874500D01*
X10710282Y63935000D01*
X9375000Y63935000D01*
X9375000Y63915000D01*
X9125000Y63915000D01*
X9125000Y63935000D01*
X7789718Y63935000D01*
X7750547Y63874500D01*
X673500Y63874500D01*
X673500Y64373857D01*
X7667441Y64373857D01*
X7789718Y64185000D01*
X9125000Y64185000D01*
X9125000Y65283500D01*
X9375000Y65283500D01*
X9375000Y64185000D01*
X10710282Y64185000D01*
X10832559Y64373857D01*
X10828203Y64412730D01*
X10736750Y64635808D01*
X10603534Y64836758D01*
X10433674Y65007858D01*
X10233698Y65142532D01*
X10011291Y65235605D01*
X9775000Y65283500D01*
X9375000Y65283500D01*
X9125000Y65283500D01*
X8725000Y65283500D01*
X8488709Y65235605D01*
X8266302Y65142532D01*
X8066326Y65007858D01*
X7896466Y64836758D01*
X7763250Y64635808D01*
X7671797Y64412730D01*
X7667441Y64373857D01*
X673500Y64373857D01*
X673500Y75551876D01*
X16266776Y75551876D01*
X16338907Y75356351D01*
X16454641Y75168582D01*
X16604783Y75006999D01*
X16783564Y74877812D01*
X16984112Y74785986D01*
X17198721Y74735049D01*
X17375000Y74880986D01*
X17375000Y75725000D01*
X17625000Y75725000D01*
X17625000Y74880986D01*
X17801279Y74735049D01*
X18015888Y74785986D01*
X18216436Y74877812D01*
X18395217Y75006999D01*
X18545359Y75168582D01*
X18661093Y75356351D01*
X18733224Y75551876D01*
X21266776Y75551876D01*
X21338907Y75356351D01*
X21454641Y75168582D01*
X21604783Y75006999D01*
X21783564Y74877812D01*
X21984112Y74785986D01*
X22198721Y74735049D01*
X22375000Y74880986D01*
X22375000Y75725000D01*
X22625000Y75725000D01*
X22625000Y74880986D01*
X22801279Y74735049D01*
X23015888Y74785986D01*
X23216436Y74877812D01*
X23395217Y75006999D01*
X23545359Y75168582D01*
X23661093Y75356351D01*
X23733224Y75551876D01*
X23609517Y75725000D01*
X22625000Y75725000D01*
X22375000Y75725000D01*
X21390483Y75725000D01*
X21266776Y75551876D01*
X18733224Y75551876D01*
X18609517Y75725000D01*
X17625000Y75725000D01*
X17375000Y75725000D01*
X16390483Y75725000D01*
X16266776Y75551876D01*
X673500Y75551876D01*
X673500Y76967056D01*
X690004Y77135376D01*
X1625500Y77135376D01*
X1625500Y76864624D01*
X1678321Y76599073D01*
X1781934Y76348930D01*
X1932356Y76123807D01*
X2123807Y75932356D01*
X2348930Y75781934D01*
X2599073Y75678321D01*
X2864624Y75625500D01*
X3135376Y75625500D01*
X3400927Y75678321D01*
X3651070Y75781934D01*
X3876193Y75932356D01*
X4067644Y76123807D01*
X4083892Y76148124D01*
X16266776Y76148124D01*
X16390483Y75975000D01*
X17375000Y75975000D01*
X17375000Y76819014D01*
X17625000Y76819014D01*
X17625000Y75975000D01*
X18609517Y75975000D01*
X18733224Y76148124D01*
X21266776Y76148124D01*
X21390483Y75975000D01*
X22375000Y75975000D01*
X22375000Y76819014D01*
X22625000Y76819014D01*
X22625000Y75975000D01*
X23609517Y75975000D01*
X23733224Y76148124D01*
X23661093Y76343649D01*
X23545359Y76531418D01*
X23395217Y76693001D01*
X23216436Y76822188D01*
X23015888Y76914014D01*
X22801279Y76964951D01*
X22625000Y76819014D01*
X22375000Y76819014D01*
X22198721Y76964951D01*
X21984112Y76914014D01*
X21783564Y76822188D01*
X21604783Y76693001D01*
X21454641Y76531418D01*
X21338907Y76343649D01*
X21266776Y76148124D01*
X18733224Y76148124D01*
X18661093Y76343649D01*
X18545359Y76531418D01*
X18395217Y76693001D01*
X18216436Y76822188D01*
X18015888Y76914014D01*
X17801279Y76964951D01*
X17625000Y76819014D01*
X17375000Y76819014D01*
X17198721Y76964951D01*
X16984112Y76914014D01*
X16783564Y76822188D01*
X16604783Y76693001D01*
X16454641Y76531418D01*
X16338907Y76343649D01*
X16266776Y76148124D01*
X4083892Y76148124D01*
X4218066Y76348930D01*
X4321679Y76599073D01*
X4374500Y76864624D01*
X4374500Y77135376D01*
X4321679Y77400927D01*
X4218066Y77651070D01*
X4067644Y77876193D01*
X3876193Y78067644D01*
X3651070Y78218066D01*
X3400927Y78321679D01*
X3135376Y78374500D01*
X2864624Y78374500D01*
X2599073Y78321679D01*
X2348930Y78218066D01*
X2123807Y78067644D01*
X1932356Y77876193D01*
X1781934Y77651070D01*
X1678321Y77400927D01*
X1625500Y77135376D01*
X690004Y77135376D01*
X720977Y77451259D01*
X852030Y77885328D01*
X1064899Y78285679D01*
X1178526Y78425000D01*
X15426500Y78425000D01*
X15426500Y78100000D01*
X15471513Y77892972D01*
X15556051Y77698704D01*
X15676864Y77524661D01*
X15829310Y77377532D01*
X16007530Y77262971D01*
X16209749Y77191483D01*
X16375000Y77315929D01*
X16375000Y78425000D01*
X16625000Y78425000D01*
X16625000Y77315929D01*
X16790251Y77191483D01*
X16992470Y77262971D01*
X17170690Y77377532D01*
X17323136Y77524661D01*
X17443949Y77698704D01*
X17528487Y77892972D01*
X17573500Y78100000D01*
X17573500Y78425000D01*
X22426500Y78425000D01*
X22426500Y78100000D01*
X22471513Y77892972D01*
X22556051Y77698704D01*
X22676864Y77524661D01*
X22829310Y77377532D01*
X23007530Y77262971D01*
X23209749Y77191483D01*
X23375000Y77315929D01*
X23375000Y78425000D01*
X23625000Y78425000D01*
X23625000Y77315929D01*
X23790251Y77191483D01*
X23992470Y77262971D01*
X24170690Y77377532D01*
X24323136Y77524661D01*
X24443949Y77698704D01*
X24528487Y77892972D01*
X24573500Y78100000D01*
X24573500Y78425000D01*
X23625000Y78425000D01*
X23375000Y78425000D01*
X22426500Y78425000D01*
X17573500Y78425000D01*
X16625000Y78425000D01*
X16375000Y78425000D01*
X15426500Y78425000D01*
X1178526Y78425000D01*
X1351478Y78637059D01*
X1700840Y78926077D01*
X2099696Y79141737D01*
X2532840Y79275818D01*
X3015051Y79326500D01*
X15523503Y79326500D01*
X15471513Y79207028D01*
%TA.AperFunction,Conductor*%
D23*
G36*
X15471513Y79207028D02*
G01*
X15426500Y79000000D01*
X15426500Y78675000D01*
X16375000Y78675000D01*
X16375000Y78695000D01*
X16625000Y78695000D01*
X16625000Y78675000D01*
X17573500Y78675000D01*
X17573500Y79000000D01*
X17528487Y79207028D01*
X17476497Y79326500D01*
X22523503Y79326500D01*
X22471513Y79207028D01*
X22426500Y79000000D01*
X22426500Y78675000D01*
X23375000Y78675000D01*
X23375000Y78695000D01*
X23625000Y78695000D01*
X23625000Y78675000D01*
X24573500Y78675000D01*
X24573500Y79000000D01*
X24528487Y79207028D01*
X24476497Y79326500D01*
X36967056Y79326500D01*
X37451259Y79279023D01*
X37885328Y79147970D01*
X38285679Y78935101D01*
X38637059Y78648522D01*
X38926077Y78299160D01*
X39141737Y77900304D01*
X39275818Y77467160D01*
X39326500Y76984949D01*
X39326500Y63874500D01*
X13073500Y63874500D01*
X13073500Y66908897D01*
X17091104Y70926500D01*
X21640204Y70926500D01*
X21765191Y70842986D01*
X21951456Y70765833D01*
X22149194Y70726500D01*
X22350806Y70726500D01*
X22548544Y70765833D01*
X22734809Y70842986D01*
X22902443Y70954996D01*
X23045004Y71097557D01*
X23157014Y71265191D01*
X23234167Y71451456D01*
X23273500Y71649194D01*
X23273500Y71850806D01*
X23234167Y72048544D01*
X23157014Y72234809D01*
X23045004Y72402443D01*
X22902443Y72545004D01*
X22734809Y72657014D01*
X22548544Y72734167D01*
X22350806Y72773500D01*
X22149194Y72773500D01*
X21951456Y72734167D01*
X21765191Y72657014D01*
X21640204Y72573500D01*
X16790447Y72573500D01*
X16749999Y72577484D01*
X16709552Y72573500D01*
X16709550Y72573500D01*
X16588566Y72561584D01*
X16433336Y72514496D01*
X16290275Y72438028D01*
X16164880Y72335120D01*
X16139088Y72303692D01*
X11696314Y67860917D01*
X11664880Y67835120D01*
X11561972Y67709724D01*
X11485504Y67566663D01*
X11438416Y67411433D01*
X11426500Y67290450D01*
X11422516Y67250000D01*
X11426500Y67209552D01*
X11426501Y63874500D01*
X10749453Y63874500D01*
X10710282Y63935000D01*
X9375000Y63935000D01*
X9375000Y63915000D01*
X9125000Y63915000D01*
X9125000Y63935000D01*
X7789718Y63935000D01*
X7750547Y63874500D01*
X673500Y63874500D01*
X673500Y64373857D01*
X7667441Y64373857D01*
X7789718Y64185000D01*
X9125000Y64185000D01*
X9125000Y65283500D01*
X9375000Y65283500D01*
X9375000Y64185000D01*
X10710282Y64185000D01*
X10832559Y64373857D01*
X10828203Y64412730D01*
X10736750Y64635808D01*
X10603534Y64836758D01*
X10433674Y65007858D01*
X10233698Y65142532D01*
X10011291Y65235605D01*
X9775000Y65283500D01*
X9375000Y65283500D01*
X9125000Y65283500D01*
X8725000Y65283500D01*
X8488709Y65235605D01*
X8266302Y65142532D01*
X8066326Y65007858D01*
X7896466Y64836758D01*
X7763250Y64635808D01*
X7671797Y64412730D01*
X7667441Y64373857D01*
X673500Y64373857D01*
X673500Y75551876D01*
X16266776Y75551876D01*
X16338907Y75356351D01*
X16454641Y75168582D01*
X16604783Y75006999D01*
X16783564Y74877812D01*
X16984112Y74785986D01*
X17198721Y74735049D01*
X17375000Y74880986D01*
X17375000Y75725000D01*
X17625000Y75725000D01*
X17625000Y74880986D01*
X17801279Y74735049D01*
X18015888Y74785986D01*
X18216436Y74877812D01*
X18395217Y75006999D01*
X18545359Y75168582D01*
X18661093Y75356351D01*
X18733224Y75551876D01*
X21266776Y75551876D01*
X21338907Y75356351D01*
X21454641Y75168582D01*
X21604783Y75006999D01*
X21783564Y74877812D01*
X21984112Y74785986D01*
X22198721Y74735049D01*
X22375000Y74880986D01*
X22375000Y75725000D01*
X22625000Y75725000D01*
X22625000Y74880986D01*
X22801279Y74735049D01*
X23015888Y74785986D01*
X23216436Y74877812D01*
X23395217Y75006999D01*
X23545359Y75168582D01*
X23661093Y75356351D01*
X23733224Y75551876D01*
X23609517Y75725000D01*
X22625000Y75725000D01*
X22375000Y75725000D01*
X21390483Y75725000D01*
X21266776Y75551876D01*
X18733224Y75551876D01*
X18609517Y75725000D01*
X17625000Y75725000D01*
X17375000Y75725000D01*
X16390483Y75725000D01*
X16266776Y75551876D01*
X673500Y75551876D01*
X673500Y76967056D01*
X690004Y77135376D01*
X1625500Y77135376D01*
X1625500Y76864624D01*
X1678321Y76599073D01*
X1781934Y76348930D01*
X1932356Y76123807D01*
X2123807Y75932356D01*
X2348930Y75781934D01*
X2599073Y75678321D01*
X2864624Y75625500D01*
X3135376Y75625500D01*
X3400927Y75678321D01*
X3651070Y75781934D01*
X3876193Y75932356D01*
X4067644Y76123807D01*
X4083892Y76148124D01*
X16266776Y76148124D01*
X16390483Y75975000D01*
X17375000Y75975000D01*
X17375000Y76819014D01*
X17625000Y76819014D01*
X17625000Y75975000D01*
X18609517Y75975000D01*
X18733224Y76148124D01*
X21266776Y76148124D01*
X21390483Y75975000D01*
X22375000Y75975000D01*
X22375000Y76819014D01*
X22625000Y76819014D01*
X22625000Y75975000D01*
X23609517Y75975000D01*
X23733224Y76148124D01*
X23661093Y76343649D01*
X23545359Y76531418D01*
X23395217Y76693001D01*
X23216436Y76822188D01*
X23015888Y76914014D01*
X22801279Y76964951D01*
X22625000Y76819014D01*
X22375000Y76819014D01*
X22198721Y76964951D01*
X21984112Y76914014D01*
X21783564Y76822188D01*
X21604783Y76693001D01*
X21454641Y76531418D01*
X21338907Y76343649D01*
X21266776Y76148124D01*
X18733224Y76148124D01*
X18661093Y76343649D01*
X18545359Y76531418D01*
X18395217Y76693001D01*
X18216436Y76822188D01*
X18015888Y76914014D01*
X17801279Y76964951D01*
X17625000Y76819014D01*
X17375000Y76819014D01*
X17198721Y76964951D01*
X16984112Y76914014D01*
X16783564Y76822188D01*
X16604783Y76693001D01*
X16454641Y76531418D01*
X16338907Y76343649D01*
X16266776Y76148124D01*
X4083892Y76148124D01*
X4218066Y76348930D01*
X4321679Y76599073D01*
X4374500Y76864624D01*
X4374500Y77135376D01*
X4321679Y77400927D01*
X4218066Y77651070D01*
X4067644Y77876193D01*
X3876193Y78067644D01*
X3651070Y78218066D01*
X3400927Y78321679D01*
X3135376Y78374500D01*
X2864624Y78374500D01*
X2599073Y78321679D01*
X2348930Y78218066D01*
X2123807Y78067644D01*
X1932356Y77876193D01*
X1781934Y77651070D01*
X1678321Y77400927D01*
X1625500Y77135376D01*
X690004Y77135376D01*
X720977Y77451259D01*
X852030Y77885328D01*
X1064899Y78285679D01*
X1178526Y78425000D01*
X15426500Y78425000D01*
X15426500Y78100000D01*
X15471513Y77892972D01*
X15556051Y77698704D01*
X15676864Y77524661D01*
X15829310Y77377532D01*
X16007530Y77262971D01*
X16209749Y77191483D01*
X16375000Y77315929D01*
X16375000Y78425000D01*
X16625000Y78425000D01*
X16625000Y77315929D01*
X16790251Y77191483D01*
X16992470Y77262971D01*
X17170690Y77377532D01*
X17323136Y77524661D01*
X17443949Y77698704D01*
X17528487Y77892972D01*
X17573500Y78100000D01*
X17573500Y78425000D01*
X22426500Y78425000D01*
X22426500Y78100000D01*
X22471513Y77892972D01*
X22556051Y77698704D01*
X22676864Y77524661D01*
X22829310Y77377532D01*
X23007530Y77262971D01*
X23209749Y77191483D01*
X23375000Y77315929D01*
X23375000Y78425000D01*
X23625000Y78425000D01*
X23625000Y77315929D01*
X23790251Y77191483D01*
X23992470Y77262971D01*
X24170690Y77377532D01*
X24323136Y77524661D01*
X24443949Y77698704D01*
X24528487Y77892972D01*
X24573500Y78100000D01*
X24573500Y78425000D01*
X23625000Y78425000D01*
X23375000Y78425000D01*
X22426500Y78425000D01*
X17573500Y78425000D01*
X16625000Y78425000D01*
X16375000Y78425000D01*
X15426500Y78425000D01*
X1178526Y78425000D01*
X1351478Y78637059D01*
X1700840Y78926077D01*
X2099696Y79141737D01*
X2532840Y79275818D01*
X3015051Y79326500D01*
X15523503Y79326500D01*
X15471513Y79207028D01*
G37*
%TD.AperFunction*%
%TD*%
D22*
%TO.N,GND*%
X7644204Y56200152D02*
X7714165Y55969522D01*
X7827775Y55756971D01*
X7980669Y55570669D01*
X8166971Y55417775D01*
X8379522Y55304165D01*
X8610152Y55234204D01*
X8789903Y55216500D01*
X9710097Y55216500D01*
X9889848Y55234204D01*
X10120478Y55304165D01*
X10333029Y55417775D01*
X10519331Y55570669D01*
X10556944Y55616500D01*
X12468897Y55616500D01*
X18639092Y49446303D01*
X18664880Y49414880D01*
X18790275Y49311972D01*
X18933336Y49235504D01*
X19088566Y49188416D01*
X19209550Y49176500D01*
X19209552Y49176500D01*
X19249999Y49172516D01*
X19290447Y49176500D01*
X21390204Y49176500D01*
X21515191Y49092986D01*
X21701456Y49015833D01*
X21899194Y48976500D01*
X22100806Y48976500D01*
X22298544Y49015833D01*
X22484809Y49092986D01*
X22652443Y49204996D01*
X22795004Y49347557D01*
X22907014Y49515191D01*
X22984167Y49701456D01*
X23023500Y49899194D01*
X23023500Y50100806D01*
X22984167Y50298544D01*
X22907014Y50484809D01*
X22795004Y50652443D01*
X22652443Y50795004D01*
X22484809Y50907014D01*
X22298544Y50984167D01*
X22100806Y51023500D01*
X21899194Y51023500D01*
X21701456Y50984167D01*
X21515191Y50907014D01*
X21390204Y50823500D01*
X19591105Y50823500D01*
X14039103Y56375500D01*
X39326500Y56375500D01*
X39326501Y23505904D01*
X39172566Y23655724D01*
X38929369Y23813501D01*
X38660064Y23920801D01*
X38375000Y23973500D01*
X38125000Y23973500D01*
X38125000Y22625000D01*
X38145000Y22625000D01*
X38145000Y22375000D01*
X38125000Y22375000D01*
X38125000Y21026500D01*
X38375000Y21026500D01*
X38660064Y21079199D01*
X38929369Y21186499D01*
X39172566Y21344276D01*
X39326501Y21494096D01*
X39326501Y16010971D01*
X39296963Y16046963D01*
X39072593Y16231098D01*
X38816612Y16367923D01*
X38538856Y16452179D01*
X38322382Y16473500D01*
X37677618Y16473500D01*
X37461144Y16452179D01*
X37183388Y16367923D01*
X36927407Y16231098D01*
X36703037Y16046963D01*
X36518902Y15822593D01*
X36382077Y15566612D01*
X36297821Y15288856D01*
X36269371Y15000000D01*
X36297821Y14711144D01*
X36382077Y14433388D01*
X36518902Y14177407D01*
X36703037Y13953037D01*
X36927407Y13768902D01*
X36962770Y13750000D01*
X36927407Y13731098D01*
X36703037Y13546963D01*
X36518902Y13322593D01*
X36382077Y13066612D01*
X36297821Y12788856D01*
X36269371Y12500000D01*
X36297821Y12211144D01*
X36382077Y11933388D01*
X36518902Y11677407D01*
X36703037Y11453037D01*
X36927407Y11268902D01*
X37183388Y11132077D01*
X37461144Y11047821D01*
X37677618Y11026500D01*
X38322382Y11026500D01*
X38538856Y11047821D01*
X38816612Y11132077D01*
X39072593Y11268902D01*
X39296963Y11453037D01*
X39326501Y11489029D01*
X39326501Y3032954D01*
X39279023Y2548740D01*
X39147969Y2114668D01*
X38935100Y1714320D01*
X38648525Y1362944D01*
X38299159Y1073923D01*
X37900304Y858263D01*
X37467155Y724181D01*
X36984949Y673500D01*
X3032943Y673500D01*
X2548740Y720977D01*
X2114668Y852031D01*
X1714320Y1064900D01*
X1362944Y1351475D01*
X1073923Y1700841D01*
X858263Y2099696D01*
X724181Y2532845D01*
X673500Y3015051D01*
X673500Y3135376D01*
X1625500Y3135376D01*
X1625500Y2864624D01*
X1678321Y2599073D01*
X1781934Y2348930D01*
X1932356Y2123807D01*
X2123807Y1932356D01*
X2348930Y1781934D01*
X2599073Y1678321D01*
X2864624Y1625500D01*
X3135376Y1625500D01*
X3400927Y1678321D01*
X3651070Y1781934D01*
X3876193Y1932356D01*
X4067644Y2123807D01*
X4218066Y2348930D01*
X4321679Y2599073D01*
X4374500Y2864624D01*
X4374500Y3135376D01*
X35625500Y3135376D01*
X35625500Y2864624D01*
X35678321Y2599073D01*
X35781934Y2348930D01*
X35932356Y2123807D01*
X36123807Y1932356D01*
X36348930Y1781934D01*
X36599073Y1678321D01*
X36864624Y1625500D01*
X37135376Y1625500D01*
X37400927Y1678321D01*
X37651070Y1781934D01*
X37876193Y1932356D01*
X38067644Y2123807D01*
X38218066Y2348930D01*
X38321679Y2599073D01*
X38374500Y2864624D01*
X38374500Y3135376D01*
X38321679Y3400927D01*
X38218066Y3651070D01*
X38067644Y3876193D01*
X37876193Y4067644D01*
X37651070Y4218066D01*
X37400927Y4321679D01*
X37135376Y4374500D01*
X36864624Y4374500D01*
X36599073Y4321679D01*
X36348930Y4218066D01*
X36123807Y4067644D01*
X35932356Y3876193D01*
X35781934Y3651070D01*
X35678321Y3400927D01*
X35625500Y3135376D01*
X4374500Y3135376D01*
X4321679Y3400927D01*
X4218066Y3651070D01*
X4067644Y3876193D01*
X3876193Y4067644D01*
X3651070Y4218066D01*
X3400927Y4321679D01*
X3135376Y4374500D01*
X2864624Y4374500D01*
X2599073Y4321679D01*
X2348930Y4218066D01*
X2123807Y4067644D01*
X1932356Y3876193D01*
X1781934Y3651070D01*
X1678321Y3400927D01*
X1625500Y3135376D01*
X673500Y3135376D01*
X673500Y12430051D01*
X709550Y12426500D01*
X709552Y12426500D01*
X750000Y12422516D01*
X790447Y12426500D01*
X1913315Y12426500D01*
X1763537Y12276722D01*
X1735934Y12254069D01*
X1713281Y12226466D01*
X1645522Y12143901D01*
X1578340Y12018212D01*
X1536970Y11881832D01*
X1523000Y11740002D01*
X1526501Y11704459D01*
X1526500Y9535534D01*
X1523000Y9500000D01*
X1526500Y9464466D01*
X1526500Y9464465D01*
X1536969Y9358170D01*
X1578340Y9221790D01*
X1645522Y9096101D01*
X1735933Y8985934D01*
X1763537Y8963280D01*
X2328667Y8398150D01*
X2361990Y8230625D01*
X2431605Y8062559D01*
X2532671Y7911303D01*
X2661303Y7782671D01*
X2812559Y7681605D01*
X2980625Y7611990D01*
X3159043Y7576500D01*
X3340957Y7576500D01*
X3519375Y7611990D01*
X3687441Y7681605D01*
X3838697Y7782671D01*
X3967329Y7911303D01*
X4068395Y8062559D01*
X4138010Y8230625D01*
X4173500Y8409043D01*
X4173500Y8590957D01*
X4138010Y8769375D01*
X4068395Y8937441D01*
X3967329Y9088697D01*
X3838697Y9217329D01*
X3687441Y9318395D01*
X3519375Y9388010D01*
X3351850Y9421333D01*
X2973500Y9799683D01*
X2973500Y11114941D01*
X2980625Y11111990D01*
X3159043Y11076500D01*
X3340957Y11076500D01*
X3519375Y11111990D01*
X3687441Y11181605D01*
X3838697Y11282671D01*
X3967329Y11411303D01*
X4068395Y11562559D01*
X4138010Y11730625D01*
X4171333Y11898150D01*
X9049683Y16776500D01*
X17441264Y16776500D01*
X17585458Y16560698D01*
X17790698Y16355458D01*
X17978459Y16230000D01*
X17790698Y16104542D01*
X17585458Y15899302D01*
X17424201Y15657964D01*
X17313125Y15389804D01*
X17256500Y15105127D01*
X17256500Y14814873D01*
X17313125Y14530196D01*
X17424201Y14262036D01*
X17585458Y14020698D01*
X17790698Y13815458D01*
X17978459Y13690000D01*
X17790698Y13564542D01*
X17585458Y13359302D01*
X17424201Y13117964D01*
X17313125Y12849804D01*
X17256500Y12565127D01*
X17256500Y12274873D01*
X17313125Y11990196D01*
X17424201Y11722036D01*
X17585458Y11480698D01*
X17790698Y11275458D01*
X18032036Y11114201D01*
X18300196Y11003125D01*
X18584873Y10946500D01*
X18875127Y10946500D01*
X19159804Y11003125D01*
X19427964Y11114201D01*
X19669302Y11275458D01*
X19874542Y11480698D01*
X20000000Y11668459D01*
X20125458Y11480698D01*
X20330698Y11275458D01*
X20572036Y11114201D01*
X20840196Y11003125D01*
X21124873Y10946500D01*
X21415127Y10946500D01*
X21699804Y11003125D01*
X21967964Y11114201D01*
X22209302Y11275458D01*
X22414542Y11480698D01*
X22575799Y11722036D01*
X22686875Y11990196D01*
X22743500Y12274873D01*
X22743500Y12565127D01*
X22686875Y12849804D01*
X22613685Y13026500D01*
X30714466Y13026500D01*
X30750000Y13023000D01*
X30785534Y13026500D01*
X30785536Y13026500D01*
X30891831Y13036969D01*
X31028211Y13078340D01*
X31153900Y13145522D01*
X31264067Y13235933D01*
X31286725Y13263542D01*
X34946468Y16923284D01*
X34974066Y16945933D01*
X34996716Y16973532D01*
X34996719Y16973535D01*
X35064478Y17056100D01*
X35131660Y17181789D01*
X35146474Y17230625D01*
X35173031Y17318169D01*
X35183500Y17424464D01*
X35183500Y17424465D01*
X35187000Y17459999D01*
X35183500Y17495533D01*
X35183500Y22146864D01*
X36319442Y22146864D01*
X36340829Y22051601D01*
X36455384Y21785301D01*
X36619690Y21546467D01*
X36827434Y21344276D01*
X37070631Y21186499D01*
X37339936Y21079199D01*
X37625000Y21026500D01*
X37875000Y21026500D01*
X37875000Y22375000D01*
X36438318Y22375000D01*
X36319442Y22146864D01*
X35183500Y22146864D01*
X35183500Y22853136D01*
X36319442Y22853136D01*
X36438318Y22625000D01*
X37875000Y22625000D01*
X37875000Y23973500D01*
X37625000Y23973500D01*
X37339936Y23920801D01*
X37070631Y23813501D01*
X36827434Y23655724D01*
X36619690Y23453533D01*
X36455384Y23214699D01*
X36340829Y22948399D01*
X36319442Y22853136D01*
X35183500Y22853136D01*
X35183500Y38151398D01*
X35367429Y38274295D01*
X35565705Y38472571D01*
X35721490Y38705720D01*
X35730000Y38726265D01*
X35738510Y38705720D01*
X35894295Y38472571D01*
X36092571Y38274295D01*
X36325720Y38118510D01*
X36584780Y38011204D01*
X36859797Y37956500D01*
X37140203Y37956500D01*
X37415220Y38011204D01*
X37674280Y38118510D01*
X37907429Y38274295D01*
X38105705Y38472571D01*
X38261490Y38705720D01*
X38368796Y38964780D01*
X38423500Y39239797D01*
X38423500Y39520203D01*
X38368796Y39795220D01*
X38261490Y40054280D01*
X38105705Y40287429D01*
X37907429Y40485705D01*
X37715797Y40613749D01*
X37713031Y40641831D01*
X37671660Y40778211D01*
X37604478Y40903900D01*
X37514067Y41014067D01*
X37486464Y41036720D01*
X36786724Y41736459D01*
X36764067Y41764067D01*
X36653900Y41854478D01*
X36528211Y41921660D01*
X36391831Y41963031D01*
X36285536Y41973500D01*
X36285534Y41973500D01*
X36250000Y41977000D01*
X36214466Y41973500D01*
X34035533Y41973500D01*
X33999999Y41977000D01*
X33964465Y41973500D01*
X33964464Y41973500D01*
X33858169Y41963031D01*
X33721789Y41921660D01*
X33596100Y41854478D01*
X33485933Y41764067D01*
X33463280Y41736464D01*
X32950317Y41223500D01*
X19285533Y41223500D01*
X19249999Y41227000D01*
X19214465Y41223500D01*
X19214464Y41223500D01*
X19108169Y41213031D01*
X18971789Y41171660D01*
X18846100Y41104478D01*
X18735933Y41014067D01*
X18713281Y40986465D01*
X16723500Y38996683D01*
X16723500Y39200317D01*
X22049683Y44526500D01*
X31464466Y44526500D01*
X31500000Y44523000D01*
X31535534Y44526500D01*
X31535536Y44526500D01*
X31641831Y44536969D01*
X31778211Y44578340D01*
X31903900Y44645522D01*
X32014067Y44735933D01*
X32036725Y44763542D01*
X32406458Y45133276D01*
X32434066Y45155933D01*
X32524478Y45266100D01*
X32591660Y45391789D01*
X32633031Y45528169D01*
X32643500Y45634464D01*
X32643500Y45634465D01*
X32647000Y45670000D01*
X32643500Y45705536D01*
X32643500Y45771398D01*
X32827429Y45894295D01*
X33025705Y46092571D01*
X33181490Y46325720D01*
X33190000Y46346265D01*
X33198510Y46325720D01*
X33354295Y46092571D01*
X33552571Y45894295D01*
X33785720Y45738510D01*
X34044780Y45631204D01*
X34319797Y45576500D01*
X34600203Y45576500D01*
X34875220Y45631204D01*
X35134280Y45738510D01*
X35367429Y45894295D01*
X35565705Y46092571D01*
X35581706Y46116518D01*
X35585522Y46077773D01*
X35621175Y45960243D01*
X35679071Y45851926D01*
X35756986Y45756986D01*
X35851926Y45679071D01*
X35960243Y45621175D01*
X36077773Y45585522D01*
X36200000Y45573484D01*
X37800000Y45573484D01*
X37922227Y45585522D01*
X38039757Y45621175D01*
X38148074Y45679071D01*
X38243014Y45756986D01*
X38320929Y45851926D01*
X38378825Y45960243D01*
X38414478Y46077773D01*
X38426516Y46200000D01*
X38426516Y47800000D01*
X38414478Y47922227D01*
X38378825Y48039757D01*
X38320929Y48148074D01*
X38243014Y48243014D01*
X38148074Y48320929D01*
X38039757Y48378825D01*
X37922227Y48414478D01*
X37823500Y48424202D01*
X37823500Y48459550D01*
X37827484Y48500000D01*
X37811584Y48661435D01*
X37780321Y48764495D01*
X37764496Y48816664D01*
X37688028Y48959725D01*
X37585120Y49085120D01*
X37553692Y49110912D01*
X37110916Y49553687D01*
X37085120Y49585120D01*
X36959725Y49688028D01*
X36816664Y49764496D01*
X36661434Y49811584D01*
X36540450Y49823500D01*
X36540447Y49823500D01*
X36500000Y49827484D01*
X36459553Y49823500D01*
X27790450Y49823500D01*
X27750000Y49827484D01*
X27588565Y49811584D01*
X27541477Y49797300D01*
X27433336Y49764496D01*
X27290275Y49688028D01*
X27164880Y49585120D01*
X27139092Y49553697D01*
X26408896Y48823500D01*
X20040447Y48823500D01*
X19999999Y48827484D01*
X19959552Y48823500D01*
X19959550Y48823500D01*
X19838566Y48811584D01*
X19683336Y48764496D01*
X19540275Y48688028D01*
X19414880Y48585120D01*
X19389094Y48553699D01*
X18908896Y48073500D01*
X16109796Y48073500D01*
X15984809Y48157014D01*
X15798544Y48234167D01*
X15600806Y48273500D01*
X15399194Y48273500D01*
X15201456Y48234167D01*
X15015191Y48157014D01*
X14890204Y48073500D01*
X4790447Y48073500D01*
X4749999Y48077484D01*
X4709552Y48073500D01*
X4709550Y48073500D01*
X4588566Y48061584D01*
X4433336Y48014496D01*
X4290275Y47938028D01*
X4164880Y47835120D01*
X4139094Y47803699D01*
X1446309Y45110912D01*
X1414881Y45085120D01*
X1321874Y44971789D01*
X1311973Y44959725D01*
X1235505Y44816665D01*
X1188417Y44661434D01*
X1172516Y44500000D01*
X1176501Y44459543D01*
X1176500Y23864241D01*
X927407Y23731098D01*
X703037Y23546963D01*
X673500Y23510972D01*
X673500Y56375500D01*
X7626934Y56375500D01*
X7644204Y56200152D01*
%TA.AperFunction,Conductor*%
D23*
G36*
X7644204Y56200152D02*
G01*
X7714165Y55969522D01*
X7827775Y55756971D01*
X7980669Y55570669D01*
X8166971Y55417775D01*
X8379522Y55304165D01*
X8610152Y55234204D01*
X8789903Y55216500D01*
X9710097Y55216500D01*
X9889848Y55234204D01*
X10120478Y55304165D01*
X10333029Y55417775D01*
X10519331Y55570669D01*
X10556944Y55616500D01*
X12468897Y55616500D01*
X18639092Y49446303D01*
X18664880Y49414880D01*
X18790275Y49311972D01*
X18933336Y49235504D01*
X19088566Y49188416D01*
X19209550Y49176500D01*
X19209552Y49176500D01*
X19249999Y49172516D01*
X19290447Y49176500D01*
X21390204Y49176500D01*
X21515191Y49092986D01*
X21701456Y49015833D01*
X21899194Y48976500D01*
X22100806Y48976500D01*
X22298544Y49015833D01*
X22484809Y49092986D01*
X22652443Y49204996D01*
X22795004Y49347557D01*
X22907014Y49515191D01*
X22984167Y49701456D01*
X23023500Y49899194D01*
X23023500Y50100806D01*
X22984167Y50298544D01*
X22907014Y50484809D01*
X22795004Y50652443D01*
X22652443Y50795004D01*
X22484809Y50907014D01*
X22298544Y50984167D01*
X22100806Y51023500D01*
X21899194Y51023500D01*
X21701456Y50984167D01*
X21515191Y50907014D01*
X21390204Y50823500D01*
X19591105Y50823500D01*
X14039103Y56375500D01*
X39326500Y56375500D01*
X39326501Y23505904D01*
X39172566Y23655724D01*
X38929369Y23813501D01*
X38660064Y23920801D01*
X38375000Y23973500D01*
X38125000Y23973500D01*
X38125000Y22625000D01*
X38145000Y22625000D01*
X38145000Y22375000D01*
X38125000Y22375000D01*
X38125000Y21026500D01*
X38375000Y21026500D01*
X38660064Y21079199D01*
X38929369Y21186499D01*
X39172566Y21344276D01*
X39326501Y21494096D01*
X39326501Y16010971D01*
X39296963Y16046963D01*
X39072593Y16231098D01*
X38816612Y16367923D01*
X38538856Y16452179D01*
X38322382Y16473500D01*
X37677618Y16473500D01*
X37461144Y16452179D01*
X37183388Y16367923D01*
X36927407Y16231098D01*
X36703037Y16046963D01*
X36518902Y15822593D01*
X36382077Y15566612D01*
X36297821Y15288856D01*
X36269371Y15000000D01*
X36297821Y14711144D01*
X36382077Y14433388D01*
X36518902Y14177407D01*
X36703037Y13953037D01*
X36927407Y13768902D01*
X36962770Y13750000D01*
X36927407Y13731098D01*
X36703037Y13546963D01*
X36518902Y13322593D01*
X36382077Y13066612D01*
X36297821Y12788856D01*
X36269371Y12500000D01*
X36297821Y12211144D01*
X36382077Y11933388D01*
X36518902Y11677407D01*
X36703037Y11453037D01*
X36927407Y11268902D01*
X37183388Y11132077D01*
X37461144Y11047821D01*
X37677618Y11026500D01*
X38322382Y11026500D01*
X38538856Y11047821D01*
X38816612Y11132077D01*
X39072593Y11268902D01*
X39296963Y11453037D01*
X39326501Y11489029D01*
X39326501Y3032954D01*
X39279023Y2548740D01*
X39147969Y2114668D01*
X38935100Y1714320D01*
X38648525Y1362944D01*
X38299159Y1073923D01*
X37900304Y858263D01*
X37467155Y724181D01*
X36984949Y673500D01*
X3032943Y673500D01*
X2548740Y720977D01*
X2114668Y852031D01*
X1714320Y1064900D01*
X1362944Y1351475D01*
X1073923Y1700841D01*
X858263Y2099696D01*
X724181Y2532845D01*
X673500Y3015051D01*
X673500Y3135376D01*
X1625500Y3135376D01*
X1625500Y2864624D01*
X1678321Y2599073D01*
X1781934Y2348930D01*
X1932356Y2123807D01*
X2123807Y1932356D01*
X2348930Y1781934D01*
X2599073Y1678321D01*
X2864624Y1625500D01*
X3135376Y1625500D01*
X3400927Y1678321D01*
X3651070Y1781934D01*
X3876193Y1932356D01*
X4067644Y2123807D01*
X4218066Y2348930D01*
X4321679Y2599073D01*
X4374500Y2864624D01*
X4374500Y3135376D01*
X35625500Y3135376D01*
X35625500Y2864624D01*
X35678321Y2599073D01*
X35781934Y2348930D01*
X35932356Y2123807D01*
X36123807Y1932356D01*
X36348930Y1781934D01*
X36599073Y1678321D01*
X36864624Y1625500D01*
X37135376Y1625500D01*
X37400927Y1678321D01*
X37651070Y1781934D01*
X37876193Y1932356D01*
X38067644Y2123807D01*
X38218066Y2348930D01*
X38321679Y2599073D01*
X38374500Y2864624D01*
X38374500Y3135376D01*
X38321679Y3400927D01*
X38218066Y3651070D01*
X38067644Y3876193D01*
X37876193Y4067644D01*
X37651070Y4218066D01*
X37400927Y4321679D01*
X37135376Y4374500D01*
X36864624Y4374500D01*
X36599073Y4321679D01*
X36348930Y4218066D01*
X36123807Y4067644D01*
X35932356Y3876193D01*
X35781934Y3651070D01*
X35678321Y3400927D01*
X35625500Y3135376D01*
X4374500Y3135376D01*
X4321679Y3400927D01*
X4218066Y3651070D01*
X4067644Y3876193D01*
X3876193Y4067644D01*
X3651070Y4218066D01*
X3400927Y4321679D01*
X3135376Y4374500D01*
X2864624Y4374500D01*
X2599073Y4321679D01*
X2348930Y4218066D01*
X2123807Y4067644D01*
X1932356Y3876193D01*
X1781934Y3651070D01*
X1678321Y3400927D01*
X1625500Y3135376D01*
X673500Y3135376D01*
X673500Y12430051D01*
X709550Y12426500D01*
X709552Y12426500D01*
X750000Y12422516D01*
X790447Y12426500D01*
X1913315Y12426500D01*
X1763537Y12276722D01*
X1735934Y12254069D01*
X1713281Y12226466D01*
X1645522Y12143901D01*
X1578340Y12018212D01*
X1536970Y11881832D01*
X1523000Y11740002D01*
X1526501Y11704459D01*
X1526500Y9535534D01*
X1523000Y9500000D01*
X1526500Y9464466D01*
X1526500Y9464465D01*
X1536969Y9358170D01*
X1578340Y9221790D01*
X1645522Y9096101D01*
X1735933Y8985934D01*
X1763537Y8963280D01*
X2328667Y8398150D01*
X2361990Y8230625D01*
X2431605Y8062559D01*
X2532671Y7911303D01*
X2661303Y7782671D01*
X2812559Y7681605D01*
X2980625Y7611990D01*
X3159043Y7576500D01*
X3340957Y7576500D01*
X3519375Y7611990D01*
X3687441Y7681605D01*
X3838697Y7782671D01*
X3967329Y7911303D01*
X4068395Y8062559D01*
X4138010Y8230625D01*
X4173500Y8409043D01*
X4173500Y8590957D01*
X4138010Y8769375D01*
X4068395Y8937441D01*
X3967329Y9088697D01*
X3838697Y9217329D01*
X3687441Y9318395D01*
X3519375Y9388010D01*
X3351850Y9421333D01*
X2973500Y9799683D01*
X2973500Y11114941D01*
X2980625Y11111990D01*
X3159043Y11076500D01*
X3340957Y11076500D01*
X3519375Y11111990D01*
X3687441Y11181605D01*
X3838697Y11282671D01*
X3967329Y11411303D01*
X4068395Y11562559D01*
X4138010Y11730625D01*
X4171333Y11898150D01*
X9049683Y16776500D01*
X17441264Y16776500D01*
X17585458Y16560698D01*
X17790698Y16355458D01*
X17978459Y16230000D01*
X17790698Y16104542D01*
X17585458Y15899302D01*
X17424201Y15657964D01*
X17313125Y15389804D01*
X17256500Y15105127D01*
X17256500Y14814873D01*
X17313125Y14530196D01*
X17424201Y14262036D01*
X17585458Y14020698D01*
X17790698Y13815458D01*
X17978459Y13690000D01*
X17790698Y13564542D01*
X17585458Y13359302D01*
X17424201Y13117964D01*
X17313125Y12849804D01*
X17256500Y12565127D01*
X17256500Y12274873D01*
X17313125Y11990196D01*
X17424201Y11722036D01*
X17585458Y11480698D01*
X17790698Y11275458D01*
X18032036Y11114201D01*
X18300196Y11003125D01*
X18584873Y10946500D01*
X18875127Y10946500D01*
X19159804Y11003125D01*
X19427964Y11114201D01*
X19669302Y11275458D01*
X19874542Y11480698D01*
X20000000Y11668459D01*
X20125458Y11480698D01*
X20330698Y11275458D01*
X20572036Y11114201D01*
X20840196Y11003125D01*
X21124873Y10946500D01*
X21415127Y10946500D01*
X21699804Y11003125D01*
X21967964Y11114201D01*
X22209302Y11275458D01*
X22414542Y11480698D01*
X22575799Y11722036D01*
X22686875Y11990196D01*
X22743500Y12274873D01*
X22743500Y12565127D01*
X22686875Y12849804D01*
X22613685Y13026500D01*
X30714466Y13026500D01*
X30750000Y13023000D01*
X30785534Y13026500D01*
X30785536Y13026500D01*
X30891831Y13036969D01*
X31028211Y13078340D01*
X31153900Y13145522D01*
X31264067Y13235933D01*
X31286725Y13263542D01*
X34946468Y16923284D01*
X34974066Y16945933D01*
X34996716Y16973532D01*
X34996719Y16973535D01*
X35064478Y17056100D01*
X35131660Y17181789D01*
X35146474Y17230625D01*
X35173031Y17318169D01*
X35183500Y17424464D01*
X35183500Y17424465D01*
X35187000Y17459999D01*
X35183500Y17495533D01*
X35183500Y22146864D01*
X36319442Y22146864D01*
X36340829Y22051601D01*
X36455384Y21785301D01*
X36619690Y21546467D01*
X36827434Y21344276D01*
X37070631Y21186499D01*
X37339936Y21079199D01*
X37625000Y21026500D01*
X37875000Y21026500D01*
X37875000Y22375000D01*
X36438318Y22375000D01*
X36319442Y22146864D01*
X35183500Y22146864D01*
X35183500Y22853136D01*
X36319442Y22853136D01*
X36438318Y22625000D01*
X37875000Y22625000D01*
X37875000Y23973500D01*
X37625000Y23973500D01*
X37339936Y23920801D01*
X37070631Y23813501D01*
X36827434Y23655724D01*
X36619690Y23453533D01*
X36455384Y23214699D01*
X36340829Y22948399D01*
X36319442Y22853136D01*
X35183500Y22853136D01*
X35183500Y38151398D01*
X35367429Y38274295D01*
X35565705Y38472571D01*
X35721490Y38705720D01*
X35730000Y38726265D01*
X35738510Y38705720D01*
X35894295Y38472571D01*
X36092571Y38274295D01*
X36325720Y38118510D01*
X36584780Y38011204D01*
X36859797Y37956500D01*
X37140203Y37956500D01*
X37415220Y38011204D01*
X37674280Y38118510D01*
X37907429Y38274295D01*
X38105705Y38472571D01*
X38261490Y38705720D01*
X38368796Y38964780D01*
X38423500Y39239797D01*
X38423500Y39520203D01*
X38368796Y39795220D01*
X38261490Y40054280D01*
X38105705Y40287429D01*
X37907429Y40485705D01*
X37715797Y40613749D01*
X37713031Y40641831D01*
X37671660Y40778211D01*
X37604478Y40903900D01*
X37514067Y41014067D01*
X37486464Y41036720D01*
X36786724Y41736459D01*
X36764067Y41764067D01*
X36653900Y41854478D01*
X36528211Y41921660D01*
X36391831Y41963031D01*
X36285536Y41973500D01*
X36285534Y41973500D01*
X36250000Y41977000D01*
X36214466Y41973500D01*
X34035533Y41973500D01*
X33999999Y41977000D01*
X33964465Y41973500D01*
X33964464Y41973500D01*
X33858169Y41963031D01*
X33721789Y41921660D01*
X33596100Y41854478D01*
X33485933Y41764067D01*
X33463280Y41736464D01*
X32950317Y41223500D01*
X19285533Y41223500D01*
X19249999Y41227000D01*
X19214465Y41223500D01*
X19214464Y41223500D01*
X19108169Y41213031D01*
X18971789Y41171660D01*
X18846100Y41104478D01*
X18735933Y41014067D01*
X18713281Y40986465D01*
X16723500Y38996683D01*
X16723500Y39200317D01*
X22049683Y44526500D01*
X31464466Y44526500D01*
X31500000Y44523000D01*
X31535534Y44526500D01*
X31535536Y44526500D01*
X31641831Y44536969D01*
X31778211Y44578340D01*
X31903900Y44645522D01*
X32014067Y44735933D01*
X32036725Y44763542D01*
X32406458Y45133276D01*
X32434066Y45155933D01*
X32524478Y45266100D01*
X32591660Y45391789D01*
X32633031Y45528169D01*
X32643500Y45634464D01*
X32643500Y45634465D01*
X32647000Y45670000D01*
X32643500Y45705536D01*
X32643500Y45771398D01*
X32827429Y45894295D01*
X33025705Y46092571D01*
X33181490Y46325720D01*
X33190000Y46346265D01*
X33198510Y46325720D01*
X33354295Y46092571D01*
X33552571Y45894295D01*
X33785720Y45738510D01*
X34044780Y45631204D01*
X34319797Y45576500D01*
X34600203Y45576500D01*
X34875220Y45631204D01*
X35134280Y45738510D01*
X35367429Y45894295D01*
X35565705Y46092571D01*
X35581706Y46116518D01*
X35585522Y46077773D01*
X35621175Y45960243D01*
X35679071Y45851926D01*
X35756986Y45756986D01*
X35851926Y45679071D01*
X35960243Y45621175D01*
X36077773Y45585522D01*
X36200000Y45573484D01*
X37800000Y45573484D01*
X37922227Y45585522D01*
X38039757Y45621175D01*
X38148074Y45679071D01*
X38243014Y45756986D01*
X38320929Y45851926D01*
X38378825Y45960243D01*
X38414478Y46077773D01*
X38426516Y46200000D01*
X38426516Y47800000D01*
X38414478Y47922227D01*
X38378825Y48039757D01*
X38320929Y48148074D01*
X38243014Y48243014D01*
X38148074Y48320929D01*
X38039757Y48378825D01*
X37922227Y48414478D01*
X37823500Y48424202D01*
X37823500Y48459550D01*
X37827484Y48500000D01*
X37811584Y48661435D01*
X37780321Y48764495D01*
X37764496Y48816664D01*
X37688028Y48959725D01*
X37585120Y49085120D01*
X37553692Y49110912D01*
X37110916Y49553687D01*
X37085120Y49585120D01*
X36959725Y49688028D01*
X36816664Y49764496D01*
X36661434Y49811584D01*
X36540450Y49823500D01*
X36540447Y49823500D01*
X36500000Y49827484D01*
X36459553Y49823500D01*
X27790450Y49823500D01*
X27750000Y49827484D01*
X27588565Y49811584D01*
X27541477Y49797300D01*
X27433336Y49764496D01*
X27290275Y49688028D01*
X27164880Y49585120D01*
X27139092Y49553697D01*
X26408896Y48823500D01*
X20040447Y48823500D01*
X19999999Y48827484D01*
X19959552Y48823500D01*
X19959550Y48823500D01*
X19838566Y48811584D01*
X19683336Y48764496D01*
X19540275Y48688028D01*
X19414880Y48585120D01*
X19389094Y48553699D01*
X18908896Y48073500D01*
X16109796Y48073500D01*
X15984809Y48157014D01*
X15798544Y48234167D01*
X15600806Y48273500D01*
X15399194Y48273500D01*
X15201456Y48234167D01*
X15015191Y48157014D01*
X14890204Y48073500D01*
X4790447Y48073500D01*
X4749999Y48077484D01*
X4709552Y48073500D01*
X4709550Y48073500D01*
X4588566Y48061584D01*
X4433336Y48014496D01*
X4290275Y47938028D01*
X4164880Y47835120D01*
X4139094Y47803699D01*
X1446309Y45110912D01*
X1414881Y45085120D01*
X1321874Y44971789D01*
X1311973Y44959725D01*
X1235505Y44816665D01*
X1188417Y44661434D01*
X1172516Y44500000D01*
X1176501Y44459543D01*
X1176500Y23864241D01*
X927407Y23731098D01*
X703037Y23546963D01*
X673500Y23510972D01*
X673500Y56375500D01*
X7626934Y56375500D01*
X7644204Y56200152D01*
G37*
%TD.AperFunction*%
D22*
X27956500Y39520203D02*
X27956500Y39239797D01*
X28011204Y38964780D01*
X28118510Y38705720D01*
X28274295Y38472571D01*
X28472571Y38274295D01*
X28656500Y38151398D01*
X28656500Y37929684D01*
X24013537Y33286720D01*
X23985934Y33264067D01*
X23963281Y33236464D01*
X23895522Y33153899D01*
X23828340Y33028210D01*
X23786970Y32891830D01*
X23773000Y32750000D01*
X23776501Y32714457D01*
X23776500Y31785534D01*
X23773000Y31750000D01*
X23776500Y31714466D01*
X23776500Y31714465D01*
X23786969Y31608170D01*
X23828340Y31471790D01*
X23895522Y31346101D01*
X23985933Y31235934D01*
X24013537Y31213280D01*
X24213275Y31013542D01*
X24235933Y30985933D01*
X24346100Y30895522D01*
X24471789Y30828340D01*
X24608169Y30786969D01*
X24714464Y30776500D01*
X24714465Y30776500D01*
X24749999Y30773000D01*
X24785533Y30776500D01*
X25170539Y30776500D01*
X25312559Y30681605D01*
X25480625Y30611990D01*
X25659043Y30576500D01*
X25840957Y30576500D01*
X26019375Y30611990D01*
X26187441Y30681605D01*
X26338697Y30782671D01*
X26467329Y30911303D01*
X26568395Y31062559D01*
X26638010Y31230625D01*
X26673500Y31409043D01*
X26673500Y31590957D01*
X26638010Y31769375D01*
X26568395Y31937441D01*
X26467329Y32088697D01*
X26338697Y32217329D01*
X26279839Y32256656D01*
X31979684Y37956500D01*
X32060203Y37956500D01*
X32335220Y38011204D01*
X32594280Y38118510D01*
X32827429Y38274295D01*
X33025705Y38472571D01*
X33181490Y38705720D01*
X33190000Y38726265D01*
X33198510Y38705720D01*
X33354295Y38472571D01*
X33552571Y38274295D01*
X33736501Y38151397D01*
X33736500Y17759684D01*
X30450317Y14473500D01*
X22663391Y14473500D01*
X22686875Y14530196D01*
X22743500Y14814873D01*
X22743500Y15105127D01*
X22686875Y15389804D01*
X22630253Y15526500D01*
X28964466Y15526500D01*
X29000000Y15523000D01*
X29035534Y15526500D01*
X29035536Y15526500D01*
X29141831Y15536969D01*
X29278211Y15578340D01*
X29403900Y15645522D01*
X29514067Y15735933D01*
X29536725Y15763542D01*
X31486468Y17713284D01*
X31514066Y17735933D01*
X31536716Y17763532D01*
X31536719Y17763535D01*
X31604478Y17846100D01*
X31671660Y17971789D01*
X31677271Y17990285D01*
X31713031Y18108169D01*
X31723500Y18214464D01*
X31723500Y18214465D01*
X31727000Y18249999D01*
X31723500Y18285533D01*
X31723500Y26170539D01*
X31818395Y26312559D01*
X31888010Y26480625D01*
X31923500Y26659043D01*
X31923500Y26840957D01*
X31888010Y27019375D01*
X31818395Y27187441D01*
X31717329Y27338697D01*
X31588697Y27467329D01*
X31437441Y27568395D01*
X31269375Y27638010D01*
X31090957Y27673500D01*
X30909043Y27673500D01*
X30730625Y27638010D01*
X30562559Y27568395D01*
X30411303Y27467329D01*
X30282671Y27338697D01*
X30181605Y27187441D01*
X30111990Y27019375D01*
X30076500Y26840957D01*
X30076500Y26659043D01*
X30111990Y26480625D01*
X30181605Y26312559D01*
X30276501Y26170537D01*
X30276500Y18549684D01*
X28700317Y16973500D01*
X25508888Y16973500D01*
X25568395Y17062559D01*
X25638010Y17230625D01*
X25673500Y17409043D01*
X25673500Y17590957D01*
X25638010Y17769375D01*
X25568395Y17937441D01*
X25473500Y18079461D01*
X25473500Y20852865D01*
X25519375Y20861990D01*
X25687441Y20931605D01*
X25838697Y21032671D01*
X25967329Y21161303D01*
X26068395Y21312559D01*
X26138010Y21480625D01*
X26173500Y21659043D01*
X26173500Y21840957D01*
X26138010Y22019375D01*
X26068395Y22187441D01*
X25973500Y22329461D01*
X25973500Y26964467D01*
X25977000Y27000001D01*
X25967314Y27098340D01*
X25963031Y27141831D01*
X25921660Y27278211D01*
X25854478Y27403900D01*
X25764067Y27514067D01*
X25736458Y27536725D01*
X25536724Y27736459D01*
X25536719Y27736465D01*
X21612098Y31661085D01*
X21730625Y31611990D01*
X21909043Y31576500D01*
X22090957Y31576500D01*
X22269375Y31611990D01*
X22437441Y31681605D01*
X22588697Y31782671D01*
X22717329Y31911303D01*
X22818395Y32062559D01*
X22888010Y32230625D01*
X22923500Y32409043D01*
X22923500Y32590957D01*
X22888010Y32769375D01*
X22818395Y32937441D01*
X22723500Y33079461D01*
X22723500Y33464467D01*
X22727000Y33500001D01*
X22720896Y33561973D01*
X22713031Y33641831D01*
X22671660Y33778211D01*
X22604478Y33903900D01*
X22580321Y33933335D01*
X22536719Y33986465D01*
X22536716Y33986468D01*
X22514066Y34014067D01*
X22486468Y34036716D01*
X18921333Y37601850D01*
X18888010Y37769375D01*
X18818395Y37937441D01*
X18717329Y38088697D01*
X18588697Y38217329D01*
X18437441Y38318395D01*
X18269375Y38388010D01*
X18179142Y38405959D01*
X19549684Y39776500D01*
X28007480Y39776500D01*
X27956500Y39520203D01*
%TA.AperFunction,Conductor*%
D23*
G36*
X27956500Y39520203D02*
G01*
X27956500Y39239797D01*
X28011204Y38964780D01*
X28118510Y38705720D01*
X28274295Y38472571D01*
X28472571Y38274295D01*
X28656500Y38151398D01*
X28656500Y37929684D01*
X24013537Y33286720D01*
X23985934Y33264067D01*
X23963281Y33236464D01*
X23895522Y33153899D01*
X23828340Y33028210D01*
X23786970Y32891830D01*
X23773000Y32750000D01*
X23776501Y32714457D01*
X23776500Y31785534D01*
X23773000Y31750000D01*
X23776500Y31714466D01*
X23776500Y31714465D01*
X23786969Y31608170D01*
X23828340Y31471790D01*
X23895522Y31346101D01*
X23985933Y31235934D01*
X24013537Y31213280D01*
X24213275Y31013542D01*
X24235933Y30985933D01*
X24346100Y30895522D01*
X24471789Y30828340D01*
X24608169Y30786969D01*
X24714464Y30776500D01*
X24714465Y30776500D01*
X24749999Y30773000D01*
X24785533Y30776500D01*
X25170539Y30776500D01*
X25312559Y30681605D01*
X25480625Y30611990D01*
X25659043Y30576500D01*
X25840957Y30576500D01*
X26019375Y30611990D01*
X26187441Y30681605D01*
X26338697Y30782671D01*
X26467329Y30911303D01*
X26568395Y31062559D01*
X26638010Y31230625D01*
X26673500Y31409043D01*
X26673500Y31590957D01*
X26638010Y31769375D01*
X26568395Y31937441D01*
X26467329Y32088697D01*
X26338697Y32217329D01*
X26279839Y32256656D01*
X31979684Y37956500D01*
X32060203Y37956500D01*
X32335220Y38011204D01*
X32594280Y38118510D01*
X32827429Y38274295D01*
X33025705Y38472571D01*
X33181490Y38705720D01*
X33190000Y38726265D01*
X33198510Y38705720D01*
X33354295Y38472571D01*
X33552571Y38274295D01*
X33736501Y38151397D01*
X33736500Y17759684D01*
X30450317Y14473500D01*
X22663391Y14473500D01*
X22686875Y14530196D01*
X22743500Y14814873D01*
X22743500Y15105127D01*
X22686875Y15389804D01*
X22630253Y15526500D01*
X28964466Y15526500D01*
X29000000Y15523000D01*
X29035534Y15526500D01*
X29035536Y15526500D01*
X29141831Y15536969D01*
X29278211Y15578340D01*
X29403900Y15645522D01*
X29514067Y15735933D01*
X29536725Y15763542D01*
X31486468Y17713284D01*
X31514066Y17735933D01*
X31536716Y17763532D01*
X31536719Y17763535D01*
X31604478Y17846100D01*
X31671660Y17971789D01*
X31677271Y17990285D01*
X31713031Y18108169D01*
X31723500Y18214464D01*
X31723500Y18214465D01*
X31727000Y18249999D01*
X31723500Y18285533D01*
X31723500Y26170539D01*
X31818395Y26312559D01*
X31888010Y26480625D01*
X31923500Y26659043D01*
X31923500Y26840957D01*
X31888010Y27019375D01*
X31818395Y27187441D01*
X31717329Y27338697D01*
X31588697Y27467329D01*
X31437441Y27568395D01*
X31269375Y27638010D01*
X31090957Y27673500D01*
X30909043Y27673500D01*
X30730625Y27638010D01*
X30562559Y27568395D01*
X30411303Y27467329D01*
X30282671Y27338697D01*
X30181605Y27187441D01*
X30111990Y27019375D01*
X30076500Y26840957D01*
X30076500Y26659043D01*
X30111990Y26480625D01*
X30181605Y26312559D01*
X30276501Y26170537D01*
X30276500Y18549684D01*
X28700317Y16973500D01*
X25508888Y16973500D01*
X25568395Y17062559D01*
X25638010Y17230625D01*
X25673500Y17409043D01*
X25673500Y17590957D01*
X25638010Y17769375D01*
X25568395Y17937441D01*
X25473500Y18079461D01*
X25473500Y20852865D01*
X25519375Y20861990D01*
X25687441Y20931605D01*
X25838697Y21032671D01*
X25967329Y21161303D01*
X26068395Y21312559D01*
X26138010Y21480625D01*
X26173500Y21659043D01*
X26173500Y21840957D01*
X26138010Y22019375D01*
X26068395Y22187441D01*
X25973500Y22329461D01*
X25973500Y26964467D01*
X25977000Y27000001D01*
X25967314Y27098340D01*
X25963031Y27141831D01*
X25921660Y27278211D01*
X25854478Y27403900D01*
X25764067Y27514067D01*
X25736458Y27536725D01*
X25536724Y27736459D01*
X25536719Y27736465D01*
X21612098Y31661085D01*
X21730625Y31611990D01*
X21909043Y31576500D01*
X22090957Y31576500D01*
X22269375Y31611990D01*
X22437441Y31681605D01*
X22588697Y31782671D01*
X22717329Y31911303D01*
X22818395Y32062559D01*
X22888010Y32230625D01*
X22923500Y32409043D01*
X22923500Y32590957D01*
X22888010Y32769375D01*
X22818395Y32937441D01*
X22723500Y33079461D01*
X22723500Y33464467D01*
X22727000Y33500001D01*
X22720896Y33561973D01*
X22713031Y33641831D01*
X22671660Y33778211D01*
X22604478Y33903900D01*
X22580321Y33933335D01*
X22536719Y33986465D01*
X22536716Y33986468D01*
X22514066Y34014067D01*
X22486468Y34036716D01*
X18921333Y37601850D01*
X18888010Y37769375D01*
X18818395Y37937441D01*
X18717329Y38088697D01*
X18588697Y38217329D01*
X18437441Y38318395D01*
X18269375Y38388010D01*
X18179142Y38405959D01*
X19549684Y39776500D01*
X28007480Y39776500D01*
X27956500Y39520203D01*
G37*
%TD.AperFunction*%
D22*
X11765191Y35592986D02*
X11951456Y35515833D01*
X12149194Y35476500D01*
X12350806Y35476500D01*
X12548544Y35515833D01*
X12734809Y35592986D01*
X12859796Y35676500D01*
X13487744Y35676500D01*
X13471789Y35671660D01*
X13346100Y35604478D01*
X13235933Y35514067D01*
X13213280Y35486464D01*
X8763537Y31036720D01*
X8735934Y31014067D01*
X8713281Y30986464D01*
X8645522Y30903899D01*
X8578340Y30778210D01*
X8536970Y30641830D01*
X8523000Y30500000D01*
X8526501Y30464456D01*
X8526500Y27329462D01*
X8431605Y27187441D01*
X8361990Y27019375D01*
X8326500Y26840957D01*
X8326500Y26659043D01*
X8361990Y26480625D01*
X8431605Y26312559D01*
X8532671Y26161303D01*
X8661303Y26032671D01*
X8812559Y25931605D01*
X8980625Y25861990D01*
X9159043Y25826500D01*
X9340957Y25826500D01*
X9519375Y25861990D01*
X9687441Y25931605D01*
X9838697Y26032671D01*
X9967329Y26161303D01*
X10068395Y26312559D01*
X10138010Y26480625D01*
X10173500Y26659043D01*
X10173500Y26840957D01*
X10138010Y27019375D01*
X10068395Y27187441D01*
X9973500Y27329461D01*
X9973500Y30200317D01*
X14049684Y34276500D01*
X15214466Y34276500D01*
X15250000Y34273000D01*
X15285534Y34276500D01*
X15285536Y34276500D01*
X15391831Y34286969D01*
X15528211Y34328340D01*
X15653900Y34395522D01*
X15764067Y34485933D01*
X15776500Y34501083D01*
X15776501Y30035544D01*
X15773000Y30000000D01*
X15786970Y29858170D01*
X15828340Y29721790D01*
X15828341Y29721789D01*
X15895523Y29596100D01*
X15985934Y29485933D01*
X16013537Y29463280D01*
X18006500Y27470316D01*
X18006501Y24044352D01*
X17959000Y24039674D01*
X17794572Y23989795D01*
X17643034Y23908796D01*
X17510210Y23799790D01*
X17401204Y23666966D01*
X17320205Y23515428D01*
X17270326Y23351000D01*
X17253484Y23180000D01*
X17253484Y21980000D01*
X17270326Y21809000D01*
X17320205Y21644572D01*
X17401204Y21493034D01*
X17510210Y21360210D01*
X17643034Y21251204D01*
X17782704Y21176548D01*
X17585458Y20979302D01*
X17424201Y20737964D01*
X17313125Y20469804D01*
X17256500Y20185127D01*
X17256500Y19894873D01*
X17307134Y19640317D01*
X17135318Y19468501D01*
X15875817Y19468501D01*
X15907014Y19515191D01*
X15984167Y19701456D01*
X16023500Y19899194D01*
X16023500Y20100806D01*
X15984167Y20298544D01*
X15907014Y20484809D01*
X15795004Y20652443D01*
X15652443Y20795004D01*
X15484809Y20907014D01*
X15298544Y20984167D01*
X15100806Y21023500D01*
X14899194Y21023500D01*
X14701456Y20984167D01*
X14515191Y20907014D01*
X14390204Y20823500D01*
X9290450Y20823500D01*
X9250000Y20827484D01*
X9088565Y20811584D01*
X9041477Y20797300D01*
X8933336Y20764496D01*
X8790275Y20688028D01*
X8664880Y20585120D01*
X8639092Y20553697D01*
X3625856Y15540460D01*
X3617923Y15566612D01*
X3481098Y15822593D01*
X3296963Y16046963D01*
X3072593Y16231098D01*
X2823500Y16364241D01*
X2823500Y17908897D01*
X4553698Y19639093D01*
X4585120Y19664880D01*
X4688028Y19790275D01*
X4764496Y19933336D01*
X4811584Y20088566D01*
X4823500Y20209550D01*
X4823500Y20209552D01*
X4827484Y20249999D01*
X4823500Y20290447D01*
X4823500Y33908897D01*
X6591105Y35676500D01*
X11640204Y35676500D01*
X11765191Y35592986D01*
%TA.AperFunction,Conductor*%
D23*
G36*
X11765191Y35592986D02*
G01*
X11951456Y35515833D01*
X12149194Y35476500D01*
X12350806Y35476500D01*
X12548544Y35515833D01*
X12734809Y35592986D01*
X12859796Y35676500D01*
X13487744Y35676500D01*
X13471789Y35671660D01*
X13346100Y35604478D01*
X13235933Y35514067D01*
X13213280Y35486464D01*
X8763537Y31036720D01*
X8735934Y31014067D01*
X8713281Y30986464D01*
X8645522Y30903899D01*
X8578340Y30778210D01*
X8536970Y30641830D01*
X8523000Y30500000D01*
X8526501Y30464456D01*
X8526500Y27329462D01*
X8431605Y27187441D01*
X8361990Y27019375D01*
X8326500Y26840957D01*
X8326500Y26659043D01*
X8361990Y26480625D01*
X8431605Y26312559D01*
X8532671Y26161303D01*
X8661303Y26032671D01*
X8812559Y25931605D01*
X8980625Y25861990D01*
X9159043Y25826500D01*
X9340957Y25826500D01*
X9519375Y25861990D01*
X9687441Y25931605D01*
X9838697Y26032671D01*
X9967329Y26161303D01*
X10068395Y26312559D01*
X10138010Y26480625D01*
X10173500Y26659043D01*
X10173500Y26840957D01*
X10138010Y27019375D01*
X10068395Y27187441D01*
X9973500Y27329461D01*
X9973500Y30200317D01*
X14049684Y34276500D01*
X15214466Y34276500D01*
X15250000Y34273000D01*
X15285534Y34276500D01*
X15285536Y34276500D01*
X15391831Y34286969D01*
X15528211Y34328340D01*
X15653900Y34395522D01*
X15764067Y34485933D01*
X15776500Y34501083D01*
X15776501Y30035544D01*
X15773000Y30000000D01*
X15786970Y29858170D01*
X15828340Y29721790D01*
X15828341Y29721789D01*
X15895523Y29596100D01*
X15985934Y29485933D01*
X16013537Y29463280D01*
X18006500Y27470316D01*
X18006501Y24044352D01*
X17959000Y24039674D01*
X17794572Y23989795D01*
X17643034Y23908796D01*
X17510210Y23799790D01*
X17401204Y23666966D01*
X17320205Y23515428D01*
X17270326Y23351000D01*
X17253484Y23180000D01*
X17253484Y21980000D01*
X17270326Y21809000D01*
X17320205Y21644572D01*
X17401204Y21493034D01*
X17510210Y21360210D01*
X17643034Y21251204D01*
X17782704Y21176548D01*
X17585458Y20979302D01*
X17424201Y20737964D01*
X17313125Y20469804D01*
X17256500Y20185127D01*
X17256500Y19894873D01*
X17307134Y19640317D01*
X17135318Y19468501D01*
X15875817Y19468501D01*
X15907014Y19515191D01*
X15984167Y19701456D01*
X16023500Y19899194D01*
X16023500Y20100806D01*
X15984167Y20298544D01*
X15907014Y20484809D01*
X15795004Y20652443D01*
X15652443Y20795004D01*
X15484809Y20907014D01*
X15298544Y20984167D01*
X15100806Y21023500D01*
X14899194Y21023500D01*
X14701456Y20984167D01*
X14515191Y20907014D01*
X14390204Y20823500D01*
X9290450Y20823500D01*
X9250000Y20827484D01*
X9088565Y20811584D01*
X9041477Y20797300D01*
X8933336Y20764496D01*
X8790275Y20688028D01*
X8664880Y20585120D01*
X8639092Y20553697D01*
X3625856Y15540460D01*
X3617923Y15566612D01*
X3481098Y15822593D01*
X3296963Y16046963D01*
X3072593Y16231098D01*
X2823500Y16364241D01*
X2823500Y17908897D01*
X4553698Y19639093D01*
X4585120Y19664880D01*
X4688028Y19790275D01*
X4764496Y19933336D01*
X4811584Y20088566D01*
X4823500Y20209550D01*
X4823500Y20209552D01*
X4827484Y20249999D01*
X4823500Y20290447D01*
X4823500Y33908897D01*
X6591105Y35676500D01*
X11640204Y35676500D01*
X11765191Y35592986D01*
G37*
%TD.AperFunction*%
D22*
X17282671Y36911303D02*
X17411303Y36782671D01*
X17562559Y36681605D01*
X17730625Y36611990D01*
X17898150Y36578667D01*
X21276500Y33200316D01*
X21276500Y33079462D01*
X21181605Y32937441D01*
X21111990Y32769375D01*
X21076500Y32590957D01*
X21076500Y32409043D01*
X21111990Y32230625D01*
X21161085Y32112098D01*
X20671333Y32601850D01*
X20638010Y32769375D01*
X20568395Y32937441D01*
X20467329Y33088697D01*
X20338697Y33217329D01*
X20187441Y33318395D01*
X20019375Y33388010D01*
X19840957Y33423500D01*
X19659043Y33423500D01*
X19480625Y33388010D01*
X19312559Y33318395D01*
X19250000Y33276594D01*
X19187441Y33318395D01*
X19019375Y33388010D01*
X18840957Y33423500D01*
X18659043Y33423500D01*
X18480625Y33388010D01*
X18312559Y33318395D01*
X18161303Y33217329D01*
X18032671Y33088697D01*
X17931605Y32937441D01*
X17861990Y32769375D01*
X17826500Y32590957D01*
X17826500Y32409043D01*
X17861990Y32230625D01*
X17931605Y32062559D01*
X18032671Y31911303D01*
X18161303Y31782671D01*
X18312559Y31681605D01*
X18480625Y31611990D01*
X18648150Y31578667D01*
X24026501Y26200315D01*
X24026500Y20285536D01*
X24026500Y20285535D01*
X24026501Y18079463D01*
X23931605Y17937441D01*
X23861990Y17769375D01*
X23826500Y17590957D01*
X23826500Y17409043D01*
X23861990Y17230625D01*
X23931605Y17062559D01*
X23991112Y16973500D01*
X22646822Y16973500D01*
X22686875Y17070196D01*
X22743500Y17354873D01*
X22743500Y17645127D01*
X22686875Y17929804D01*
X22575799Y18197964D01*
X22414542Y18439302D01*
X22209302Y18644542D01*
X22021541Y18770000D01*
X22209302Y18895458D01*
X22414542Y19100698D01*
X22575799Y19342036D01*
X22686875Y19610196D01*
X22743500Y19894873D01*
X22743500Y20185127D01*
X22686875Y20469804D01*
X22575799Y20737964D01*
X22414542Y20979302D01*
X22209302Y21184542D01*
X22025542Y21307327D01*
X22036058Y21312948D01*
X22114175Y21559048D01*
X21270000Y22403223D01*
X20425825Y21559048D01*
X20503942Y21312948D01*
X20514980Y21307675D01*
X20330698Y21184542D01*
X20125458Y20979302D01*
X20000000Y20791541D01*
X19874542Y20979302D01*
X19677296Y21176548D01*
X19816966Y21251204D01*
X19949790Y21360210D01*
X20058796Y21493034D01*
X20139795Y21644572D01*
X20174641Y21759443D01*
X20249048Y21735825D01*
X21093223Y22580000D01*
X21446777Y22580000D01*
X22290952Y21735825D01*
X22537052Y21813942D01*
X22662157Y22075851D01*
X22733762Y22357134D01*
X22749115Y22646982D01*
X22707627Y22934256D01*
X22610892Y23207916D01*
X22537052Y23346058D01*
X22290952Y23424175D01*
X21446777Y22580000D01*
X21093223Y22580000D01*
X20249048Y23424175D01*
X20174641Y23400557D01*
X20139795Y23515428D01*
X20094082Y23600952D01*
X20425825Y23600952D01*
X21270000Y22756777D01*
X22114175Y23600952D01*
X22036058Y23847052D01*
X21774149Y23972157D01*
X21492866Y24043762D01*
X21203018Y24059115D01*
X20915744Y24017627D01*
X20642084Y23920892D01*
X20503942Y23847052D01*
X20425825Y23600952D01*
X20094082Y23600952D01*
X20058796Y23666966D01*
X19949790Y23799790D01*
X19816966Y23908796D01*
X19665428Y23989795D01*
X19501000Y24039674D01*
X19453500Y24044352D01*
X19453500Y27734467D01*
X19457000Y27770001D01*
X19453500Y27805536D01*
X19443031Y27911831D01*
X19401660Y28048211D01*
X19334478Y28173900D01*
X19266719Y28256465D01*
X19266716Y28256468D01*
X19244066Y28284067D01*
X19216468Y28306716D01*
X17223500Y30299683D01*
X17223500Y36999859D01*
X17282671Y36911303D01*
%TA.AperFunction,Conductor*%
D23*
G36*
X17282671Y36911303D02*
G01*
X17411303Y36782671D01*
X17562559Y36681605D01*
X17730625Y36611990D01*
X17898150Y36578667D01*
X21276500Y33200316D01*
X21276500Y33079462D01*
X21181605Y32937441D01*
X21111990Y32769375D01*
X21076500Y32590957D01*
X21076500Y32409043D01*
X21111990Y32230625D01*
X21161085Y32112098D01*
X20671333Y32601850D01*
X20638010Y32769375D01*
X20568395Y32937441D01*
X20467329Y33088697D01*
X20338697Y33217329D01*
X20187441Y33318395D01*
X20019375Y33388010D01*
X19840957Y33423500D01*
X19659043Y33423500D01*
X19480625Y33388010D01*
X19312559Y33318395D01*
X19250000Y33276594D01*
X19187441Y33318395D01*
X19019375Y33388010D01*
X18840957Y33423500D01*
X18659043Y33423500D01*
X18480625Y33388010D01*
X18312559Y33318395D01*
X18161303Y33217329D01*
X18032671Y33088697D01*
X17931605Y32937441D01*
X17861990Y32769375D01*
X17826500Y32590957D01*
X17826500Y32409043D01*
X17861990Y32230625D01*
X17931605Y32062559D01*
X18032671Y31911303D01*
X18161303Y31782671D01*
X18312559Y31681605D01*
X18480625Y31611990D01*
X18648150Y31578667D01*
X24026501Y26200315D01*
X24026500Y20285536D01*
X24026500Y20285535D01*
X24026501Y18079463D01*
X23931605Y17937441D01*
X23861990Y17769375D01*
X23826500Y17590957D01*
X23826500Y17409043D01*
X23861990Y17230625D01*
X23931605Y17062559D01*
X23991112Y16973500D01*
X22646822Y16973500D01*
X22686875Y17070196D01*
X22743500Y17354873D01*
X22743500Y17645127D01*
X22686875Y17929804D01*
X22575799Y18197964D01*
X22414542Y18439302D01*
X22209302Y18644542D01*
X22021541Y18770000D01*
X22209302Y18895458D01*
X22414542Y19100698D01*
X22575799Y19342036D01*
X22686875Y19610196D01*
X22743500Y19894873D01*
X22743500Y20185127D01*
X22686875Y20469804D01*
X22575799Y20737964D01*
X22414542Y20979302D01*
X22209302Y21184542D01*
X22025542Y21307327D01*
X22036058Y21312948D01*
X22114175Y21559048D01*
X21270000Y22403223D01*
X20425825Y21559048D01*
X20503942Y21312948D01*
X20514980Y21307675D01*
X20330698Y21184542D01*
X20125458Y20979302D01*
X20000000Y20791541D01*
X19874542Y20979302D01*
X19677296Y21176548D01*
X19816966Y21251204D01*
X19949790Y21360210D01*
X20058796Y21493034D01*
X20139795Y21644572D01*
X20174641Y21759443D01*
X20249048Y21735825D01*
X21093223Y22580000D01*
X21446777Y22580000D01*
X22290952Y21735825D01*
X22537052Y21813942D01*
X22662157Y22075851D01*
X22733762Y22357134D01*
X22749115Y22646982D01*
X22707627Y22934256D01*
X22610892Y23207916D01*
X22537052Y23346058D01*
X22290952Y23424175D01*
X21446777Y22580000D01*
X21093223Y22580000D01*
X20249048Y23424175D01*
X20174641Y23400557D01*
X20139795Y23515428D01*
X20094082Y23600952D01*
X20425825Y23600952D01*
X21270000Y22756777D01*
X22114175Y23600952D01*
X22036058Y23847052D01*
X21774149Y23972157D01*
X21492866Y24043762D01*
X21203018Y24059115D01*
X20915744Y24017627D01*
X20642084Y23920892D01*
X20503942Y23847052D01*
X20425825Y23600952D01*
X20094082Y23600952D01*
X20058796Y23666966D01*
X19949790Y23799790D01*
X19816966Y23908796D01*
X19665428Y23989795D01*
X19501000Y24039674D01*
X19453500Y24044352D01*
X19453500Y27734467D01*
X19457000Y27770001D01*
X19453500Y27805536D01*
X19443031Y27911831D01*
X19401660Y28048211D01*
X19334478Y28173900D01*
X19266719Y28256465D01*
X19266716Y28256468D01*
X19244066Y28284067D01*
X19216468Y28306716D01*
X17223500Y30299683D01*
X17223500Y36999859D01*
X17282671Y36911303D01*
G37*
%TD.AperFunction*%
D22*
X28472571Y48105705D02*
X28274295Y47907429D01*
X28118510Y47674280D01*
X28011204Y47415220D01*
X27956500Y47140203D01*
X27956500Y46859797D01*
X28011204Y46584780D01*
X28118510Y46325720D01*
X28274295Y46092571D01*
X28393366Y45973500D01*
X21785534Y45973500D01*
X21750000Y45977000D01*
X21714466Y45973500D01*
X21714464Y45973500D01*
X21608169Y45963031D01*
X21471789Y45921660D01*
X21346100Y45854478D01*
X21235933Y45764067D01*
X21213275Y45736458D01*
X15513537Y40036720D01*
X15485934Y40014067D01*
X15463281Y39986464D01*
X15395522Y39903899D01*
X15328340Y39778210D01*
X15286970Y39641830D01*
X15273000Y39500000D01*
X15276501Y39464456D01*
X15276500Y37129157D01*
X15234809Y37157014D01*
X15048544Y37234167D01*
X14850806Y37273500D01*
X14786981Y37273500D01*
X14661434Y37311584D01*
X14540450Y37323500D01*
X14540447Y37323500D01*
X14500000Y37327484D01*
X14459553Y37323500D01*
X12859796Y37323500D01*
X12734809Y37407014D01*
X12548544Y37484167D01*
X12350806Y37523500D01*
X12149194Y37523500D01*
X11951456Y37484167D01*
X11765191Y37407014D01*
X11640204Y37323500D01*
X6290450Y37323500D01*
X6250000Y37327484D01*
X6088565Y37311584D01*
X6041477Y37297300D01*
X5933336Y37264496D01*
X5790275Y37188028D01*
X5664880Y37085120D01*
X5639092Y37053697D01*
X3446309Y34860912D01*
X3414881Y34835120D01*
X3321874Y34721789D01*
X3311973Y34709725D01*
X3235505Y34566665D01*
X3188417Y34411434D01*
X3172516Y34250000D01*
X3176501Y34209543D01*
X3176500Y23645824D01*
X3072593Y23731098D01*
X2823500Y23864241D01*
X2823500Y44158897D01*
X5091105Y46426500D01*
X14890204Y46426500D01*
X15015191Y46342986D01*
X15201456Y46265833D01*
X15399194Y46226500D01*
X15600806Y46226500D01*
X15798544Y46265833D01*
X15984809Y46342986D01*
X16109796Y46426500D01*
X19209553Y46426500D01*
X19250000Y46422516D01*
X19290447Y46426500D01*
X19290450Y46426500D01*
X19411434Y46438416D01*
X19566664Y46485504D01*
X19709725Y46561972D01*
X19835120Y46664880D01*
X19860916Y46696313D01*
X20341104Y47176500D01*
X26709553Y47176500D01*
X26750000Y47172516D01*
X26790447Y47176500D01*
X26790450Y47176500D01*
X26911434Y47188416D01*
X27066664Y47235504D01*
X27209725Y47311972D01*
X27335120Y47414880D01*
X27360916Y47446313D01*
X28091104Y48176500D01*
X28578523Y48176500D01*
X28472571Y48105705D01*
%TA.AperFunction,Conductor*%
D23*
G36*
X28472571Y48105705D02*
G01*
X28274295Y47907429D01*
X28118510Y47674280D01*
X28011204Y47415220D01*
X27956500Y47140203D01*
X27956500Y46859797D01*
X28011204Y46584780D01*
X28118510Y46325720D01*
X28274295Y46092571D01*
X28393366Y45973500D01*
X21785534Y45973500D01*
X21750000Y45977000D01*
X21714466Y45973500D01*
X21714464Y45973500D01*
X21608169Y45963031D01*
X21471789Y45921660D01*
X21346100Y45854478D01*
X21235933Y45764067D01*
X21213275Y45736458D01*
X15513537Y40036720D01*
X15485934Y40014067D01*
X15463281Y39986464D01*
X15395522Y39903899D01*
X15328340Y39778210D01*
X15286970Y39641830D01*
X15273000Y39500000D01*
X15276501Y39464456D01*
X15276500Y37129157D01*
X15234809Y37157014D01*
X15048544Y37234167D01*
X14850806Y37273500D01*
X14786981Y37273500D01*
X14661434Y37311584D01*
X14540450Y37323500D01*
X14540447Y37323500D01*
X14500000Y37327484D01*
X14459553Y37323500D01*
X12859796Y37323500D01*
X12734809Y37407014D01*
X12548544Y37484167D01*
X12350806Y37523500D01*
X12149194Y37523500D01*
X11951456Y37484167D01*
X11765191Y37407014D01*
X11640204Y37323500D01*
X6290450Y37323500D01*
X6250000Y37327484D01*
X6088565Y37311584D01*
X6041477Y37297300D01*
X5933336Y37264496D01*
X5790275Y37188028D01*
X5664880Y37085120D01*
X5639092Y37053697D01*
X3446309Y34860912D01*
X3414881Y34835120D01*
X3321874Y34721789D01*
X3311973Y34709725D01*
X3235505Y34566665D01*
X3188417Y34411434D01*
X3172516Y34250000D01*
X3176501Y34209543D01*
X3176500Y23645824D01*
X3072593Y23731098D01*
X2823500Y23864241D01*
X2823500Y44158897D01*
X5091105Y46426500D01*
X14890204Y46426500D01*
X15015191Y46342986D01*
X15201456Y46265833D01*
X15399194Y46226500D01*
X15600806Y46226500D01*
X15798544Y46265833D01*
X15984809Y46342986D01*
X16109796Y46426500D01*
X19209553Y46426500D01*
X19250000Y46422516D01*
X19290447Y46426500D01*
X19290450Y46426500D01*
X19411434Y46438416D01*
X19566664Y46485504D01*
X19709725Y46561972D01*
X19835120Y46664880D01*
X19860916Y46696313D01*
X20341104Y47176500D01*
X26709553Y47176500D01*
X26750000Y47172516D01*
X26790447Y47176500D01*
X26790450Y47176500D01*
X26911434Y47188416D01*
X27066664Y47235504D01*
X27209725Y47311972D01*
X27335120Y47414880D01*
X27360916Y47446313D01*
X28091104Y48176500D01*
X28578523Y48176500D01*
X28472571Y48105705D01*
G37*
%TD.AperFunction*%
%TD*%
M02*
