%TF.GenerationSoftware,KiCad,Pcbnew,(5.1.10)-1*%
%TF.CreationDate,2022-01-11T09:06:52+01:00*%
%TF.ProjectId,EspOptoProg,4573704f-7074-46f5-9072-6f672e6b6963,rev?*%
%TF.SameCoordinates,Original*%
%TF.FileFunction,OtherDrawing,Comment*%
%FSLAX46Y46*%
G04 Gerber Fmt 4.6, Leading zero omitted, Abs format (unit mm)*
G04 Created by KiCad (PCBNEW (5.1.10)-1) date 2022-01-11 09:06:52*
%MOMM*%
%LPD*%
G01*
G04 APERTURE LIST*
%ADD10C,0.150000*%
G04 APERTURE END LIST*
D10*
X-5621309Y80119047D02*
X-5716547Y80166666D01*
X-5764166Y80214285D01*
X-5811785Y80309523D01*
X-5811785Y80357142D01*
X-5764166Y80452380D01*
X-5716547Y80500000D01*
X-5621309Y80547619D01*
X-5430833Y80547619D01*
X-5335595Y80500000D01*
X-5287976Y80452380D01*
X-5240357Y80357142D01*
X-5240357Y80309523D01*
X-5287976Y80214285D01*
X-5335595Y80166666D01*
X-5430833Y80119047D01*
X-5621309Y80119047D01*
X-5716547Y80071428D01*
X-5764166Y80023809D01*
X-5811785Y79928571D01*
X-5811785Y79738095D01*
X-5764166Y79642857D01*
X-5716547Y79595238D01*
X-5621309Y79547619D01*
X-5430833Y79547619D01*
X-5335595Y79595238D01*
X-5287976Y79642857D01*
X-5240357Y79738095D01*
X-5240357Y79928571D01*
X-5287976Y80023809D01*
X-5335595Y80071428D01*
X-5430833Y80119047D01*
X-4621309Y80547619D02*
X-4526071Y80547619D01*
X-4430833Y80500000D01*
X-4383214Y80452380D01*
X-4335595Y80357142D01*
X-4287976Y80166666D01*
X-4287976Y79928571D01*
X-4335595Y79738095D01*
X-4383214Y79642857D01*
X-4430833Y79595238D01*
X-4526071Y79547619D01*
X-4621309Y79547619D01*
X-4716547Y79595238D01*
X-4764166Y79642857D01*
X-4811785Y79738095D01*
X-4859404Y79928571D01*
X-4859404Y80166666D01*
X-4811785Y80357142D01*
X-4764166Y80452380D01*
X-4716547Y80500000D01*
X-4621309Y80547619D01*
X-5859404Y77547619D02*
X-5192738Y77547619D01*
X-5621309Y76547619D01*
X-4907023Y77547619D02*
X-4240357Y77547619D01*
X-4668928Y76547619D01*
X-4907023Y3547619D02*
X-4287976Y3547619D01*
X-4621309Y3166666D01*
X-4478452Y3166666D01*
X-4383214Y3119047D01*
X-4335595Y3071428D01*
X-4287976Y2976190D01*
X-4287976Y2738095D01*
X-4335595Y2642857D01*
X-4383214Y2595238D01*
X-4478452Y2547619D01*
X-4764166Y2547619D01*
X-4859404Y2595238D01*
X-4907023Y2642857D01*
X-4621309Y547619D02*
X-4526071Y547619D01*
X-4430833Y500000D01*
X-4383214Y452380D01*
X-4335595Y357142D01*
X-4287976Y166666D01*
X-4287976Y-71428D01*
X-4335595Y-261904D01*
X-4383214Y-357142D01*
X-4430833Y-404761D01*
X-4526071Y-452380D01*
X-4621309Y-452380D01*
X-4716547Y-404761D01*
X-4764166Y-357142D01*
X-4811785Y-261904D01*
X-4859404Y-71428D01*
X-4859404Y166666D01*
X-4811785Y357142D01*
X-4764166Y452380D01*
X-4716547Y500000D01*
X-4621309Y547619D01*
X40214285Y-4764166D02*
X39547619Y-4764166D01*
X40595238Y-4526071D02*
X39880952Y-4287976D01*
X39880952Y-4907023D01*
X40547619Y-5478452D02*
X40547619Y-5573690D01*
X40500000Y-5668928D01*
X40452380Y-5716547D01*
X40357142Y-5764166D01*
X40166666Y-5811785D01*
X39928571Y-5811785D01*
X39738095Y-5764166D01*
X39642857Y-5716547D01*
X39595238Y-5668928D01*
X39547619Y-5573690D01*
X39547619Y-5478452D01*
X39595238Y-5383214D01*
X39642857Y-5335595D01*
X39738095Y-5287976D01*
X39928571Y-5240357D01*
X40166666Y-5240357D01*
X40357142Y-5287976D01*
X40452380Y-5335595D01*
X40500000Y-5383214D01*
X40547619Y-5478452D01*
X37547619Y-4240357D02*
X37547619Y-4859404D01*
X37166666Y-4526071D01*
X37166666Y-4668928D01*
X37119047Y-4764166D01*
X37071428Y-4811785D01*
X36976190Y-4859404D01*
X36738095Y-4859404D01*
X36642857Y-4811785D01*
X36595238Y-4764166D01*
X36547619Y-4668928D01*
X36547619Y-4383214D01*
X36595238Y-4287976D01*
X36642857Y-4240357D01*
X37547619Y-5192738D02*
X37547619Y-5859404D01*
X36547619Y-5430833D01*
X9547619Y-4859404D02*
X9547619Y-4287976D01*
X9547619Y-4573690D02*
X10547619Y-4573690D01*
X10404761Y-4478452D01*
X10309523Y-4383214D01*
X10261904Y-4287976D01*
X10547619Y-5478452D02*
X10547619Y-5573690D01*
X10500000Y-5668928D01*
X10452380Y-5716547D01*
X10357142Y-5764166D01*
X10166666Y-5811785D01*
X9928571Y-5811785D01*
X9738095Y-5764166D01*
X9642857Y-5716547D01*
X9595238Y-5668928D01*
X9547619Y-5573690D01*
X9547619Y-5478452D01*
X9595238Y-5383214D01*
X9642857Y-5335595D01*
X9738095Y-5287976D01*
X9928571Y-5240357D01*
X10166666Y-5240357D01*
X10357142Y-5287976D01*
X10452380Y-5335595D01*
X10500000Y-5383214D01*
X10547619Y-5478452D01*
X3547619Y-4240357D02*
X3547619Y-4859404D01*
X3166666Y-4526071D01*
X3166666Y-4668928D01*
X3119047Y-4764166D01*
X3071428Y-4811785D01*
X2976190Y-4859404D01*
X2738095Y-4859404D01*
X2642857Y-4811785D01*
X2595238Y-4764166D01*
X2547619Y-4668928D01*
X2547619Y-4383214D01*
X2595238Y-4287976D01*
X2642857Y-4240357D01*
X547619Y-4526071D02*
X547619Y-4621309D01*
X500000Y-4716547D01*
X452380Y-4764166D01*
X357142Y-4811785D01*
X166666Y-4859404D01*
X-71428Y-4859404D01*
X-261904Y-4811785D01*
X-357142Y-4764166D01*
X-404761Y-4716547D01*
X-452380Y-4621309D01*
X-452380Y-4526071D01*
X-404761Y-4430833D01*
X-357142Y-4383214D01*
X-261904Y-4335595D01*
X-71428Y-4287976D01*
X166666Y-4287976D01*
X357142Y-4335595D01*
X452380Y-4383214D01*
X500000Y-4430833D01*
X547619Y-4526071D01*
X10000000Y-1000000D02*
X10000000Y-3000000D01*
X-1000000Y80000000D02*
X-3000000Y80000000D01*
X-1000000Y77000000D02*
X-3000000Y77000000D01*
X-1000000Y3000000D02*
X-3000000Y3000000D01*
X-1000000Y0D02*
X-3000000Y0D01*
X40000000Y-1000000D02*
X40000000Y-3000000D01*
X37000000Y-1000000D02*
X37000000Y-3000000D01*
X0Y-1000000D02*
X0Y-3000000D01*
X3000000Y-1000000D02*
X3000000Y-3000000D01*
X9500000Y76500000D02*
X9500000Y77500000D01*
X10500000Y76500000D02*
X9500000Y76500000D01*
X10500000Y77500000D02*
X10500000Y76500000D01*
X9500000Y77500000D02*
X10500000Y77500000D01*
X37500000Y3000000D02*
G75*
G03*
X37500000Y3000000I-500000J0D01*
G01*
X3500000Y3000000D02*
G75*
G03*
X3500000Y3000000I-500000J0D01*
G01*
X3500000Y77000000D02*
G75*
G03*
X3500000Y77000000I-500000J0D01*
G01*
M02*
