M48
; DRILL file {KiCad (5.1.10)-1} date 01/11/22 09:11:26
; FORMAT={-:-/ absolute / metric / decimal}
; #@! TF.CreationDate,2022-01-11T09:11:26+01:00
; #@! TF.GenerationSoftware,Kicad,Pcbnew,(5.1.10)-1
; #@! TF.FileFunction,Plated,1,2,PTH
FMAT,2
METRIC
T1C0.300
T2C0.400
T3C0.500
T4C0.550
T5C0.800
T6C1.000
%
G90
G05
T1
X3.25Y12.0
X3.25Y8.5
X5.5Y39.0
X6.75Y22.75
X9.0Y13.5
X9.25Y26.75
X16.25Y21.75
X16.25Y16.25
X16.5Y13.5
X18.0Y37.5
X18.75Y32.5
X19.75Y32.5
X22.0Y32.5
X24.75Y17.5
X25.0Y11.75
X25.25Y32.25
X25.25Y21.75
X25.75Y31.5
X26.25Y36.75
X31.0Y26.75
X34.0Y13.75
T2
X11.25Y8.25
X12.25Y36.5
X14.75Y36.25
X15.0Y20.0
X15.5Y47.25
X17.75Y49.0
X22.0Y50.0
X22.25Y71.75
X23.75Y51.0
T5
X9.25Y64.06
X9.25Y61.52
X9.25Y58.98
X9.25Y56.44
X29.38Y47.0
X29.38Y39.38
X31.92Y47.0
X31.92Y39.38
X34.46Y47.0
X34.46Y39.38
X37.0Y47.0
X37.0Y39.38
T6
X2.0Y22.5
X2.0Y15.0
X18.73Y22.58
X18.73Y20.04
X18.73Y17.5
X18.73Y14.96
X18.73Y12.42
X21.27Y22.58
X21.27Y20.04
X21.27Y17.5
X21.27Y14.96
X21.27Y12.42
X38.0Y22.5
X38.0Y15.0
X38.0Y12.5
T3
G00X16.5Y78.225
M15
G01X16.5Y78.875
M16
G05
G00X23.5Y78.225
M15
G01X23.5Y78.875
M16
G05
T4
G00X17.65Y75.85
M15
G01X17.35Y75.85
M16
G05
G00X22.65Y75.85
M15
G01X22.35Y75.85
M16
G05
T0
M30
