%TF.GenerationSoftware,KiCad,Pcbnew,(5.1.10)-1*%
%TF.CreationDate,2022-01-11T09:06:52+01:00*%
%TF.ProjectId,EspOptoProg,4573704f-7074-46f5-9072-6f672e6b6963,rev?*%
%TF.SameCoordinates,Original*%
%TF.FileFunction,Soldermask,Top*%
%TF.FilePolarity,Negative*%
%FSLAX46Y46*%
G04 Gerber Fmt 4.6, Leading zero omitted, Abs format (unit mm)*
G04 Created by KiCad (PCBNEW (5.1.10)-1) date 2022-01-11 09:06:52*
%MOMM*%
%LPD*%
G01*
G04 APERTURE LIST*
%ADD10C,0.010000*%
%ADD11O,2.100000X1.300000*%
%ADD12C,2.000000*%
%ADD13O,1.700000X1.700000*%
%ADD14C,1.800000*%
%ADD15O,2.300000X1.800000*%
%ADD16O,9.100000X2.100000*%
%ADD17O,1.000000X1.650000*%
%ADD18O,1.400000X1.100000*%
G04 APERTURE END LIST*
D10*
%TO.C,LOGO2*%
G36*
X12848121Y6399510D02*
G01*
X13032471Y6296958D01*
X13230412Y6190430D01*
X13530816Y6067645D01*
X13871916Y5953604D01*
X13904000Y5944189D01*
X14329899Y5817600D01*
X14802023Y5672381D01*
X15162144Y5557987D01*
X15602198Y5436436D01*
X15939082Y5395762D01*
X16116805Y5408655D01*
X16425523Y5401957D01*
X16648656Y5292437D01*
X16765084Y5111202D01*
X16753685Y4889362D01*
X16613333Y4677333D01*
X16417381Y4533462D01*
X16227280Y4535096D01*
X16039505Y4639801D01*
X15899138Y4773966D01*
X15851333Y4878360D01*
X15776575Y4954621D01*
X15579843Y5054946D01*
X15302451Y5158559D01*
X15279833Y5165792D01*
X14599921Y5379884D01*
X14062306Y5546889D01*
X13648271Y5672141D01*
X13339101Y5760976D01*
X13116077Y5818729D01*
X12960482Y5850734D01*
X12853600Y5862326D01*
X12834906Y5862667D01*
X12631855Y5793146D01*
X12379622Y5603472D01*
X12110427Y5321972D01*
X11896039Y5037167D01*
X11745690Y4873780D01*
X11626916Y4873548D01*
X11565295Y4970164D01*
X11593028Y5100038D01*
X11721232Y5311569D01*
X11885452Y5519320D01*
X12084142Y5776886D01*
X12233740Y6021629D01*
X12295735Y6178989D01*
X12399266Y6369748D01*
X12595542Y6445200D01*
X12848121Y6399510D01*
G37*
X12848121Y6399510D02*
X13032471Y6296958D01*
X13230412Y6190430D01*
X13530816Y6067645D01*
X13871916Y5953604D01*
X13904000Y5944189D01*
X14329899Y5817600D01*
X14802023Y5672381D01*
X15162144Y5557987D01*
X15602198Y5436436D01*
X15939082Y5395762D01*
X16116805Y5408655D01*
X16425523Y5401957D01*
X16648656Y5292437D01*
X16765084Y5111202D01*
X16753685Y4889362D01*
X16613333Y4677333D01*
X16417381Y4533462D01*
X16227280Y4535096D01*
X16039505Y4639801D01*
X15899138Y4773966D01*
X15851333Y4878360D01*
X15776575Y4954621D01*
X15579843Y5054946D01*
X15302451Y5158559D01*
X15279833Y5165792D01*
X14599921Y5379884D01*
X14062306Y5546889D01*
X13648271Y5672141D01*
X13339101Y5760976D01*
X13116077Y5818729D01*
X12960482Y5850734D01*
X12853600Y5862326D01*
X12834906Y5862667D01*
X12631855Y5793146D01*
X12379622Y5603472D01*
X12110427Y5321972D01*
X11896039Y5037167D01*
X11745690Y4873780D01*
X11626916Y4873548D01*
X11565295Y4970164D01*
X11593028Y5100038D01*
X11721232Y5311569D01*
X11885452Y5519320D01*
X12084142Y5776886D01*
X12233740Y6021629D01*
X12295735Y6178989D01*
X12399266Y6369748D01*
X12595542Y6445200D01*
X12848121Y6399510D01*
G36*
X28439033Y4443852D02*
G01*
X28588263Y4231183D01*
X28645400Y4105833D01*
X28783732Y3785850D01*
X28928956Y3462755D01*
X28974428Y3365000D01*
X29091962Y3106329D01*
X29187434Y2880104D01*
X29205266Y2833738D01*
X29245745Y2762293D01*
X29297552Y2775452D01*
X29374862Y2892789D01*
X29491848Y3133878D01*
X29603753Y3384071D01*
X29802267Y3826818D01*
X29952539Y4136245D01*
X30070569Y4335704D01*
X30172353Y4448551D01*
X30273888Y4498140D01*
X30373618Y4508000D01*
X30492814Y4490602D01*
X30557779Y4425727D01*
X30564715Y4294354D01*
X30509818Y4077462D01*
X30389287Y3756030D01*
X30199322Y3311038D01*
X30081403Y3045834D01*
X29884349Y2609035D01*
X29739345Y2303003D01*
X29629799Y2103708D01*
X29539118Y1987121D01*
X29450710Y1929212D01*
X29347983Y1905951D01*
X29290337Y1900180D01*
X29143780Y1894364D01*
X29039088Y1928332D01*
X28947192Y2032353D01*
X28839026Y2236696D01*
X28721197Y2492847D01*
X28448207Y3101077D01*
X28242969Y3573157D01*
X28099635Y3925438D01*
X28012358Y4174273D01*
X27975289Y4336012D01*
X27982581Y4427009D01*
X28017610Y4460325D01*
X28259875Y4513988D01*
X28439033Y4443852D01*
G37*
X28439033Y4443852D02*
X28588263Y4231183D01*
X28645400Y4105833D01*
X28783732Y3785850D01*
X28928956Y3462755D01*
X28974428Y3365000D01*
X29091962Y3106329D01*
X29187434Y2880104D01*
X29205266Y2833738D01*
X29245745Y2762293D01*
X29297552Y2775452D01*
X29374862Y2892789D01*
X29491848Y3133878D01*
X29603753Y3384071D01*
X29802267Y3826818D01*
X29952539Y4136245D01*
X30070569Y4335704D01*
X30172353Y4448551D01*
X30273888Y4498140D01*
X30373618Y4508000D01*
X30492814Y4490602D01*
X30557779Y4425727D01*
X30564715Y4294354D01*
X30509818Y4077462D01*
X30389287Y3756030D01*
X30199322Y3311038D01*
X30081403Y3045834D01*
X29884349Y2609035D01*
X29739345Y2303003D01*
X29629799Y2103708D01*
X29539118Y1987121D01*
X29450710Y1929212D01*
X29347983Y1905951D01*
X29290337Y1900180D01*
X29143780Y1894364D01*
X29039088Y1928332D01*
X28947192Y2032353D01*
X28839026Y2236696D01*
X28721197Y2492847D01*
X28448207Y3101077D01*
X28242969Y3573157D01*
X28099635Y3925438D01*
X28012358Y4174273D01*
X27975289Y4336012D01*
X27982581Y4427009D01*
X28017610Y4460325D01*
X28259875Y4513988D01*
X28439033Y4443852D01*
G36*
X27093175Y4430104D02*
G01*
X27443350Y4227652D01*
X27723264Y3933933D01*
X27899194Y3583630D01*
X27939973Y3238000D01*
X27916333Y2941667D01*
X26961864Y2899333D01*
X26550114Y2880123D01*
X26282324Y2861619D01*
X26133283Y2837026D01*
X26077783Y2799551D01*
X26090616Y2742402D01*
X26134293Y2676311D01*
X26354208Y2501452D01*
X26668678Y2432467D01*
X27035683Y2475120D01*
X27201026Y2529956D01*
X27424483Y2613153D01*
X27548708Y2628069D01*
X27630140Y2573059D01*
X27674387Y2516167D01*
X27770214Y2353173D01*
X27752597Y2233607D01*
X27604722Y2108724D01*
X27514167Y2051739D01*
X27181648Y1927400D01*
X26770193Y1883725D01*
X26350259Y1921658D01*
X26012609Y2031632D01*
X25688552Y2281916D01*
X25469691Y2630153D01*
X25365640Y3034518D01*
X25386014Y3453184D01*
X25386822Y3455233D01*
X26011333Y3455233D01*
X26089362Y3433138D01*
X26296937Y3416435D01*
X26594291Y3407892D01*
X26698993Y3407333D01*
X27386654Y3407333D01*
X27261852Y3597833D01*
X27019296Y3845492D01*
X26726361Y3954252D01*
X26425105Y3911373D01*
X26200814Y3769214D01*
X26047856Y3582169D01*
X26011333Y3455233D01*
X25386822Y3455233D01*
X25540427Y3844329D01*
X25581662Y3906433D01*
X25856646Y4180587D01*
X26216684Y4390614D01*
X26592052Y4499310D01*
X26706460Y4506607D01*
X27093175Y4430104D01*
G37*
X27093175Y4430104D02*
X27443350Y4227652D01*
X27723264Y3933933D01*
X27899194Y3583630D01*
X27939973Y3238000D01*
X27916333Y2941667D01*
X26961864Y2899333D01*
X26550114Y2880123D01*
X26282324Y2861619D01*
X26133283Y2837026D01*
X26077783Y2799551D01*
X26090616Y2742402D01*
X26134293Y2676311D01*
X26354208Y2501452D01*
X26668678Y2432467D01*
X27035683Y2475120D01*
X27201026Y2529956D01*
X27424483Y2613153D01*
X27548708Y2628069D01*
X27630140Y2573059D01*
X27674387Y2516167D01*
X27770214Y2353173D01*
X27752597Y2233607D01*
X27604722Y2108724D01*
X27514167Y2051739D01*
X27181648Y1927400D01*
X26770193Y1883725D01*
X26350259Y1921658D01*
X26012609Y2031632D01*
X25688552Y2281916D01*
X25469691Y2630153D01*
X25365640Y3034518D01*
X25386014Y3453184D01*
X25386822Y3455233D01*
X26011333Y3455233D01*
X26089362Y3433138D01*
X26296937Y3416435D01*
X26594291Y3407892D01*
X26698993Y3407333D01*
X27386654Y3407333D01*
X27261852Y3597833D01*
X27019296Y3845492D01*
X26726361Y3954252D01*
X26425105Y3911373D01*
X26200814Y3769214D01*
X26047856Y3582169D01*
X26011333Y3455233D01*
X25386822Y3455233D01*
X25540427Y3844329D01*
X25581662Y3906433D01*
X25856646Y4180587D01*
X26216684Y4390614D01*
X26592052Y4499310D01*
X26706460Y4506607D01*
X27093175Y4430104D01*
G36*
X23712172Y5150980D02*
G01*
X24029945Y5114747D01*
X24128680Y5093373D01*
X24524235Y4898431D01*
X24846611Y4562290D01*
X25079604Y4103213D01*
X25120856Y3975278D01*
X25193251Y3687486D01*
X25206006Y3467541D01*
X25159377Y3224905D01*
X25123323Y3098412D01*
X24896436Y2615681D01*
X24534557Y2234413D01*
X24277426Y2068785D01*
X24083312Y2004883D01*
X23784585Y1953005D01*
X23419049Y1914511D01*
X23024509Y1890762D01*
X22638769Y1883119D01*
X22299632Y1892943D01*
X22044904Y1921596D01*
X21912388Y1970437D01*
X21903648Y1983326D01*
X21890375Y2102705D01*
X21881256Y2361823D01*
X21880058Y2458624D01*
X22540000Y2458624D01*
X23266613Y2488479D01*
X23623060Y2506665D01*
X23855658Y2535017D01*
X24009843Y2587660D01*
X24131052Y2678718D01*
X24235740Y2789756D01*
X24470871Y3164924D01*
X24540917Y3577121D01*
X24471279Y3949580D01*
X24331919Y4245839D01*
X24127621Y4449323D01*
X23828346Y4577093D01*
X23404054Y4646208D01*
X23221006Y4659668D01*
X22540000Y4699090D01*
X22540000Y2458624D01*
X21880058Y2458624D01*
X21876685Y2731130D01*
X21877055Y3181072D01*
X21881805Y3621847D01*
X21905000Y5143000D01*
X22836333Y5168207D01*
X23297745Y5169759D01*
X23712172Y5150980D01*
G37*
X23712172Y5150980D02*
X24029945Y5114747D01*
X24128680Y5093373D01*
X24524235Y4898431D01*
X24846611Y4562290D01*
X25079604Y4103213D01*
X25120856Y3975278D01*
X25193251Y3687486D01*
X25206006Y3467541D01*
X25159377Y3224905D01*
X25123323Y3098412D01*
X24896436Y2615681D01*
X24534557Y2234413D01*
X24277426Y2068785D01*
X24083312Y2004883D01*
X23784585Y1953005D01*
X23419049Y1914511D01*
X23024509Y1890762D01*
X22638769Y1883119D01*
X22299632Y1892943D01*
X22044904Y1921596D01*
X21912388Y1970437D01*
X21903648Y1983326D01*
X21890375Y2102705D01*
X21881256Y2361823D01*
X21880058Y2458624D01*
X22540000Y2458624D01*
X23266613Y2488479D01*
X23623060Y2506665D01*
X23855658Y2535017D01*
X24009843Y2587660D01*
X24131052Y2678718D01*
X24235740Y2789756D01*
X24470871Y3164924D01*
X24540917Y3577121D01*
X24471279Y3949580D01*
X24331919Y4245839D01*
X24127621Y4449323D01*
X23828346Y4577093D01*
X23404054Y4646208D01*
X23221006Y4659668D01*
X22540000Y4699090D01*
X22540000Y2458624D01*
X21880058Y2458624D01*
X21876685Y2731130D01*
X21877055Y3181072D01*
X21881805Y3621847D01*
X21905000Y5143000D01*
X22836333Y5168207D01*
X23297745Y5169759D01*
X23712172Y5150980D01*
G36*
X9884726Y5386968D02*
G01*
X10019996Y5230836D01*
X10031200Y5005809D01*
X10031483Y4854925D01*
X10070920Y4618393D01*
X10135889Y4346960D01*
X10212768Y4091372D01*
X10287936Y3902374D01*
X10346646Y3830667D01*
X10437178Y3886452D01*
X10583335Y4022724D01*
X10602000Y4042333D01*
X10785613Y4196198D01*
X10937152Y4252208D01*
X11019592Y4200128D01*
X11025333Y4159344D01*
X10973308Y4043580D01*
X10841713Y3859854D01*
X10764025Y3767074D01*
X10601894Y3558491D01*
X10541414Y3387126D01*
X10557297Y3178122D01*
X10560036Y3163230D01*
X10634118Y2885344D01*
X10746900Y2575725D01*
X10779011Y2501812D01*
X10877114Y2261209D01*
X10934500Y2072015D01*
X10940667Y2025346D01*
X11000594Y1872749D01*
X11067667Y1798667D01*
X11184394Y1641329D01*
X11158778Y1514439D01*
X11000187Y1460072D01*
X10992263Y1460000D01*
X10842275Y1495416D01*
X10764914Y1632834D01*
X10743407Y1735167D01*
X10688943Y1976736D01*
X10603089Y2273146D01*
X10500917Y2581663D01*
X10397496Y2859553D01*
X10307897Y3064083D01*
X10247191Y3152520D01*
X10243278Y3153333D01*
X10197162Y3079922D01*
X10178666Y2909700D01*
X10117023Y2648823D01*
X9938272Y2508707D01*
X9696953Y2491049D01*
X9529001Y2537328D01*
X9453362Y2660788D01*
X9431666Y2804266D01*
X9437832Y3025458D01*
X9489851Y3175175D01*
X9495166Y3181033D01*
X9537683Y3300620D01*
X9567003Y3531978D01*
X9583106Y3831328D01*
X9583287Y3851833D01*
X9848095Y3851833D01*
X9860741Y3547240D01*
X9903998Y3362521D01*
X9969348Y3313029D01*
X10048273Y3414114D01*
X10066591Y3458030D01*
X10071787Y3614419D01*
X10025831Y3856978D01*
X9987363Y3987197D01*
X9856190Y4381000D01*
X9848095Y3851833D01*
X9583287Y3851833D01*
X9585971Y4154891D01*
X9575577Y4458886D01*
X9551902Y4699533D01*
X9514925Y4833054D01*
X9495969Y4846667D01*
X9441109Y4920313D01*
X9430853Y5103035D01*
X9432469Y5121833D01*
X9480580Y5324245D01*
X9598296Y5412325D01*
X9665923Y5426208D01*
X9884726Y5386968D01*
G37*
X9884726Y5386968D02*
X10019996Y5230836D01*
X10031200Y5005809D01*
X10031483Y4854925D01*
X10070920Y4618393D01*
X10135889Y4346960D01*
X10212768Y4091372D01*
X10287936Y3902374D01*
X10346646Y3830667D01*
X10437178Y3886452D01*
X10583335Y4022724D01*
X10602000Y4042333D01*
X10785613Y4196198D01*
X10937152Y4252208D01*
X11019592Y4200128D01*
X11025333Y4159344D01*
X10973308Y4043580D01*
X10841713Y3859854D01*
X10764025Y3767074D01*
X10601894Y3558491D01*
X10541414Y3387126D01*
X10557297Y3178122D01*
X10560036Y3163230D01*
X10634118Y2885344D01*
X10746900Y2575725D01*
X10779011Y2501812D01*
X10877114Y2261209D01*
X10934500Y2072015D01*
X10940667Y2025346D01*
X11000594Y1872749D01*
X11067667Y1798667D01*
X11184394Y1641329D01*
X11158778Y1514439D01*
X11000187Y1460072D01*
X10992263Y1460000D01*
X10842275Y1495416D01*
X10764914Y1632834D01*
X10743407Y1735167D01*
X10688943Y1976736D01*
X10603089Y2273146D01*
X10500917Y2581663D01*
X10397496Y2859553D01*
X10307897Y3064083D01*
X10247191Y3152520D01*
X10243278Y3153333D01*
X10197162Y3079922D01*
X10178666Y2909700D01*
X10117023Y2648823D01*
X9938272Y2508707D01*
X9696953Y2491049D01*
X9529001Y2537328D01*
X9453362Y2660788D01*
X9431666Y2804266D01*
X9437832Y3025458D01*
X9489851Y3175175D01*
X9495166Y3181033D01*
X9537683Y3300620D01*
X9567003Y3531978D01*
X9583106Y3831328D01*
X9583287Y3851833D01*
X9848095Y3851833D01*
X9860741Y3547240D01*
X9903998Y3362521D01*
X9969348Y3313029D01*
X10048273Y3414114D01*
X10066591Y3458030D01*
X10071787Y3614419D01*
X10025831Y3856978D01*
X9987363Y3987197D01*
X9856190Y4381000D01*
X9848095Y3851833D01*
X9583287Y3851833D01*
X9585971Y4154891D01*
X9575577Y4458886D01*
X9551902Y4699533D01*
X9514925Y4833054D01*
X9495969Y4846667D01*
X9441109Y4920313D01*
X9430853Y5103035D01*
X9432469Y5121833D01*
X9480580Y5324245D01*
X9598296Y5412325D01*
X9665923Y5426208D01*
X9884726Y5386968D01*
%TD*%
D11*
%TO.C,U50*%
X9250000Y56440000D03*
X9250000Y58980000D03*
X9250000Y61520000D03*
X9250000Y64060000D03*
%TD*%
%TO.C,C21*%
G36*
G01*
X21150000Y51775000D02*
X21150000Y52725000D01*
G75*
G02*
X21200000Y52775000I50000J0D01*
G01*
X21800000Y52775000D01*
G75*
G02*
X21850000Y52725000I0J-50000D01*
G01*
X21850000Y51775000D01*
G75*
G02*
X21800000Y51725000I-50000J0D01*
G01*
X21200000Y51725000D01*
G75*
G02*
X21150000Y51775000I0J50000D01*
G01*
G37*
G36*
G01*
X22650000Y51775000D02*
X22650000Y52725000D01*
G75*
G02*
X22700000Y52775000I50000J0D01*
G01*
X23300000Y52775000D01*
G75*
G02*
X23350000Y52725000I0J-50000D01*
G01*
X23350000Y51775000D01*
G75*
G02*
X23300000Y51725000I-50000J0D01*
G01*
X22700000Y51725000D01*
G75*
G02*
X22650000Y51775000I0J50000D01*
G01*
G37*
%TD*%
%TO.C,C20*%
G36*
G01*
X23475000Y66900000D02*
X22525000Y66900000D01*
G75*
G02*
X22475000Y66950000I0J50000D01*
G01*
X22475000Y67550000D01*
G75*
G02*
X22525000Y67600000I50000J0D01*
G01*
X23475000Y67600000D01*
G75*
G02*
X23525000Y67550000I0J-50000D01*
G01*
X23525000Y66950000D01*
G75*
G02*
X23475000Y66900000I-50000J0D01*
G01*
G37*
G36*
G01*
X23475000Y68400000D02*
X22525000Y68400000D01*
G75*
G02*
X22475000Y68450000I0J50000D01*
G01*
X22475000Y69050000D01*
G75*
G02*
X22525000Y69100000I50000J0D01*
G01*
X23475000Y69100000D01*
G75*
G02*
X23525000Y69050000I0J-50000D01*
G01*
X23525000Y68450000D01*
G75*
G02*
X23475000Y68400000I-50000J0D01*
G01*
G37*
%TD*%
%TO.C,U20*%
G36*
G01*
X26770000Y56675000D02*
X27120000Y56675000D01*
G75*
G02*
X27295000Y56500000I0J-175000D01*
G01*
X27295000Y54700000D01*
G75*
G02*
X27120000Y54525000I-175000J0D01*
G01*
X26770000Y54525000D01*
G75*
G02*
X26595000Y54700000I0J175000D01*
G01*
X26595000Y56500000D01*
G75*
G02*
X26770000Y56675000I175000J0D01*
G01*
G37*
G36*
G01*
X25500000Y56675000D02*
X25850000Y56675000D01*
G75*
G02*
X26025000Y56500000I0J-175000D01*
G01*
X26025000Y54700000D01*
G75*
G02*
X25850000Y54525000I-175000J0D01*
G01*
X25500000Y54525000D01*
G75*
G02*
X25325000Y54700000I0J175000D01*
G01*
X25325000Y56500000D01*
G75*
G02*
X25500000Y56675000I175000J0D01*
G01*
G37*
G36*
G01*
X24230000Y56675000D02*
X24580000Y56675000D01*
G75*
G02*
X24755000Y56500000I0J-175000D01*
G01*
X24755000Y54700000D01*
G75*
G02*
X24580000Y54525000I-175000J0D01*
G01*
X24230000Y54525000D01*
G75*
G02*
X24055000Y54700000I0J175000D01*
G01*
X24055000Y56500000D01*
G75*
G02*
X24230000Y56675000I175000J0D01*
G01*
G37*
G36*
G01*
X22960000Y56675000D02*
X23310000Y56675000D01*
G75*
G02*
X23485000Y56500000I0J-175000D01*
G01*
X23485000Y54700000D01*
G75*
G02*
X23310000Y54525000I-175000J0D01*
G01*
X22960000Y54525000D01*
G75*
G02*
X22785000Y54700000I0J175000D01*
G01*
X22785000Y56500000D01*
G75*
G02*
X22960000Y56675000I175000J0D01*
G01*
G37*
G36*
G01*
X21690000Y56675000D02*
X22040000Y56675000D01*
G75*
G02*
X22215000Y56500000I0J-175000D01*
G01*
X22215000Y54700000D01*
G75*
G02*
X22040000Y54525000I-175000J0D01*
G01*
X21690000Y54525000D01*
G75*
G02*
X21515000Y54700000I0J175000D01*
G01*
X21515000Y56500000D01*
G75*
G02*
X21690000Y56675000I175000J0D01*
G01*
G37*
G36*
G01*
X20420000Y56675000D02*
X20770000Y56675000D01*
G75*
G02*
X20945000Y56500000I0J-175000D01*
G01*
X20945000Y54700000D01*
G75*
G02*
X20770000Y54525000I-175000J0D01*
G01*
X20420000Y54525000D01*
G75*
G02*
X20245000Y54700000I0J175000D01*
G01*
X20245000Y56500000D01*
G75*
G02*
X20420000Y56675000I175000J0D01*
G01*
G37*
G36*
G01*
X19150000Y56675000D02*
X19500000Y56675000D01*
G75*
G02*
X19675000Y56500000I0J-175000D01*
G01*
X19675000Y54700000D01*
G75*
G02*
X19500000Y54525000I-175000J0D01*
G01*
X19150000Y54525000D01*
G75*
G02*
X18975000Y54700000I0J175000D01*
G01*
X18975000Y56500000D01*
G75*
G02*
X19150000Y56675000I175000J0D01*
G01*
G37*
G36*
G01*
X17880000Y56675000D02*
X18230000Y56675000D01*
G75*
G02*
X18405000Y56500000I0J-175000D01*
G01*
X18405000Y54700000D01*
G75*
G02*
X18230000Y54525000I-175000J0D01*
G01*
X17880000Y54525000D01*
G75*
G02*
X17705000Y54700000I0J175000D01*
G01*
X17705000Y56500000D01*
G75*
G02*
X17880000Y56675000I175000J0D01*
G01*
G37*
G36*
G01*
X17880000Y65975000D02*
X18230000Y65975000D01*
G75*
G02*
X18405000Y65800000I0J-175000D01*
G01*
X18405000Y64000000D01*
G75*
G02*
X18230000Y63825000I-175000J0D01*
G01*
X17880000Y63825000D01*
G75*
G02*
X17705000Y64000000I0J175000D01*
G01*
X17705000Y65800000D01*
G75*
G02*
X17880000Y65975000I175000J0D01*
G01*
G37*
G36*
G01*
X19150000Y65975000D02*
X19500000Y65975000D01*
G75*
G02*
X19675000Y65800000I0J-175000D01*
G01*
X19675000Y64000000D01*
G75*
G02*
X19500000Y63825000I-175000J0D01*
G01*
X19150000Y63825000D01*
G75*
G02*
X18975000Y64000000I0J175000D01*
G01*
X18975000Y65800000D01*
G75*
G02*
X19150000Y65975000I175000J0D01*
G01*
G37*
G36*
G01*
X20420000Y65975000D02*
X20770000Y65975000D01*
G75*
G02*
X20945000Y65800000I0J-175000D01*
G01*
X20945000Y64000000D01*
G75*
G02*
X20770000Y63825000I-175000J0D01*
G01*
X20420000Y63825000D01*
G75*
G02*
X20245000Y64000000I0J175000D01*
G01*
X20245000Y65800000D01*
G75*
G02*
X20420000Y65975000I175000J0D01*
G01*
G37*
G36*
G01*
X21690000Y65975000D02*
X22040000Y65975000D01*
G75*
G02*
X22215000Y65800000I0J-175000D01*
G01*
X22215000Y64000000D01*
G75*
G02*
X22040000Y63825000I-175000J0D01*
G01*
X21690000Y63825000D01*
G75*
G02*
X21515000Y64000000I0J175000D01*
G01*
X21515000Y65800000D01*
G75*
G02*
X21690000Y65975000I175000J0D01*
G01*
G37*
G36*
G01*
X22960000Y65975000D02*
X23310000Y65975000D01*
G75*
G02*
X23485000Y65800000I0J-175000D01*
G01*
X23485000Y64000000D01*
G75*
G02*
X23310000Y63825000I-175000J0D01*
G01*
X22960000Y63825000D01*
G75*
G02*
X22785000Y64000000I0J175000D01*
G01*
X22785000Y65800000D01*
G75*
G02*
X22960000Y65975000I175000J0D01*
G01*
G37*
G36*
G01*
X24230000Y65975000D02*
X24580000Y65975000D01*
G75*
G02*
X24755000Y65800000I0J-175000D01*
G01*
X24755000Y64000000D01*
G75*
G02*
X24580000Y63825000I-175000J0D01*
G01*
X24230000Y63825000D01*
G75*
G02*
X24055000Y64000000I0J175000D01*
G01*
X24055000Y65800000D01*
G75*
G02*
X24230000Y65975000I175000J0D01*
G01*
G37*
G36*
G01*
X25500000Y65975000D02*
X25850000Y65975000D01*
G75*
G02*
X26025000Y65800000I0J-175000D01*
G01*
X26025000Y64000000D01*
G75*
G02*
X25850000Y63825000I-175000J0D01*
G01*
X25500000Y63825000D01*
G75*
G02*
X25325000Y64000000I0J175000D01*
G01*
X25325000Y65800000D01*
G75*
G02*
X25500000Y65975000I175000J0D01*
G01*
G37*
G36*
G01*
X26770000Y65975000D02*
X27120000Y65975000D01*
G75*
G02*
X27295000Y65800000I0J-175000D01*
G01*
X27295000Y64000000D01*
G75*
G02*
X27120000Y63825000I-175000J0D01*
G01*
X26770000Y63825000D01*
G75*
G02*
X26595000Y64000000I0J175000D01*
G01*
X26595000Y65800000D01*
G75*
G02*
X26770000Y65975000I175000J0D01*
G01*
G37*
%TD*%
D12*
%TO.C,FID3*%
X37000000Y3000000D03*
%TD*%
%TO.C,FID2*%
X3000000Y3000000D03*
%TD*%
%TO.C,FID1*%
X3000000Y77000000D03*
%TD*%
%TO.C,U30*%
G36*
G01*
X17225000Y37675000D02*
X15575000Y37675000D01*
G75*
G02*
X15525000Y37725000I0J50000D01*
G01*
X15525000Y38125000D01*
G75*
G02*
X15575000Y38175000I50000J0D01*
G01*
X17225000Y38175000D01*
G75*
G02*
X17275000Y38125000I0J-50000D01*
G01*
X17275000Y37725000D01*
G75*
G02*
X17225000Y37675000I-50000J0D01*
G01*
G37*
G36*
G01*
X17225000Y38325000D02*
X15575000Y38325000D01*
G75*
G02*
X15525000Y38375000I0J50000D01*
G01*
X15525000Y38775000D01*
G75*
G02*
X15575000Y38825000I50000J0D01*
G01*
X17225000Y38825000D01*
G75*
G02*
X17275000Y38775000I0J-50000D01*
G01*
X17275000Y38375000D01*
G75*
G02*
X17225000Y38325000I-50000J0D01*
G01*
G37*
G36*
G01*
X17225000Y38975000D02*
X15575000Y38975000D01*
G75*
G02*
X15525000Y39025000I0J50000D01*
G01*
X15525000Y39425000D01*
G75*
G02*
X15575000Y39475000I50000J0D01*
G01*
X17225000Y39475000D01*
G75*
G02*
X17275000Y39425000I0J-50000D01*
G01*
X17275000Y39025000D01*
G75*
G02*
X17225000Y38975000I-50000J0D01*
G01*
G37*
G36*
G01*
X24425000Y38975000D02*
X22775000Y38975000D01*
G75*
G02*
X22725000Y39025000I0J50000D01*
G01*
X22725000Y39425000D01*
G75*
G02*
X22775000Y39475000I50000J0D01*
G01*
X24425000Y39475000D01*
G75*
G02*
X24475000Y39425000I0J-50000D01*
G01*
X24475000Y39025000D01*
G75*
G02*
X24425000Y38975000I-50000J0D01*
G01*
G37*
G36*
G01*
X24425000Y38325000D02*
X22775000Y38325000D01*
G75*
G02*
X22725000Y38375000I0J50000D01*
G01*
X22725000Y38775000D01*
G75*
G02*
X22775000Y38825000I50000J0D01*
G01*
X24425000Y38825000D01*
G75*
G02*
X24475000Y38775000I0J-50000D01*
G01*
X24475000Y38375000D01*
G75*
G02*
X24425000Y38325000I-50000J0D01*
G01*
G37*
G36*
G01*
X24425000Y37675000D02*
X22775000Y37675000D01*
G75*
G02*
X22725000Y37725000I0J50000D01*
G01*
X22725000Y38125000D01*
G75*
G02*
X22775000Y38175000I50000J0D01*
G01*
X24425000Y38175000D01*
G75*
G02*
X24475000Y38125000I0J-50000D01*
G01*
X24475000Y37725000D01*
G75*
G02*
X24425000Y37675000I-50000J0D01*
G01*
G37*
G36*
G01*
X24425000Y31825000D02*
X22775000Y31825000D01*
G75*
G02*
X22725000Y31875000I0J50000D01*
G01*
X22725000Y32275000D01*
G75*
G02*
X22775000Y32325000I50000J0D01*
G01*
X24425000Y32325000D01*
G75*
G02*
X24475000Y32275000I0J-50000D01*
G01*
X24475000Y31875000D01*
G75*
G02*
X24425000Y31825000I-50000J0D01*
G01*
G37*
G36*
G01*
X24425000Y31175000D02*
X22775000Y31175000D01*
G75*
G02*
X22725000Y31225000I0J50000D01*
G01*
X22725000Y31625000D01*
G75*
G02*
X22775000Y31675000I50000J0D01*
G01*
X24425000Y31675000D01*
G75*
G02*
X24475000Y31625000I0J-50000D01*
G01*
X24475000Y31225000D01*
G75*
G02*
X24425000Y31175000I-50000J0D01*
G01*
G37*
G36*
G01*
X24425000Y30525000D02*
X22775000Y30525000D01*
G75*
G02*
X22725000Y30575000I0J50000D01*
G01*
X22725000Y30975000D01*
G75*
G02*
X22775000Y31025000I50000J0D01*
G01*
X24425000Y31025000D01*
G75*
G02*
X24475000Y30975000I0J-50000D01*
G01*
X24475000Y30575000D01*
G75*
G02*
X24425000Y30525000I-50000J0D01*
G01*
G37*
G36*
G01*
X17225000Y30525000D02*
X15575000Y30525000D01*
G75*
G02*
X15525000Y30575000I0J50000D01*
G01*
X15525000Y30975000D01*
G75*
G02*
X15575000Y31025000I50000J0D01*
G01*
X17225000Y31025000D01*
G75*
G02*
X17275000Y30975000I0J-50000D01*
G01*
X17275000Y30575000D01*
G75*
G02*
X17225000Y30525000I-50000J0D01*
G01*
G37*
G36*
G01*
X17225000Y31175000D02*
X15575000Y31175000D01*
G75*
G02*
X15525000Y31225000I0J50000D01*
G01*
X15525000Y31625000D01*
G75*
G02*
X15575000Y31675000I50000J0D01*
G01*
X17225000Y31675000D01*
G75*
G02*
X17275000Y31625000I0J-50000D01*
G01*
X17275000Y31225000D01*
G75*
G02*
X17225000Y31175000I-50000J0D01*
G01*
G37*
G36*
G01*
X17225000Y31825000D02*
X15575000Y31825000D01*
G75*
G02*
X15525000Y31875000I0J50000D01*
G01*
X15525000Y32275000D01*
G75*
G02*
X15575000Y32325000I50000J0D01*
G01*
X17225000Y32325000D01*
G75*
G02*
X17275000Y32275000I0J-50000D01*
G01*
X17275000Y31875000D01*
G75*
G02*
X17225000Y31825000I-50000J0D01*
G01*
G37*
G36*
G01*
X17225000Y33125000D02*
X15575000Y33125000D01*
G75*
G02*
X15525000Y33175000I0J50000D01*
G01*
X15525000Y33575000D01*
G75*
G02*
X15575000Y33625000I50000J0D01*
G01*
X17225000Y33625000D01*
G75*
G02*
X17275000Y33575000I0J-50000D01*
G01*
X17275000Y33175000D01*
G75*
G02*
X17225000Y33125000I-50000J0D01*
G01*
G37*
G36*
G01*
X24425000Y37025000D02*
X22775000Y37025000D01*
G75*
G02*
X22725000Y37075000I0J50000D01*
G01*
X22725000Y37475000D01*
G75*
G02*
X22775000Y37525000I50000J0D01*
G01*
X24425000Y37525000D01*
G75*
G02*
X24475000Y37475000I0J-50000D01*
G01*
X24475000Y37075000D01*
G75*
G02*
X24425000Y37025000I-50000J0D01*
G01*
G37*
G36*
G01*
X17225000Y33775000D02*
X15575000Y33775000D01*
G75*
G02*
X15525000Y33825000I0J50000D01*
G01*
X15525000Y34225000D01*
G75*
G02*
X15575000Y34275000I50000J0D01*
G01*
X17225000Y34275000D01*
G75*
G02*
X17275000Y34225000I0J-50000D01*
G01*
X17275000Y33825000D01*
G75*
G02*
X17225000Y33775000I-50000J0D01*
G01*
G37*
G36*
G01*
X17225000Y34425000D02*
X15575000Y34425000D01*
G75*
G02*
X15525000Y34475000I0J50000D01*
G01*
X15525000Y34875000D01*
G75*
G02*
X15575000Y34925000I50000J0D01*
G01*
X17225000Y34925000D01*
G75*
G02*
X17275000Y34875000I0J-50000D01*
G01*
X17275000Y34475000D01*
G75*
G02*
X17225000Y34425000I-50000J0D01*
G01*
G37*
G36*
G01*
X17225000Y35075000D02*
X15575000Y35075000D01*
G75*
G02*
X15525000Y35125000I0J50000D01*
G01*
X15525000Y35525000D01*
G75*
G02*
X15575000Y35575000I50000J0D01*
G01*
X17225000Y35575000D01*
G75*
G02*
X17275000Y35525000I0J-50000D01*
G01*
X17275000Y35125000D01*
G75*
G02*
X17225000Y35075000I-50000J0D01*
G01*
G37*
G36*
G01*
X17225000Y35725000D02*
X15575000Y35725000D01*
G75*
G02*
X15525000Y35775000I0J50000D01*
G01*
X15525000Y36175000D01*
G75*
G02*
X15575000Y36225000I50000J0D01*
G01*
X17225000Y36225000D01*
G75*
G02*
X17275000Y36175000I0J-50000D01*
G01*
X17275000Y35775000D01*
G75*
G02*
X17225000Y35725000I-50000J0D01*
G01*
G37*
G36*
G01*
X17225000Y36375000D02*
X15575000Y36375000D01*
G75*
G02*
X15525000Y36425000I0J50000D01*
G01*
X15525000Y36825000D01*
G75*
G02*
X15575000Y36875000I50000J0D01*
G01*
X17225000Y36875000D01*
G75*
G02*
X17275000Y36825000I0J-50000D01*
G01*
X17275000Y36425000D01*
G75*
G02*
X17225000Y36375000I-50000J0D01*
G01*
G37*
G36*
G01*
X17225000Y37025000D02*
X15575000Y37025000D01*
G75*
G02*
X15525000Y37075000I0J50000D01*
G01*
X15525000Y37475000D01*
G75*
G02*
X15575000Y37525000I50000J0D01*
G01*
X17225000Y37525000D01*
G75*
G02*
X17275000Y37475000I0J-50000D01*
G01*
X17275000Y37075000D01*
G75*
G02*
X17225000Y37025000I-50000J0D01*
G01*
G37*
G36*
G01*
X24425000Y33775000D02*
X22775000Y33775000D01*
G75*
G02*
X22725000Y33825000I0J50000D01*
G01*
X22725000Y34225000D01*
G75*
G02*
X22775000Y34275000I50000J0D01*
G01*
X24425000Y34275000D01*
G75*
G02*
X24475000Y34225000I0J-50000D01*
G01*
X24475000Y33825000D01*
G75*
G02*
X24425000Y33775000I-50000J0D01*
G01*
G37*
G36*
G01*
X24425000Y33125000D02*
X22775000Y33125000D01*
G75*
G02*
X22725000Y33175000I0J50000D01*
G01*
X22725000Y33575000D01*
G75*
G02*
X22775000Y33625000I50000J0D01*
G01*
X24425000Y33625000D01*
G75*
G02*
X24475000Y33575000I0J-50000D01*
G01*
X24475000Y33175000D01*
G75*
G02*
X24425000Y33125000I-50000J0D01*
G01*
G37*
G36*
G01*
X24425000Y32475000D02*
X22775000Y32475000D01*
G75*
G02*
X22725000Y32525000I0J50000D01*
G01*
X22725000Y32925000D01*
G75*
G02*
X22775000Y32975000I50000J0D01*
G01*
X24425000Y32975000D01*
G75*
G02*
X24475000Y32925000I0J-50000D01*
G01*
X24475000Y32525000D01*
G75*
G02*
X24425000Y32475000I-50000J0D01*
G01*
G37*
G36*
G01*
X17225000Y32475000D02*
X15575000Y32475000D01*
G75*
G02*
X15525000Y32525000I0J50000D01*
G01*
X15525000Y32925000D01*
G75*
G02*
X15575000Y32975000I50000J0D01*
G01*
X17225000Y32975000D01*
G75*
G02*
X17275000Y32925000I0J-50000D01*
G01*
X17275000Y32525000D01*
G75*
G02*
X17225000Y32475000I-50000J0D01*
G01*
G37*
G36*
G01*
X24425000Y36375000D02*
X22775000Y36375000D01*
G75*
G02*
X22725000Y36425000I0J50000D01*
G01*
X22725000Y36825000D01*
G75*
G02*
X22775000Y36875000I50000J0D01*
G01*
X24425000Y36875000D01*
G75*
G02*
X24475000Y36825000I0J-50000D01*
G01*
X24475000Y36425000D01*
G75*
G02*
X24425000Y36375000I-50000J0D01*
G01*
G37*
G36*
G01*
X24425000Y35725000D02*
X22775000Y35725000D01*
G75*
G02*
X22725000Y35775000I0J50000D01*
G01*
X22725000Y36175000D01*
G75*
G02*
X22775000Y36225000I50000J0D01*
G01*
X24425000Y36225000D01*
G75*
G02*
X24475000Y36175000I0J-50000D01*
G01*
X24475000Y35775000D01*
G75*
G02*
X24425000Y35725000I-50000J0D01*
G01*
G37*
G36*
G01*
X24425000Y35075000D02*
X22775000Y35075000D01*
G75*
G02*
X22725000Y35125000I0J50000D01*
G01*
X22725000Y35525000D01*
G75*
G02*
X22775000Y35575000I50000J0D01*
G01*
X24425000Y35575000D01*
G75*
G02*
X24475000Y35525000I0J-50000D01*
G01*
X24475000Y35125000D01*
G75*
G02*
X24425000Y35075000I-50000J0D01*
G01*
G37*
G36*
G01*
X24425000Y34425000D02*
X22775000Y34425000D01*
G75*
G02*
X22725000Y34475000I0J50000D01*
G01*
X22725000Y34875000D01*
G75*
G02*
X22775000Y34925000I50000J0D01*
G01*
X24425000Y34925000D01*
G75*
G02*
X24475000Y34875000I0J-50000D01*
G01*
X24475000Y34475000D01*
G75*
G02*
X24425000Y34425000I-50000J0D01*
G01*
G37*
%TD*%
%TO.C,C53*%
G36*
G01*
X36084375Y74900000D02*
X34915625Y74900000D01*
G75*
G02*
X34650000Y75165625I0J265625D01*
G01*
X34650000Y78234375D01*
G75*
G02*
X34915625Y78500000I265625J0D01*
G01*
X36084375Y78500000D01*
G75*
G02*
X36350000Y78234375I0J-265625D01*
G01*
X36350000Y75165625D01*
G75*
G02*
X36084375Y74900000I-265625J0D01*
G01*
G37*
G36*
G01*
X36084375Y69500000D02*
X34915625Y69500000D01*
G75*
G02*
X34650000Y69765625I0J265625D01*
G01*
X34650000Y72834375D01*
G75*
G02*
X34915625Y73100000I265625J0D01*
G01*
X36084375Y73100000D01*
G75*
G02*
X36350000Y72834375I0J-265625D01*
G01*
X36350000Y69765625D01*
G75*
G02*
X36084375Y69500000I-265625J0D01*
G01*
G37*
%TD*%
D13*
%TO.C,J30*%
X37000000Y39380000D03*
X29380000Y47000000D03*
X34460000Y39380000D03*
X31920000Y47000000D03*
X31920000Y39380000D03*
X34460000Y47000000D03*
X29380000Y39380000D03*
G36*
G01*
X36200000Y47850000D02*
X37800000Y47850000D01*
G75*
G02*
X37850000Y47800000I0J-50000D01*
G01*
X37850000Y46200000D01*
G75*
G02*
X37800000Y46150000I-50000J0D01*
G01*
X36200000Y46150000D01*
G75*
G02*
X36150000Y46200000I0J50000D01*
G01*
X36150000Y47800000D01*
G75*
G02*
X36200000Y47850000I50000J0D01*
G01*
G37*
%TD*%
D14*
%TO.C,J40*%
X21270000Y12420000D03*
X21270000Y14960000D03*
X21270000Y17500000D03*
X21270000Y20040000D03*
X21270000Y22580000D03*
X18730000Y12420000D03*
X18730000Y14960000D03*
X18730000Y17500000D03*
X18730000Y20040000D03*
G36*
G01*
X17830000Y21944705D02*
X17830000Y23215295D01*
G75*
G02*
X18094705Y23480000I264705J0D01*
G01*
X19365295Y23480000D01*
G75*
G02*
X19630000Y23215295I0J-264705D01*
G01*
X19630000Y21944705D01*
G75*
G02*
X19365295Y21680000I-264705J0D01*
G01*
X18094705Y21680000D01*
G75*
G02*
X17830000Y21944705I0J264705D01*
G01*
G37*
%TD*%
%TO.C,C57*%
G36*
G01*
X11100000Y39475000D02*
X11100000Y38525000D01*
G75*
G02*
X11050000Y38475000I-50000J0D01*
G01*
X10450000Y38475000D01*
G75*
G02*
X10400000Y38525000I0J50000D01*
G01*
X10400000Y39475000D01*
G75*
G02*
X10450000Y39525000I50000J0D01*
G01*
X11050000Y39525000D01*
G75*
G02*
X11100000Y39475000I0J-50000D01*
G01*
G37*
G36*
G01*
X9600000Y39475000D02*
X9600000Y38525000D01*
G75*
G02*
X9550000Y38475000I-50000J0D01*
G01*
X8950000Y38475000D01*
G75*
G02*
X8900000Y38525000I0J50000D01*
G01*
X8900000Y39475000D01*
G75*
G02*
X8950000Y39525000I50000J0D01*
G01*
X9550000Y39525000D01*
G75*
G02*
X9600000Y39475000I0J-50000D01*
G01*
G37*
%TD*%
%TO.C,C56*%
G36*
G01*
X11100000Y37475000D02*
X11100000Y36525000D01*
G75*
G02*
X11050000Y36475000I-50000J0D01*
G01*
X10450000Y36475000D01*
G75*
G02*
X10400000Y36525000I0J50000D01*
G01*
X10400000Y37475000D01*
G75*
G02*
X10450000Y37525000I50000J0D01*
G01*
X11050000Y37525000D01*
G75*
G02*
X11100000Y37475000I0J-50000D01*
G01*
G37*
G36*
G01*
X9600000Y37475000D02*
X9600000Y36525000D01*
G75*
G02*
X9550000Y36475000I-50000J0D01*
G01*
X8950000Y36475000D01*
G75*
G02*
X8900000Y36525000I0J50000D01*
G01*
X8900000Y37475000D01*
G75*
G02*
X8950000Y37525000I50000J0D01*
G01*
X9550000Y37525000D01*
G75*
G02*
X9600000Y37475000I0J-50000D01*
G01*
G37*
%TD*%
%TO.C,C55*%
G36*
G01*
X3850000Y43584375D02*
X3850000Y42415625D01*
G75*
G02*
X3584375Y42150000I-265625J0D01*
G01*
X515625Y42150000D01*
G75*
G02*
X250000Y42415625I0J265625D01*
G01*
X250000Y43584375D01*
G75*
G02*
X515625Y43850000I265625J0D01*
G01*
X3584375Y43850000D01*
G75*
G02*
X3850000Y43584375I0J-265625D01*
G01*
G37*
G36*
G01*
X9250000Y43584375D02*
X9250000Y42415625D01*
G75*
G02*
X8984375Y42150000I-265625J0D01*
G01*
X5915625Y42150000D01*
G75*
G02*
X5650000Y42415625I0J265625D01*
G01*
X5650000Y43584375D01*
G75*
G02*
X5915625Y43850000I265625J0D01*
G01*
X8984375Y43850000D01*
G75*
G02*
X9250000Y43584375I0J-265625D01*
G01*
G37*
%TD*%
%TO.C,C54*%
G36*
G01*
X3850000Y50834375D02*
X3850000Y49665625D01*
G75*
G02*
X3584375Y49400000I-265625J0D01*
G01*
X515625Y49400000D01*
G75*
G02*
X250000Y49665625I0J265625D01*
G01*
X250000Y50834375D01*
G75*
G02*
X515625Y51100000I265625J0D01*
G01*
X3584375Y51100000D01*
G75*
G02*
X3850000Y50834375I0J-265625D01*
G01*
G37*
G36*
G01*
X9250000Y50834375D02*
X9250000Y49665625D01*
G75*
G02*
X8984375Y49400000I-265625J0D01*
G01*
X5915625Y49400000D01*
G75*
G02*
X5650000Y49665625I0J265625D01*
G01*
X5650000Y50834375D01*
G75*
G02*
X5915625Y51100000I265625J0D01*
G01*
X8984375Y51100000D01*
G75*
G02*
X9250000Y50834375I0J-265625D01*
G01*
G37*
%TD*%
%TO.C,C52*%
G36*
G01*
X28584375Y74900000D02*
X27415625Y74900000D01*
G75*
G02*
X27150000Y75165625I0J265625D01*
G01*
X27150000Y78234375D01*
G75*
G02*
X27415625Y78500000I265625J0D01*
G01*
X28584375Y78500000D01*
G75*
G02*
X28850000Y78234375I0J-265625D01*
G01*
X28850000Y75165625D01*
G75*
G02*
X28584375Y74900000I-265625J0D01*
G01*
G37*
G36*
G01*
X28584375Y69500000D02*
X27415625Y69500000D01*
G75*
G02*
X27150000Y69765625I0J265625D01*
G01*
X27150000Y72834375D01*
G75*
G02*
X27415625Y73100000I265625J0D01*
G01*
X28584375Y73100000D01*
G75*
G02*
X28850000Y72834375I0J-265625D01*
G01*
X28850000Y69765625D01*
G75*
G02*
X28584375Y69500000I-265625J0D01*
G01*
G37*
%TD*%
D15*
%TO.C,TP45*%
X2000000Y15000000D03*
%TD*%
%TO.C,TP44*%
X2000000Y22500000D03*
%TD*%
%TO.C,T71*%
G36*
G01*
X6807020Y8052500D02*
X5806260Y8052500D01*
G75*
G02*
X5756260Y8102500I0J50000D01*
G01*
X5756260Y8802500D01*
G75*
G02*
X5806260Y8852500I50000J0D01*
G01*
X6807020Y8852500D01*
G75*
G02*
X6857020Y8802500I0J-50000D01*
G01*
X6857020Y8102500D01*
G75*
G02*
X6807020Y8052500I-50000J0D01*
G01*
G37*
G36*
G01*
X4693740Y7100000D02*
X3692980Y7100000D01*
G75*
G02*
X3642980Y7150000I0J50000D01*
G01*
X3642980Y7850000D01*
G75*
G02*
X3692980Y7900000I50000J0D01*
G01*
X4693740Y7900000D01*
G75*
G02*
X4743740Y7850000I0J-50000D01*
G01*
X4743740Y7150000D01*
G75*
G02*
X4693740Y7100000I-50000J0D01*
G01*
G37*
G36*
G01*
X6807020Y6147500D02*
X5806260Y6147500D01*
G75*
G02*
X5756260Y6197500I0J50000D01*
G01*
X5756260Y6897500D01*
G75*
G02*
X5806260Y6947500I50000J0D01*
G01*
X6807020Y6947500D01*
G75*
G02*
X6857020Y6897500I0J-50000D01*
G01*
X6857020Y6197500D01*
G75*
G02*
X6807020Y6147500I-50000J0D01*
G01*
G37*
%TD*%
%TO.C,T70*%
G36*
G01*
X6807020Y11552500D02*
X5806260Y11552500D01*
G75*
G02*
X5756260Y11602500I0J50000D01*
G01*
X5756260Y12302500D01*
G75*
G02*
X5806260Y12352500I50000J0D01*
G01*
X6807020Y12352500D01*
G75*
G02*
X6857020Y12302500I0J-50000D01*
G01*
X6857020Y11602500D01*
G75*
G02*
X6807020Y11552500I-50000J0D01*
G01*
G37*
G36*
G01*
X4693740Y10600000D02*
X3692980Y10600000D01*
G75*
G02*
X3642980Y10650000I0J50000D01*
G01*
X3642980Y11350000D01*
G75*
G02*
X3692980Y11400000I50000J0D01*
G01*
X4693740Y11400000D01*
G75*
G02*
X4743740Y11350000I0J-50000D01*
G01*
X4743740Y10650000D01*
G75*
G02*
X4693740Y10600000I-50000J0D01*
G01*
G37*
G36*
G01*
X6807020Y9647500D02*
X5806260Y9647500D01*
G75*
G02*
X5756260Y9697500I0J50000D01*
G01*
X5756260Y10397500D01*
G75*
G02*
X5806260Y10447500I50000J0D01*
G01*
X6807020Y10447500D01*
G75*
G02*
X6857020Y10397500I0J-50000D01*
G01*
X6857020Y9697500D01*
G75*
G02*
X6807020Y9647500I-50000J0D01*
G01*
G37*
%TD*%
%TO.C,SKIP1*%
G36*
G01*
X9000000Y76500000D02*
X9000000Y77500000D01*
G75*
G02*
X9500000Y78000000I500000J0D01*
G01*
X10500000Y78000000D01*
G75*
G02*
X11000000Y77500000I0J-500000D01*
G01*
X11000000Y76500000D01*
G75*
G02*
X10500000Y76000000I-500000J0D01*
G01*
X9500000Y76000000D01*
G75*
G02*
X9000000Y76500000I0J500000D01*
G01*
G37*
%TD*%
%TO.C,R76*%
G36*
G01*
X10225000Y11400000D02*
X9275000Y11400000D01*
G75*
G02*
X9225000Y11450000I0J50000D01*
G01*
X9225000Y12050000D01*
G75*
G02*
X9275000Y12100000I50000J0D01*
G01*
X10225000Y12100000D01*
G75*
G02*
X10275000Y12050000I0J-50000D01*
G01*
X10275000Y11450000D01*
G75*
G02*
X10225000Y11400000I-50000J0D01*
G01*
G37*
G36*
G01*
X10225000Y9900000D02*
X9275000Y9900000D01*
G75*
G02*
X9225000Y9950000I0J50000D01*
G01*
X9225000Y10550000D01*
G75*
G02*
X9275000Y10600000I50000J0D01*
G01*
X10225000Y10600000D01*
G75*
G02*
X10275000Y10550000I0J-50000D01*
G01*
X10275000Y9950000D01*
G75*
G02*
X10225000Y9900000I-50000J0D01*
G01*
G37*
%TD*%
%TO.C,R75*%
G36*
G01*
X1525000Y7100000D02*
X2475000Y7100000D01*
G75*
G02*
X2525000Y7050000I0J-50000D01*
G01*
X2525000Y6450000D01*
G75*
G02*
X2475000Y6400000I-50000J0D01*
G01*
X1525000Y6400000D01*
G75*
G02*
X1475000Y6450000I0J50000D01*
G01*
X1475000Y7050000D01*
G75*
G02*
X1525000Y7100000I50000J0D01*
G01*
G37*
G36*
G01*
X1525000Y8600000D02*
X2475000Y8600000D01*
G75*
G02*
X2525000Y8550000I0J-50000D01*
G01*
X2525000Y7950000D01*
G75*
G02*
X2475000Y7900000I-50000J0D01*
G01*
X1525000Y7900000D01*
G75*
G02*
X1475000Y7950000I0J50000D01*
G01*
X1475000Y8550000D01*
G75*
G02*
X1525000Y8600000I50000J0D01*
G01*
G37*
%TD*%
%TO.C,R74*%
G36*
G01*
X11725000Y11400000D02*
X10775000Y11400000D01*
G75*
G02*
X10725000Y11450000I0J50000D01*
G01*
X10725000Y12050000D01*
G75*
G02*
X10775000Y12100000I50000J0D01*
G01*
X11725000Y12100000D01*
G75*
G02*
X11775000Y12050000I0J-50000D01*
G01*
X11775000Y11450000D01*
G75*
G02*
X11725000Y11400000I-50000J0D01*
G01*
G37*
G36*
G01*
X11725000Y9900000D02*
X10775000Y9900000D01*
G75*
G02*
X10725000Y9950000I0J50000D01*
G01*
X10725000Y10550000D01*
G75*
G02*
X10775000Y10600000I50000J0D01*
G01*
X11725000Y10600000D01*
G75*
G02*
X11775000Y10550000I0J-50000D01*
G01*
X11775000Y9950000D01*
G75*
G02*
X11725000Y9900000I-50000J0D01*
G01*
G37*
%TD*%
%TO.C,R73*%
G36*
G01*
X1525000Y10600000D02*
X2475000Y10600000D01*
G75*
G02*
X2525000Y10550000I0J-50000D01*
G01*
X2525000Y9950000D01*
G75*
G02*
X2475000Y9900000I-50000J0D01*
G01*
X1525000Y9900000D01*
G75*
G02*
X1475000Y9950000I0J50000D01*
G01*
X1475000Y10550000D01*
G75*
G02*
X1525000Y10600000I50000J0D01*
G01*
G37*
G36*
G01*
X1525000Y12100000D02*
X2475000Y12100000D01*
G75*
G02*
X2525000Y12050000I0J-50000D01*
G01*
X2525000Y11450000D01*
G75*
G02*
X2475000Y11400000I-50000J0D01*
G01*
X1525000Y11400000D01*
G75*
G02*
X1475000Y11450000I0J50000D01*
G01*
X1475000Y12050000D01*
G75*
G02*
X1525000Y12100000I50000J0D01*
G01*
G37*
%TD*%
%TO.C,D74*%
G36*
G01*
X13450000Y19300000D02*
X13450000Y20700000D01*
G75*
G02*
X13500000Y20750000I50000J0D01*
G01*
X14300000Y20750000D01*
G75*
G02*
X14350000Y20700000I0J-50000D01*
G01*
X14350000Y19300000D01*
G75*
G02*
X14300000Y19250000I-50000J0D01*
G01*
X13500000Y19250000D01*
G75*
G02*
X13450000Y19300000I0J50000D01*
G01*
G37*
G36*
G01*
X11650000Y19300000D02*
X11650000Y20700000D01*
G75*
G02*
X11700000Y20750000I50000J0D01*
G01*
X12500000Y20750000D01*
G75*
G02*
X12550000Y20700000I0J-50000D01*
G01*
X12550000Y19300000D01*
G75*
G02*
X12500000Y19250000I-50000J0D01*
G01*
X11700000Y19250000D01*
G75*
G02*
X11650000Y19300000I0J50000D01*
G01*
G37*
%TD*%
%TO.C,D73*%
G36*
G01*
X13450000Y16800000D02*
X13450000Y18200000D01*
G75*
G02*
X13500000Y18250000I50000J0D01*
G01*
X14300000Y18250000D01*
G75*
G02*
X14350000Y18200000I0J-50000D01*
G01*
X14350000Y16800000D01*
G75*
G02*
X14300000Y16750000I-50000J0D01*
G01*
X13500000Y16750000D01*
G75*
G02*
X13450000Y16800000I0J50000D01*
G01*
G37*
G36*
G01*
X11650000Y16800000D02*
X11650000Y18200000D01*
G75*
G02*
X11700000Y18250000I50000J0D01*
G01*
X12500000Y18250000D01*
G75*
G02*
X12550000Y18200000I0J-50000D01*
G01*
X12550000Y16800000D01*
G75*
G02*
X12500000Y16750000I-50000J0D01*
G01*
X11700000Y16750000D01*
G75*
G02*
X11650000Y16800000I0J50000D01*
G01*
G37*
%TD*%
%TO.C,TP43*%
X38000000Y12500000D03*
%TD*%
%TO.C,TP42*%
X38000000Y15000000D03*
%TD*%
%TO.C,TP41*%
X38000000Y22500000D03*
%TD*%
%TO.C,U60*%
G36*
G01*
X17449920Y45900690D02*
X17449920Y44099830D01*
G75*
G02*
X17399920Y44049830I-50000J0D01*
G01*
X13600080Y44049830D01*
G75*
G02*
X13550080Y44099830I0J50000D01*
G01*
X13550080Y45900690D01*
G75*
G02*
X13600080Y45950690I50000J0D01*
G01*
X17399920Y45950690D01*
G75*
G02*
X17449920Y45900690I0J-50000D01*
G01*
G37*
G36*
G01*
X13899000Y51900170D02*
X13899000Y50099310D01*
G75*
G02*
X13849000Y50049310I-50000J0D01*
G01*
X12548520Y50049310D01*
G75*
G02*
X12498520Y50099310I0J50000D01*
G01*
X12498520Y51900170D01*
G75*
G02*
X12548520Y51950170I50000J0D01*
G01*
X13849000Y51950170D01*
G75*
G02*
X13899000Y51900170I0J-50000D01*
G01*
G37*
G36*
G01*
X16200240Y51900170D02*
X16200240Y50099310D01*
G75*
G02*
X16150240Y50049310I-50000J0D01*
G01*
X14849760Y50049310D01*
G75*
G02*
X14799760Y50099310I0J50000D01*
G01*
X14799760Y51900170D01*
G75*
G02*
X14849760Y51950170I50000J0D01*
G01*
X16150240Y51950170D01*
G75*
G02*
X16200240Y51900170I0J-50000D01*
G01*
G37*
G36*
G01*
X18501480Y51900170D02*
X18501480Y50099310D01*
G75*
G02*
X18451480Y50049310I-50000J0D01*
G01*
X17151000Y50049310D01*
G75*
G02*
X17101000Y50099310I0J50000D01*
G01*
X17101000Y51900170D01*
G75*
G02*
X17151000Y51950170I50000J0D01*
G01*
X18451480Y51950170D01*
G75*
G02*
X18501480Y51900170I0J-50000D01*
G01*
G37*
%TD*%
%TO.C,R72*%
G36*
G01*
X8725000Y11400000D02*
X7775000Y11400000D01*
G75*
G02*
X7725000Y11450000I0J50000D01*
G01*
X7725000Y12050000D01*
G75*
G02*
X7775000Y12100000I50000J0D01*
G01*
X8725000Y12100000D01*
G75*
G02*
X8775000Y12050000I0J-50000D01*
G01*
X8775000Y11450000D01*
G75*
G02*
X8725000Y11400000I-50000J0D01*
G01*
G37*
G36*
G01*
X8725000Y9900000D02*
X7775000Y9900000D01*
G75*
G02*
X7725000Y9950000I0J50000D01*
G01*
X7725000Y10550000D01*
G75*
G02*
X7775000Y10600000I50000J0D01*
G01*
X8725000Y10600000D01*
G75*
G02*
X8775000Y10550000I0J-50000D01*
G01*
X8775000Y9950000D01*
G75*
G02*
X8725000Y9900000I-50000J0D01*
G01*
G37*
%TD*%
%TO.C,R71*%
G36*
G01*
X13225000Y11400000D02*
X12275000Y11400000D01*
G75*
G02*
X12225000Y11450000I0J50000D01*
G01*
X12225000Y12050000D01*
G75*
G02*
X12275000Y12100000I50000J0D01*
G01*
X13225000Y12100000D01*
G75*
G02*
X13275000Y12050000I0J-50000D01*
G01*
X13275000Y11450000D01*
G75*
G02*
X13225000Y11400000I-50000J0D01*
G01*
G37*
G36*
G01*
X13225000Y9900000D02*
X12275000Y9900000D01*
G75*
G02*
X12225000Y9950000I0J50000D01*
G01*
X12225000Y10550000D01*
G75*
G02*
X12275000Y10600000I50000J0D01*
G01*
X13225000Y10600000D01*
G75*
G02*
X13275000Y10550000I0J-50000D01*
G01*
X13275000Y9950000D01*
G75*
G02*
X13225000Y9900000I-50000J0D01*
G01*
G37*
%TD*%
%TO.C,R70*%
G36*
G01*
X35975000Y68400000D02*
X35025000Y68400000D01*
G75*
G02*
X34975000Y68450000I0J50000D01*
G01*
X34975000Y69050000D01*
G75*
G02*
X35025000Y69100000I50000J0D01*
G01*
X35975000Y69100000D01*
G75*
G02*
X36025000Y69050000I0J-50000D01*
G01*
X36025000Y68450000D01*
G75*
G02*
X35975000Y68400000I-50000J0D01*
G01*
G37*
G36*
G01*
X35975000Y66900000D02*
X35025000Y66900000D01*
G75*
G02*
X34975000Y66950000I0J50000D01*
G01*
X34975000Y67550000D01*
G75*
G02*
X35025000Y67600000I50000J0D01*
G01*
X35975000Y67600000D01*
G75*
G02*
X36025000Y67550000I0J-50000D01*
G01*
X36025000Y66950000D01*
G75*
G02*
X35975000Y66900000I-50000J0D01*
G01*
G37*
%TD*%
%TO.C,R33*%
G36*
G01*
X25775000Y13350000D02*
X26725000Y13350000D01*
G75*
G02*
X26775000Y13300000I0J-50000D01*
G01*
X26775000Y12700000D01*
G75*
G02*
X26725000Y12650000I-50000J0D01*
G01*
X25775000Y12650000D01*
G75*
G02*
X25725000Y12700000I0J50000D01*
G01*
X25725000Y13300000D01*
G75*
G02*
X25775000Y13350000I50000J0D01*
G01*
G37*
G36*
G01*
X25775000Y14850000D02*
X26725000Y14850000D01*
G75*
G02*
X26775000Y14800000I0J-50000D01*
G01*
X26775000Y14200000D01*
G75*
G02*
X26725000Y14150000I-50000J0D01*
G01*
X25775000Y14150000D01*
G75*
G02*
X25725000Y14200000I0J50000D01*
G01*
X25725000Y14800000D01*
G75*
G02*
X25775000Y14850000I50000J0D01*
G01*
G37*
%TD*%
%TO.C,R32*%
G36*
G01*
X27275000Y13350000D02*
X28225000Y13350000D01*
G75*
G02*
X28275000Y13300000I0J-50000D01*
G01*
X28275000Y12700000D01*
G75*
G02*
X28225000Y12650000I-50000J0D01*
G01*
X27275000Y12650000D01*
G75*
G02*
X27225000Y12700000I0J50000D01*
G01*
X27225000Y13300000D01*
G75*
G02*
X27275000Y13350000I50000J0D01*
G01*
G37*
G36*
G01*
X27275000Y14850000D02*
X28225000Y14850000D01*
G75*
G02*
X28275000Y14800000I0J-50000D01*
G01*
X28275000Y14200000D01*
G75*
G02*
X28225000Y14150000I-50000J0D01*
G01*
X27275000Y14150000D01*
G75*
G02*
X27225000Y14200000I0J50000D01*
G01*
X27225000Y14800000D01*
G75*
G02*
X27275000Y14850000I50000J0D01*
G01*
G37*
%TD*%
%TO.C,R31*%
G36*
G01*
X21475000Y48400000D02*
X20525000Y48400000D01*
G75*
G02*
X20475000Y48450000I0J50000D01*
G01*
X20475000Y49050000D01*
G75*
G02*
X20525000Y49100000I50000J0D01*
G01*
X21475000Y49100000D01*
G75*
G02*
X21525000Y49050000I0J-50000D01*
G01*
X21525000Y48450000D01*
G75*
G02*
X21475000Y48400000I-50000J0D01*
G01*
G37*
G36*
G01*
X21475000Y46900000D02*
X20525000Y46900000D01*
G75*
G02*
X20475000Y46950000I0J50000D01*
G01*
X20475000Y47550000D01*
G75*
G02*
X20525000Y47600000I50000J0D01*
G01*
X21475000Y47600000D01*
G75*
G02*
X21525000Y47550000I0J-50000D01*
G01*
X21525000Y46950000D01*
G75*
G02*
X21475000Y46900000I-50000J0D01*
G01*
G37*
%TD*%
%TO.C,R30*%
G36*
G01*
X22525000Y47600000D02*
X23475000Y47600000D01*
G75*
G02*
X23525000Y47550000I0J-50000D01*
G01*
X23525000Y46950000D01*
G75*
G02*
X23475000Y46900000I-50000J0D01*
G01*
X22525000Y46900000D01*
G75*
G02*
X22475000Y46950000I0J50000D01*
G01*
X22475000Y47550000D01*
G75*
G02*
X22525000Y47600000I50000J0D01*
G01*
G37*
G36*
G01*
X22525000Y49100000D02*
X23475000Y49100000D01*
G75*
G02*
X23525000Y49050000I0J-50000D01*
G01*
X23525000Y48450000D01*
G75*
G02*
X23475000Y48400000I-50000J0D01*
G01*
X22525000Y48400000D01*
G75*
G02*
X22475000Y48450000I0J50000D01*
G01*
X22475000Y49050000D01*
G75*
G02*
X22525000Y49100000I50000J0D01*
G01*
G37*
%TD*%
%TO.C,R11*%
G36*
G01*
X18525000Y67600000D02*
X19475000Y67600000D01*
G75*
G02*
X19525000Y67550000I0J-50000D01*
G01*
X19525000Y66950000D01*
G75*
G02*
X19475000Y66900000I-50000J0D01*
G01*
X18525000Y66900000D01*
G75*
G02*
X18475000Y66950000I0J50000D01*
G01*
X18475000Y67550000D01*
G75*
G02*
X18525000Y67600000I50000J0D01*
G01*
G37*
G36*
G01*
X18525000Y69100000D02*
X19475000Y69100000D01*
G75*
G02*
X19525000Y69050000I0J-50000D01*
G01*
X19525000Y68450000D01*
G75*
G02*
X19475000Y68400000I-50000J0D01*
G01*
X18525000Y68400000D01*
G75*
G02*
X18475000Y68450000I0J50000D01*
G01*
X18475000Y69050000D01*
G75*
G02*
X18525000Y69100000I50000J0D01*
G01*
G37*
%TD*%
%TO.C,R10*%
G36*
G01*
X20525000Y67600000D02*
X21475000Y67600000D01*
G75*
G02*
X21525000Y67550000I0J-50000D01*
G01*
X21525000Y66950000D01*
G75*
G02*
X21475000Y66900000I-50000J0D01*
G01*
X20525000Y66900000D01*
G75*
G02*
X20475000Y66950000I0J50000D01*
G01*
X20475000Y67550000D01*
G75*
G02*
X20525000Y67600000I50000J0D01*
G01*
G37*
G36*
G01*
X20525000Y69100000D02*
X21475000Y69100000D01*
G75*
G02*
X21525000Y69050000I0J-50000D01*
G01*
X21525000Y68450000D01*
G75*
G02*
X21475000Y68400000I-50000J0D01*
G01*
X20525000Y68400000D01*
G75*
G02*
X20475000Y68450000I0J50000D01*
G01*
X20475000Y69050000D01*
G75*
G02*
X20525000Y69100000I50000J0D01*
G01*
G37*
%TD*%
D16*
%TO.C,K10*%
X20000000Y81050000D03*
G36*
G01*
X25050000Y78875500D02*
X25050000Y78224500D01*
G75*
G02*
X24500500Y77675000I-549500J0D01*
G01*
X23499500Y77675000D01*
G75*
G02*
X22950000Y78224500I0J549500D01*
G01*
X22950000Y78875500D01*
G75*
G02*
X23499500Y79425000I549500J0D01*
G01*
X24500500Y79425000D01*
G75*
G02*
X25050000Y78875500I0J-549500D01*
G01*
G37*
G36*
G01*
X17050000Y78875500D02*
X17050000Y78224500D01*
G75*
G02*
X16500500Y77675000I-549500J0D01*
G01*
X15499500Y77675000D01*
G75*
G02*
X14950000Y78224500I0J549500D01*
G01*
X14950000Y78875500D01*
G75*
G02*
X15499500Y79425000I549500J0D01*
G01*
X16500500Y79425000D01*
G75*
G02*
X17050000Y78875500I0J-549500D01*
G01*
G37*
G36*
G01*
X23250000Y75850000D02*
X23250000Y74850000D01*
G75*
G02*
X22650000Y74250000I-600000J0D01*
G01*
X22350000Y74250000D01*
G75*
G02*
X21750000Y74850000I0J600000D01*
G01*
X21750000Y75850000D01*
G75*
G02*
X22350000Y76450000I600000J0D01*
G01*
X22650000Y76450000D01*
G75*
G02*
X23250000Y75850000I0J-600000D01*
G01*
G37*
G36*
G01*
X18250000Y75850000D02*
X18250000Y74850000D01*
G75*
G02*
X17650000Y74250000I-600000J0D01*
G01*
X17350000Y74250000D01*
G75*
G02*
X16750000Y74850000I0J600000D01*
G01*
X16750000Y75850000D01*
G75*
G02*
X17350000Y76450000I600000J0D01*
G01*
X17650000Y76450000D01*
G75*
G02*
X18250000Y75850000I0J-600000D01*
G01*
G37*
G36*
G01*
X22900000Y79300000D02*
X22900000Y77800000D01*
G75*
G02*
X22850000Y77750000I-50000J0D01*
G01*
X22150000Y77750000D01*
G75*
G02*
X22100000Y77800000I0J50000D01*
G01*
X22100000Y79300000D01*
G75*
G02*
X22150000Y79350000I50000J0D01*
G01*
X22850000Y79350000D01*
G75*
G02*
X22900000Y79300000I0J-50000D01*
G01*
G37*
G36*
G01*
X17900000Y79300000D02*
X17900000Y77800000D01*
G75*
G02*
X17850000Y77750000I-50000J0D01*
G01*
X17150000Y77750000D01*
G75*
G02*
X17100000Y77800000I0J50000D01*
G01*
X17100000Y79300000D01*
G75*
G02*
X17150000Y79350000I50000J0D01*
G01*
X17850000Y79350000D01*
G75*
G02*
X17900000Y79300000I0J-50000D01*
G01*
G37*
G36*
G01*
X21800000Y79300000D02*
X21800000Y77800000D01*
G75*
G02*
X21750000Y77750000I-50000J0D01*
G01*
X20250000Y77750000D01*
G75*
G02*
X20200000Y77800000I0J50000D01*
G01*
X20200000Y79300000D01*
G75*
G02*
X20250000Y79350000I50000J0D01*
G01*
X21750000Y79350000D01*
G75*
G02*
X21800000Y79300000I0J-50000D01*
G01*
G37*
G36*
G01*
X19800000Y79300000D02*
X19800000Y77800000D01*
G75*
G02*
X19750000Y77750000I-50000J0D01*
G01*
X18250000Y77750000D01*
G75*
G02*
X18200000Y77800000I0J50000D01*
G01*
X18200000Y79300000D01*
G75*
G02*
X18250000Y79350000I50000J0D01*
G01*
X19750000Y79350000D01*
G75*
G02*
X19800000Y79300000I0J-50000D01*
G01*
G37*
D17*
X16500000Y78550000D03*
D18*
X22500000Y75850000D03*
X17500000Y75850000D03*
D17*
X23500000Y78550000D03*
G36*
G01*
X18975000Y76550000D02*
X18975000Y74950000D01*
G75*
G02*
X18925000Y74900000I-50000J0D01*
G01*
X18475000Y74900000D01*
G75*
G02*
X18425000Y74950000I0J50000D01*
G01*
X18425000Y76550000D01*
G75*
G02*
X18475000Y76600000I50000J0D01*
G01*
X18925000Y76600000D01*
G75*
G02*
X18975000Y76550000I0J-50000D01*
G01*
G37*
G36*
G01*
X19625000Y76550000D02*
X19625000Y74950000D01*
G75*
G02*
X19575000Y74900000I-50000J0D01*
G01*
X19125000Y74900000D01*
G75*
G02*
X19075000Y74950000I0J50000D01*
G01*
X19075000Y76550000D01*
G75*
G02*
X19125000Y76600000I50000J0D01*
G01*
X19575000Y76600000D01*
G75*
G02*
X19625000Y76550000I0J-50000D01*
G01*
G37*
G36*
G01*
X20275000Y76550000D02*
X20275000Y74950000D01*
G75*
G02*
X20225000Y74900000I-50000J0D01*
G01*
X19775000Y74900000D01*
G75*
G02*
X19725000Y74950000I0J50000D01*
G01*
X19725000Y76550000D01*
G75*
G02*
X19775000Y76600000I50000J0D01*
G01*
X20225000Y76600000D01*
G75*
G02*
X20275000Y76550000I0J-50000D01*
G01*
G37*
G36*
G01*
X20925000Y76550000D02*
X20925000Y74950000D01*
G75*
G02*
X20875000Y74900000I-50000J0D01*
G01*
X20425000Y74900000D01*
G75*
G02*
X20375000Y74950000I0J50000D01*
G01*
X20375000Y76550000D01*
G75*
G02*
X20425000Y76600000I50000J0D01*
G01*
X20875000Y76600000D01*
G75*
G02*
X20925000Y76550000I0J-50000D01*
G01*
G37*
G36*
G01*
X21575000Y76550000D02*
X21575000Y74950000D01*
G75*
G02*
X21525000Y74900000I-50000J0D01*
G01*
X21075000Y74900000D01*
G75*
G02*
X21025000Y74950000I0J50000D01*
G01*
X21025000Y76550000D01*
G75*
G02*
X21075000Y76600000I50000J0D01*
G01*
X21525000Y76600000D01*
G75*
G02*
X21575000Y76550000I0J-50000D01*
G01*
G37*
%TD*%
%TO.C,J32*%
G36*
G01*
X29845000Y31900000D02*
X29845000Y30600000D01*
G75*
G02*
X29795000Y30550000I-50000J0D01*
G01*
X28245000Y30550000D01*
G75*
G02*
X28195000Y30600000I0J50000D01*
G01*
X28195000Y31900000D01*
G75*
G02*
X28245000Y31950000I50000J0D01*
G01*
X29795000Y31950000D01*
G75*
G02*
X29845000Y31900000I0J-50000D01*
G01*
G37*
G36*
G01*
X29845000Y27400000D02*
X29845000Y26100000D01*
G75*
G02*
X29795000Y26050000I-50000J0D01*
G01*
X28245000Y26050000D01*
G75*
G02*
X28195000Y26100000I0J50000D01*
G01*
X28195000Y27400000D01*
G75*
G02*
X28245000Y27450000I50000J0D01*
G01*
X29795000Y27450000D01*
G75*
G02*
X29845000Y27400000I0J-50000D01*
G01*
G37*
G36*
G01*
X37805000Y27400000D02*
X37805000Y26100000D01*
G75*
G02*
X37755000Y26050000I-50000J0D01*
G01*
X36205000Y26050000D01*
G75*
G02*
X36155000Y26100000I0J50000D01*
G01*
X36155000Y27400000D01*
G75*
G02*
X36205000Y27450000I50000J0D01*
G01*
X37755000Y27450000D01*
G75*
G02*
X37805000Y27400000I0J-50000D01*
G01*
G37*
G36*
G01*
X37805000Y31900000D02*
X37805000Y30600000D01*
G75*
G02*
X37755000Y30550000I-50000J0D01*
G01*
X36205000Y30550000D01*
G75*
G02*
X36155000Y30600000I0J50000D01*
G01*
X36155000Y31900000D01*
G75*
G02*
X36205000Y31950000I50000J0D01*
G01*
X37755000Y31950000D01*
G75*
G02*
X37805000Y31900000I0J-50000D01*
G01*
G37*
%TD*%
%TO.C,J31*%
G36*
G01*
X3845000Y31900000D02*
X3845000Y30600000D01*
G75*
G02*
X3795000Y30550000I-50000J0D01*
G01*
X2245000Y30550000D01*
G75*
G02*
X2195000Y30600000I0J50000D01*
G01*
X2195000Y31900000D01*
G75*
G02*
X2245000Y31950000I50000J0D01*
G01*
X3795000Y31950000D01*
G75*
G02*
X3845000Y31900000I0J-50000D01*
G01*
G37*
G36*
G01*
X3845000Y27400000D02*
X3845000Y26100000D01*
G75*
G02*
X3795000Y26050000I-50000J0D01*
G01*
X2245000Y26050000D01*
G75*
G02*
X2195000Y26100000I0J50000D01*
G01*
X2195000Y27400000D01*
G75*
G02*
X2245000Y27450000I50000J0D01*
G01*
X3795000Y27450000D01*
G75*
G02*
X3845000Y27400000I0J-50000D01*
G01*
G37*
G36*
G01*
X11805000Y27400000D02*
X11805000Y26100000D01*
G75*
G02*
X11755000Y26050000I-50000J0D01*
G01*
X10205000Y26050000D01*
G75*
G02*
X10155000Y26100000I0J50000D01*
G01*
X10155000Y27400000D01*
G75*
G02*
X10205000Y27450000I50000J0D01*
G01*
X11755000Y27450000D01*
G75*
G02*
X11805000Y27400000I0J-50000D01*
G01*
G37*
G36*
G01*
X11805000Y31900000D02*
X11805000Y30600000D01*
G75*
G02*
X11755000Y30550000I-50000J0D01*
G01*
X10205000Y30550000D01*
G75*
G02*
X10155000Y30600000I0J50000D01*
G01*
X10155000Y31900000D01*
G75*
G02*
X10205000Y31950000I50000J0D01*
G01*
X11755000Y31950000D01*
G75*
G02*
X11805000Y31900000I0J-50000D01*
G01*
G37*
%TD*%
%TO.C,D72*%
G36*
G01*
X13450000Y21800000D02*
X13450000Y23200000D01*
G75*
G02*
X13500000Y23250000I50000J0D01*
G01*
X14300000Y23250000D01*
G75*
G02*
X14350000Y23200000I0J-50000D01*
G01*
X14350000Y21800000D01*
G75*
G02*
X14300000Y21750000I-50000J0D01*
G01*
X13500000Y21750000D01*
G75*
G02*
X13450000Y21800000I0J50000D01*
G01*
G37*
G36*
G01*
X11650000Y21800000D02*
X11650000Y23200000D01*
G75*
G02*
X11700000Y23250000I50000J0D01*
G01*
X12500000Y23250000D01*
G75*
G02*
X12550000Y23200000I0J-50000D01*
G01*
X12550000Y21800000D01*
G75*
G02*
X12500000Y21750000I-50000J0D01*
G01*
X11700000Y21750000D01*
G75*
G02*
X11650000Y21800000I0J50000D01*
G01*
G37*
%TD*%
%TO.C,D71*%
G36*
G01*
X13450000Y14300000D02*
X13450000Y15700000D01*
G75*
G02*
X13500000Y15750000I50000J0D01*
G01*
X14300000Y15750000D01*
G75*
G02*
X14350000Y15700000I0J-50000D01*
G01*
X14350000Y14300000D01*
G75*
G02*
X14300000Y14250000I-50000J0D01*
G01*
X13500000Y14250000D01*
G75*
G02*
X13450000Y14300000I0J50000D01*
G01*
G37*
G36*
G01*
X11650000Y14300000D02*
X11650000Y15700000D01*
G75*
G02*
X11700000Y15750000I50000J0D01*
G01*
X12500000Y15750000D01*
G75*
G02*
X12550000Y15700000I0J-50000D01*
G01*
X12550000Y14300000D01*
G75*
G02*
X12500000Y14250000I-50000J0D01*
G01*
X11700000Y14250000D01*
G75*
G02*
X11650000Y14300000I0J50000D01*
G01*
G37*
%TD*%
%TO.C,D70*%
G36*
G01*
X38450000Y68450000D02*
X37050000Y68450000D01*
G75*
G02*
X37000000Y68500000I0J50000D01*
G01*
X37000000Y69300000D01*
G75*
G02*
X37050000Y69350000I50000J0D01*
G01*
X38450000Y69350000D01*
G75*
G02*
X38500000Y69300000I0J-50000D01*
G01*
X38500000Y68500000D01*
G75*
G02*
X38450000Y68450000I-50000J0D01*
G01*
G37*
G36*
G01*
X38450000Y66650000D02*
X37050000Y66650000D01*
G75*
G02*
X37000000Y66700000I0J50000D01*
G01*
X37000000Y67500000D01*
G75*
G02*
X37050000Y67550000I50000J0D01*
G01*
X38450000Y67550000D01*
G75*
G02*
X38500000Y67500000I0J-50000D01*
G01*
X38500000Y66700000D01*
G75*
G02*
X38450000Y66650000I-50000J0D01*
G01*
G37*
%TD*%
%TO.C,D31*%
G36*
G01*
X27450000Y19300000D02*
X27450000Y20700000D01*
G75*
G02*
X27500000Y20750000I50000J0D01*
G01*
X28300000Y20750000D01*
G75*
G02*
X28350000Y20700000I0J-50000D01*
G01*
X28350000Y19300000D01*
G75*
G02*
X28300000Y19250000I-50000J0D01*
G01*
X27500000Y19250000D01*
G75*
G02*
X27450000Y19300000I0J50000D01*
G01*
G37*
G36*
G01*
X25650000Y19300000D02*
X25650000Y20700000D01*
G75*
G02*
X25700000Y20750000I50000J0D01*
G01*
X26500000Y20750000D01*
G75*
G02*
X26550000Y20700000I0J-50000D01*
G01*
X26550000Y19300000D01*
G75*
G02*
X26500000Y19250000I-50000J0D01*
G01*
X25700000Y19250000D01*
G75*
G02*
X25650000Y19300000I0J50000D01*
G01*
G37*
%TD*%
%TO.C,D30*%
G36*
G01*
X27450000Y16800000D02*
X27450000Y18200000D01*
G75*
G02*
X27500000Y18250000I50000J0D01*
G01*
X28300000Y18250000D01*
G75*
G02*
X28350000Y18200000I0J-50000D01*
G01*
X28350000Y16800000D01*
G75*
G02*
X28300000Y16750000I-50000J0D01*
G01*
X27500000Y16750000D01*
G75*
G02*
X27450000Y16800000I0J50000D01*
G01*
G37*
G36*
G01*
X25650000Y16800000D02*
X25650000Y18200000D01*
G75*
G02*
X25700000Y18250000I50000J0D01*
G01*
X26500000Y18250000D01*
G75*
G02*
X26550000Y18200000I0J-50000D01*
G01*
X26550000Y16800000D01*
G75*
G02*
X26500000Y16750000I-50000J0D01*
G01*
X25700000Y16750000D01*
G75*
G02*
X25650000Y16800000I0J50000D01*
G01*
G37*
%TD*%
%TO.C,D10*%
G36*
G01*
X20349720Y71193740D02*
X20349720Y70192980D01*
G75*
G02*
X20299720Y70142980I-50000J0D01*
G01*
X19700280Y70142980D01*
G75*
G02*
X19650280Y70192980I0J50000D01*
G01*
X19650280Y71193740D01*
G75*
G02*
X19700280Y71243740I50000J0D01*
G01*
X20299720Y71243740D01*
G75*
G02*
X20349720Y71193740I0J-50000D01*
G01*
G37*
G36*
G01*
X21302220Y71193740D02*
X21302220Y70192980D01*
G75*
G02*
X21252220Y70142980I-50000J0D01*
G01*
X20652780Y70142980D01*
G75*
G02*
X20602780Y70192980I0J50000D01*
G01*
X20602780Y71193740D01*
G75*
G02*
X20652780Y71243740I50000J0D01*
G01*
X21252220Y71243740D01*
G75*
G02*
X21302220Y71193740I0J-50000D01*
G01*
G37*
G36*
G01*
X19397220Y71193740D02*
X19397220Y70192980D01*
G75*
G02*
X19347220Y70142980I-50000J0D01*
G01*
X18747780Y70142980D01*
G75*
G02*
X18697780Y70192980I0J50000D01*
G01*
X18697780Y71193740D01*
G75*
G02*
X18747780Y71243740I50000J0D01*
G01*
X19347220Y71243740D01*
G75*
G02*
X19397220Y71193740I0J-50000D01*
G01*
G37*
G36*
G01*
X20349720Y73307020D02*
X20349720Y72306260D01*
G75*
G02*
X20299720Y72256260I-50000J0D01*
G01*
X19700280Y72256260D01*
G75*
G02*
X19650280Y72306260I0J50000D01*
G01*
X19650280Y73307020D01*
G75*
G02*
X19700280Y73357020I50000J0D01*
G01*
X20299720Y73357020D01*
G75*
G02*
X20349720Y73307020I0J-50000D01*
G01*
G37*
G36*
G01*
X19397220Y73307020D02*
X19397220Y72306260D01*
G75*
G02*
X19347220Y72256260I-50000J0D01*
G01*
X18747780Y72256260D01*
G75*
G02*
X18697780Y72306260I0J50000D01*
G01*
X18697780Y73307020D01*
G75*
G02*
X18747780Y73357020I50000J0D01*
G01*
X19347220Y73357020D01*
G75*
G02*
X19397220Y73307020I0J-50000D01*
G01*
G37*
G36*
G01*
X21302220Y73307020D02*
X21302220Y72306260D01*
G75*
G02*
X21252220Y72256260I-50000J0D01*
G01*
X20652780Y72256260D01*
G75*
G02*
X20602780Y72306260I0J50000D01*
G01*
X20602780Y73307020D01*
G75*
G02*
X20652780Y73357020I50000J0D01*
G01*
X21252220Y73357020D01*
G75*
G02*
X21302220Y73307020I0J-50000D01*
G01*
G37*
%TD*%
%TO.C,C62*%
G36*
G01*
X15400000Y52775000D02*
X15400000Y53725000D01*
G75*
G02*
X15450000Y53775000I50000J0D01*
G01*
X16050000Y53775000D01*
G75*
G02*
X16100000Y53725000I0J-50000D01*
G01*
X16100000Y52775000D01*
G75*
G02*
X16050000Y52725000I-50000J0D01*
G01*
X15450000Y52725000D01*
G75*
G02*
X15400000Y52775000I0J50000D01*
G01*
G37*
G36*
G01*
X16900000Y52775000D02*
X16900000Y53725000D01*
G75*
G02*
X16950000Y53775000I50000J0D01*
G01*
X17550000Y53775000D01*
G75*
G02*
X17600000Y53725000I0J-50000D01*
G01*
X17600000Y52775000D01*
G75*
G02*
X17550000Y52725000I-50000J0D01*
G01*
X16950000Y52725000D01*
G75*
G02*
X16900000Y52775000I0J50000D01*
G01*
G37*
%TD*%
%TO.C,C61*%
G36*
G01*
X9150000Y46525000D02*
X9150000Y47475000D01*
G75*
G02*
X9200000Y47525000I50000J0D01*
G01*
X9800000Y47525000D01*
G75*
G02*
X9850000Y47475000I0J-50000D01*
G01*
X9850000Y46525000D01*
G75*
G02*
X9800000Y46475000I-50000J0D01*
G01*
X9200000Y46475000D01*
G75*
G02*
X9150000Y46525000I0J50000D01*
G01*
G37*
G36*
G01*
X10650000Y46525000D02*
X10650000Y47475000D01*
G75*
G02*
X10700000Y47525000I50000J0D01*
G01*
X11300000Y47525000D01*
G75*
G02*
X11350000Y47475000I0J-50000D01*
G01*
X11350000Y46525000D01*
G75*
G02*
X11300000Y46475000I-50000J0D01*
G01*
X10700000Y46475000D01*
G75*
G02*
X10650000Y46525000I0J50000D01*
G01*
G37*
%TD*%
%TO.C,C60*%
G36*
G01*
X9150000Y44775000D02*
X9150000Y45725000D01*
G75*
G02*
X9200000Y45775000I50000J0D01*
G01*
X9800000Y45775000D01*
G75*
G02*
X9850000Y45725000I0J-50000D01*
G01*
X9850000Y44775000D01*
G75*
G02*
X9800000Y44725000I-50000J0D01*
G01*
X9200000Y44725000D01*
G75*
G02*
X9150000Y44775000I0J50000D01*
G01*
G37*
G36*
G01*
X10650000Y44775000D02*
X10650000Y45725000D01*
G75*
G02*
X10700000Y45775000I50000J0D01*
G01*
X11300000Y45775000D01*
G75*
G02*
X11350000Y45725000I0J-50000D01*
G01*
X11350000Y44775000D01*
G75*
G02*
X11300000Y44725000I-50000J0D01*
G01*
X10700000Y44725000D01*
G75*
G02*
X10650000Y44775000I0J50000D01*
G01*
G37*
%TD*%
%TO.C,C51*%
G36*
G01*
X6475000Y64150000D02*
X5525000Y64150000D01*
G75*
G02*
X5475000Y64200000I0J50000D01*
G01*
X5475000Y64800000D01*
G75*
G02*
X5525000Y64850000I50000J0D01*
G01*
X6475000Y64850000D01*
G75*
G02*
X6525000Y64800000I0J-50000D01*
G01*
X6525000Y64200000D01*
G75*
G02*
X6475000Y64150000I-50000J0D01*
G01*
G37*
G36*
G01*
X6475000Y65650000D02*
X5525000Y65650000D01*
G75*
G02*
X5475000Y65700000I0J50000D01*
G01*
X5475000Y66300000D01*
G75*
G02*
X5525000Y66350000I50000J0D01*
G01*
X6475000Y66350000D01*
G75*
G02*
X6525000Y66300000I0J-50000D01*
G01*
X6525000Y65700000D01*
G75*
G02*
X6475000Y65650000I-50000J0D01*
G01*
G37*
%TD*%
%TO.C,C50*%
G36*
G01*
X4725000Y64150000D02*
X3775000Y64150000D01*
G75*
G02*
X3725000Y64200000I0J50000D01*
G01*
X3725000Y64800000D01*
G75*
G02*
X3775000Y64850000I50000J0D01*
G01*
X4725000Y64850000D01*
G75*
G02*
X4775000Y64800000I0J-50000D01*
G01*
X4775000Y64200000D01*
G75*
G02*
X4725000Y64150000I-50000J0D01*
G01*
G37*
G36*
G01*
X4725000Y65650000D02*
X3775000Y65650000D01*
G75*
G02*
X3725000Y65700000I0J50000D01*
G01*
X3725000Y66300000D01*
G75*
G02*
X3775000Y66350000I50000J0D01*
G01*
X4725000Y66350000D01*
G75*
G02*
X4775000Y66300000I0J-50000D01*
G01*
X4775000Y65700000D01*
G75*
G02*
X4725000Y65650000I-50000J0D01*
G01*
G37*
%TD*%
%TO.C,C30*%
G36*
G01*
X14725000Y37650000D02*
X13775000Y37650000D01*
G75*
G02*
X13725000Y37700000I0J50000D01*
G01*
X13725000Y38300000D01*
G75*
G02*
X13775000Y38350000I50000J0D01*
G01*
X14725000Y38350000D01*
G75*
G02*
X14775000Y38300000I0J-50000D01*
G01*
X14775000Y37700000D01*
G75*
G02*
X14725000Y37650000I-50000J0D01*
G01*
G37*
G36*
G01*
X14725000Y39150000D02*
X13775000Y39150000D01*
G75*
G02*
X13725000Y39200000I0J50000D01*
G01*
X13725000Y39800000D01*
G75*
G02*
X13775000Y39850000I50000J0D01*
G01*
X14725000Y39850000D01*
G75*
G02*
X14775000Y39800000I0J-50000D01*
G01*
X14775000Y39200000D01*
G75*
G02*
X14725000Y39150000I-50000J0D01*
G01*
G37*
%TD*%
M02*
