%TF.GenerationSoftware,KiCad,Pcbnew,(5.1.10)-1*%
%TF.CreationDate,2022-01-11T09:06:52+01:00*%
%TF.ProjectId,EspOptoProg,4573704f-7074-46f5-9072-6f672e6b6963,rev?*%
%TF.SameCoordinates,Original*%
%TF.FileFunction,Soldermask,Bot*%
%TF.FilePolarity,Negative*%
%FSLAX46Y46*%
G04 Gerber Fmt 4.6, Leading zero omitted, Abs format (unit mm)*
G04 Created by KiCad (PCBNEW (5.1.10)-1) date 2022-01-11 09:06:52*
%MOMM*%
%LPD*%
G01*
G04 APERTURE LIST*
%ADD10C,0.150000*%
%ADD11O,2.100000X1.300000*%
%ADD12C,2.000000*%
%ADD13O,1.700000X1.700000*%
%ADD14C,1.800000*%
%ADD15O,2.300000X1.800000*%
%ADD16O,9.100000X2.100000*%
%ADD17O,1.000000X1.650000*%
%ADD18O,1.400000X1.100000*%
G04 APERTURE END LIST*
D10*
X38547619Y65321428D02*
X38214285Y65321428D01*
X38071428Y64797619D02*
X38547619Y64797619D01*
X38547619Y65797619D01*
X38071428Y65797619D01*
X37690476Y64845238D02*
X37547619Y64797619D01*
X37309523Y64797619D01*
X37214285Y64845238D01*
X37166666Y64892857D01*
X37119047Y64988095D01*
X37119047Y65083333D01*
X37166666Y65178571D01*
X37214285Y65226190D01*
X37309523Y65273809D01*
X37500000Y65321428D01*
X37595238Y65369047D01*
X37642857Y65416666D01*
X37690476Y65511904D01*
X37690476Y65607142D01*
X37642857Y65702380D01*
X37595238Y65750000D01*
X37500000Y65797619D01*
X37261904Y65797619D01*
X37119047Y65750000D01*
X36690476Y64797619D02*
X36690476Y65797619D01*
X36309523Y65797619D01*
X36214285Y65750000D01*
X36166666Y65702380D01*
X36119047Y65607142D01*
X36119047Y65464285D01*
X36166666Y65369047D01*
X36214285Y65321428D01*
X36309523Y65273809D01*
X36690476Y65273809D01*
X34738095Y65797619D02*
X34547619Y65797619D01*
X34452380Y65750000D01*
X34357142Y65654761D01*
X34309523Y65464285D01*
X34309523Y65130952D01*
X34357142Y64940476D01*
X34452380Y64845238D01*
X34547619Y64797619D01*
X34738095Y64797619D01*
X34833333Y64845238D01*
X34928571Y64940476D01*
X34976190Y65130952D01*
X34976190Y65464285D01*
X34928571Y65654761D01*
X34833333Y65750000D01*
X34738095Y65797619D01*
X33880952Y65464285D02*
X33880952Y64464285D01*
X33880952Y65416666D02*
X33785714Y65464285D01*
X33595238Y65464285D01*
X33500000Y65416666D01*
X33452380Y65369047D01*
X33404761Y65273809D01*
X33404761Y64988095D01*
X33452380Y64892857D01*
X33500000Y64845238D01*
X33595238Y64797619D01*
X33785714Y64797619D01*
X33880952Y64845238D01*
X33119047Y65464285D02*
X32738095Y65464285D01*
X32976190Y65797619D02*
X32976190Y64940476D01*
X32928571Y64845238D01*
X32833333Y64797619D01*
X32738095Y64797619D01*
X32261904Y64797619D02*
X32357142Y64845238D01*
X32404761Y64892857D01*
X32452380Y64988095D01*
X32452380Y65273809D01*
X32404761Y65369047D01*
X32357142Y65416666D01*
X32261904Y65464285D01*
X32119047Y65464285D01*
X32023809Y65416666D01*
X31976190Y65369047D01*
X31928571Y65273809D01*
X31928571Y64988095D01*
X31976190Y64892857D01*
X32023809Y64845238D01*
X32119047Y64797619D01*
X32261904Y64797619D01*
X31500000Y64797619D02*
X31500000Y65797619D01*
X31119047Y65797619D01*
X31023809Y65750000D01*
X30976190Y65702380D01*
X30928571Y65607142D01*
X30928571Y65464285D01*
X30976190Y65369047D01*
X31023809Y65321428D01*
X31119047Y65273809D01*
X31500000Y65273809D01*
X30500000Y64797619D02*
X30500000Y65464285D01*
X30500000Y65273809D02*
X30452380Y65369047D01*
X30404761Y65416666D01*
X30309523Y65464285D01*
X30214285Y65464285D01*
X29738095Y64797619D02*
X29833333Y64845238D01*
X29880952Y64892857D01*
X29928571Y64988095D01*
X29928571Y65273809D01*
X29880952Y65369047D01*
X29833333Y65416666D01*
X29738095Y65464285D01*
X29595238Y65464285D01*
X29500000Y65416666D01*
X29452380Y65369047D01*
X29404761Y65273809D01*
X29404761Y64988095D01*
X29452380Y64892857D01*
X29500000Y64845238D01*
X29595238Y64797619D01*
X29738095Y64797619D01*
X28547619Y65464285D02*
X28547619Y64654761D01*
X28595238Y64559523D01*
X28642857Y64511904D01*
X28738095Y64464285D01*
X28880952Y64464285D01*
X28976190Y64511904D01*
X28547619Y64845238D02*
X28642857Y64797619D01*
X28833333Y64797619D01*
X28928571Y64845238D01*
X28976190Y64892857D01*
X29023809Y64988095D01*
X29023809Y65273809D01*
X28976190Y65369047D01*
X28928571Y65416666D01*
X28833333Y65464285D01*
X28642857Y65464285D01*
X28547619Y65416666D01*
X27309523Y64797619D02*
X27309523Y65797619D01*
X27309523Y65321428D02*
X26738095Y65321428D01*
X26738095Y64797619D02*
X26738095Y65797619D01*
X26404761Y65797619D02*
X26071428Y64797619D01*
X25738095Y65797619D01*
X25452380Y65702380D02*
X25404761Y65750000D01*
X25309523Y65797619D01*
X25071428Y65797619D01*
X24976190Y65750000D01*
X24928571Y65702380D01*
X24880952Y65607142D01*
X24880952Y65511904D01*
X24928571Y65369047D01*
X25500000Y64797619D01*
X24880952Y64797619D01*
X23738095Y65702380D02*
X23690476Y65750000D01*
X23595238Y65797619D01*
X23357142Y65797619D01*
X23261904Y65750000D01*
X23214285Y65702380D01*
X23166666Y65607142D01*
X23166666Y65511904D01*
X23214285Y65369047D01*
X23785714Y64797619D01*
X23166666Y64797619D01*
X22785714Y65702380D02*
X22738095Y65750000D01*
X22642857Y65797619D01*
X22404761Y65797619D01*
X22309523Y65750000D01*
X22261904Y65702380D01*
X22214285Y65607142D01*
X22214285Y65511904D01*
X22261904Y65369047D01*
X22833333Y64797619D01*
X22214285Y64797619D01*
X21595238Y65797619D02*
X21500000Y65797619D01*
X21404761Y65750000D01*
X21357142Y65702380D01*
X21309523Y65607142D01*
X21261904Y65416666D01*
X21261904Y65178571D01*
X21309523Y64988095D01*
X21357142Y64892857D01*
X21404761Y64845238D01*
X21500000Y64797619D01*
X21595238Y64797619D01*
X21690476Y64845238D01*
X21738095Y64892857D01*
X21785714Y64988095D01*
X21833333Y65178571D01*
X21833333Y65416666D01*
X21785714Y65607142D01*
X21738095Y65702380D01*
X21690476Y65750000D01*
X21595238Y65797619D01*
X20309523Y64797619D02*
X20880952Y64797619D01*
X20595238Y64797619D02*
X20595238Y65797619D01*
X20690476Y65654761D01*
X20785714Y65559523D01*
X20880952Y65511904D01*
X19357142Y64797619D02*
X19928571Y64797619D01*
X19642857Y64797619D02*
X19642857Y65797619D01*
X19738095Y65654761D01*
X19833333Y65559523D01*
X19928571Y65511904D01*
X18404761Y64797619D02*
X18976190Y64797619D01*
X18690476Y64797619D02*
X18690476Y65797619D01*
X18785714Y65654761D01*
X18880952Y65559523D01*
X18976190Y65511904D01*
D11*
%TO.C,U50*%
X9250000Y56440000D03*
X9250000Y58980000D03*
X9250000Y61520000D03*
X9250000Y64060000D03*
%TD*%
D12*
%TO.C,FID6*%
X37000000Y3000000D03*
%TD*%
%TO.C,FID5*%
X3000000Y3000000D03*
%TD*%
%TO.C,FID4*%
X3000000Y77000000D03*
%TD*%
D13*
%TO.C,J30*%
X37000000Y39380000D03*
X29380000Y47000000D03*
X34460000Y39380000D03*
X31920000Y47000000D03*
X31920000Y39380000D03*
X34460000Y47000000D03*
X29380000Y39380000D03*
G36*
G01*
X36200000Y47850000D02*
X37800000Y47850000D01*
G75*
G02*
X37850000Y47800000I0J-50000D01*
G01*
X37850000Y46200000D01*
G75*
G02*
X37800000Y46150000I-50000J0D01*
G01*
X36200000Y46150000D01*
G75*
G02*
X36150000Y46200000I0J50000D01*
G01*
X36150000Y47800000D01*
G75*
G02*
X36200000Y47850000I50000J0D01*
G01*
G37*
%TD*%
D14*
%TO.C,J40*%
X21270000Y12420000D03*
X21270000Y14960000D03*
X21270000Y17500000D03*
X21270000Y20040000D03*
X21270000Y22580000D03*
X18730000Y12420000D03*
X18730000Y14960000D03*
X18730000Y17500000D03*
X18730000Y20040000D03*
G36*
G01*
X17830000Y21944705D02*
X17830000Y23215295D01*
G75*
G02*
X18094705Y23480000I264705J0D01*
G01*
X19365295Y23480000D01*
G75*
G02*
X19630000Y23215295I0J-264705D01*
G01*
X19630000Y21944705D01*
G75*
G02*
X19365295Y21680000I-264705J0D01*
G01*
X18094705Y21680000D01*
G75*
G02*
X17830000Y21944705I0J264705D01*
G01*
G37*
%TD*%
D15*
%TO.C,TP45*%
X2000000Y15000000D03*
%TD*%
%TO.C,TP44*%
X2000000Y22500000D03*
%TD*%
%TO.C,TP43*%
X38000000Y12500000D03*
%TD*%
%TO.C,TP42*%
X38000000Y15000000D03*
%TD*%
%TO.C,TP41*%
X38000000Y22500000D03*
%TD*%
D16*
%TO.C,K10*%
X20000000Y81050000D03*
D17*
X16500000Y78550000D03*
D18*
X22500000Y75850000D03*
X17500000Y75850000D03*
D17*
X23500000Y78550000D03*
%TD*%
M02*
